%
M48
M72
T01C0.02362
T02C0.02756
T03C0.03150
T04C0.03543
T05C0.12598
%
T01
X33296Y52981
X49044Y52981
X49044Y68729
X33296Y68729
X17548Y68729
X17548Y84477
X33296Y84477
X49044Y84477
X64792Y84477
X64792Y68729
X96288Y104162
X96288Y115973
X108099Y104162
X104162Y80540
X115973Y80540
X127784Y80540
X167154Y76603
X167154Y64792
X182902Y64792
X182902Y76603
X182902Y88414
X182902Y100225
X198650Y100225
X198650Y88414
X198650Y76603
X198650Y64792
X167154Y88414
X198650Y112036
X171091Y147469
X159280Y147469
X159280Y135658
X159280Y159280
X171091Y159280
X182902Y159280
X182902Y171091
X171091Y171091
X159280Y171091
X159280Y182902
X171091Y182902
X182902Y182902
X194713Y182902
X194713Y171091
X131721Y147469
X131721Y139595
X123847Y147469
T02
X144398Y147548
X144359Y137509
X144359Y127469
X144359Y117430
X144359Y107391
X144359Y97391
X144359Y87391
X144398Y77391
X144359Y67391
X124674Y67351
X124674Y57509
X114831Y57509
X114831Y67351
X104989Y67351
X104989Y57509
X85304Y67351
X85304Y77391
X85343Y87430
X85304Y97469
X85225Y107509
X85265Y117548
X85265Y127587
X85304Y137587
X85265Y147587
X85304Y157627
X85304Y167587
X85304Y177587
X85304Y187194
X85343Y197076
X85304Y207115
X144359Y207115
X144398Y197706
X144438Y187745
X144359Y177666
X144398Y167666
X144398Y157627
T03
X68060Y170146
X58060Y170186
X48060Y170186
X38060Y170107
X36800Y154083
X38099Y139044
X48099Y139005
X58099Y139005
X68099Y139083
X58296Y124595
X58257Y114438
X48178Y114398
X38375Y114398
X38414Y124517
X48178Y124595
X27666Y124556
X27666Y114438
X56485Y154083
T04
X159044Y204713
X159044Y214556
X198414Y214556
X198414Y204713
X198414Y39359
X198414Y29517
X159044Y29517
X159044Y39359
T05
X113217Y27391
X24635Y191170
X52981Y206918
M30
