G75*
%MOIN*%
%OFA0B0*%
%FSLAX25Y25*%
%IPPOS*%
%LPD*%
%AMOC8*
5,1,8,0,0,1.08239X$1,22.5*
%
%ADD10C,0.00500*%
%ADD11C,0.00200*%
%ADD12C,0.00400*%
%ADD13C,0.00300*%
%ADD14C,0.00100*%
D10*
X0007863Y0023217D02*
X0007863Y0129517D01*
X0078729Y0129517D01*
X0078729Y0023217D01*
X0007863Y0023217D01*
X0035422Y0023217D02*
X0039359Y0023217D01*
X0039359Y0007469D01*
X0047233Y0007469D01*
X0047233Y0023217D01*
X0039359Y0023217D01*
X0035422Y0023217D02*
X0035422Y0038965D01*
X0051170Y0038965D01*
X0051170Y0023217D01*
X0036253Y0031091D02*
X0036255Y0031264D01*
X0036261Y0031437D01*
X0036272Y0031609D01*
X0036287Y0031781D01*
X0036306Y0031953D01*
X0036329Y0032124D01*
X0036357Y0032295D01*
X0036388Y0032465D01*
X0036424Y0032634D01*
X0036464Y0032802D01*
X0036508Y0032969D01*
X0036556Y0033135D01*
X0036608Y0033300D01*
X0036665Y0033464D01*
X0036725Y0033626D01*
X0036789Y0033786D01*
X0036857Y0033945D01*
X0036929Y0034102D01*
X0037005Y0034258D01*
X0037085Y0034411D01*
X0037168Y0034562D01*
X0037255Y0034712D01*
X0037346Y0034859D01*
X0037440Y0035004D01*
X0037538Y0035146D01*
X0037639Y0035287D01*
X0037744Y0035424D01*
X0037852Y0035559D01*
X0037963Y0035691D01*
X0038077Y0035821D01*
X0038195Y0035947D01*
X0038316Y0036071D01*
X0038440Y0036192D01*
X0038566Y0036310D01*
X0038696Y0036424D01*
X0038828Y0036535D01*
X0038963Y0036643D01*
X0039100Y0036748D01*
X0039241Y0036849D01*
X0039383Y0036947D01*
X0039528Y0037041D01*
X0039675Y0037132D01*
X0039825Y0037219D01*
X0039976Y0037302D01*
X0040129Y0037382D01*
X0040285Y0037458D01*
X0040442Y0037530D01*
X0040601Y0037598D01*
X0040761Y0037662D01*
X0040923Y0037722D01*
X0041087Y0037779D01*
X0041252Y0037831D01*
X0041418Y0037879D01*
X0041585Y0037923D01*
X0041753Y0037963D01*
X0041922Y0037999D01*
X0042092Y0038030D01*
X0042263Y0038058D01*
X0042434Y0038081D01*
X0042606Y0038100D01*
X0042778Y0038115D01*
X0042950Y0038126D01*
X0043123Y0038132D01*
X0043296Y0038134D01*
X0043469Y0038132D01*
X0043642Y0038126D01*
X0043814Y0038115D01*
X0043986Y0038100D01*
X0044158Y0038081D01*
X0044329Y0038058D01*
X0044500Y0038030D01*
X0044670Y0037999D01*
X0044839Y0037963D01*
X0045007Y0037923D01*
X0045174Y0037879D01*
X0045340Y0037831D01*
X0045505Y0037779D01*
X0045669Y0037722D01*
X0045831Y0037662D01*
X0045991Y0037598D01*
X0046150Y0037530D01*
X0046307Y0037458D01*
X0046463Y0037382D01*
X0046616Y0037302D01*
X0046767Y0037219D01*
X0046917Y0037132D01*
X0047064Y0037041D01*
X0047209Y0036947D01*
X0047351Y0036849D01*
X0047492Y0036748D01*
X0047629Y0036643D01*
X0047764Y0036535D01*
X0047896Y0036424D01*
X0048026Y0036310D01*
X0048152Y0036192D01*
X0048276Y0036071D01*
X0048397Y0035947D01*
X0048515Y0035821D01*
X0048629Y0035691D01*
X0048740Y0035559D01*
X0048848Y0035424D01*
X0048953Y0035287D01*
X0049054Y0035146D01*
X0049152Y0035004D01*
X0049246Y0034859D01*
X0049337Y0034712D01*
X0049424Y0034562D01*
X0049507Y0034411D01*
X0049587Y0034258D01*
X0049663Y0034102D01*
X0049735Y0033945D01*
X0049803Y0033786D01*
X0049867Y0033626D01*
X0049927Y0033464D01*
X0049984Y0033300D01*
X0050036Y0033135D01*
X0050084Y0032969D01*
X0050128Y0032802D01*
X0050168Y0032634D01*
X0050204Y0032465D01*
X0050235Y0032295D01*
X0050263Y0032124D01*
X0050286Y0031953D01*
X0050305Y0031781D01*
X0050320Y0031609D01*
X0050331Y0031437D01*
X0050337Y0031264D01*
X0050339Y0031091D01*
X0050337Y0030918D01*
X0050331Y0030745D01*
X0050320Y0030573D01*
X0050305Y0030401D01*
X0050286Y0030229D01*
X0050263Y0030058D01*
X0050235Y0029887D01*
X0050204Y0029717D01*
X0050168Y0029548D01*
X0050128Y0029380D01*
X0050084Y0029213D01*
X0050036Y0029047D01*
X0049984Y0028882D01*
X0049927Y0028718D01*
X0049867Y0028556D01*
X0049803Y0028396D01*
X0049735Y0028237D01*
X0049663Y0028080D01*
X0049587Y0027924D01*
X0049507Y0027771D01*
X0049424Y0027620D01*
X0049337Y0027470D01*
X0049246Y0027323D01*
X0049152Y0027178D01*
X0049054Y0027036D01*
X0048953Y0026895D01*
X0048848Y0026758D01*
X0048740Y0026623D01*
X0048629Y0026491D01*
X0048515Y0026361D01*
X0048397Y0026235D01*
X0048276Y0026111D01*
X0048152Y0025990D01*
X0048026Y0025872D01*
X0047896Y0025758D01*
X0047764Y0025647D01*
X0047629Y0025539D01*
X0047492Y0025434D01*
X0047351Y0025333D01*
X0047209Y0025235D01*
X0047064Y0025141D01*
X0046917Y0025050D01*
X0046767Y0024963D01*
X0046616Y0024880D01*
X0046463Y0024800D01*
X0046307Y0024724D01*
X0046150Y0024652D01*
X0045991Y0024584D01*
X0045831Y0024520D01*
X0045669Y0024460D01*
X0045505Y0024403D01*
X0045340Y0024351D01*
X0045174Y0024303D01*
X0045007Y0024259D01*
X0044839Y0024219D01*
X0044670Y0024183D01*
X0044500Y0024152D01*
X0044329Y0024124D01*
X0044158Y0024101D01*
X0043986Y0024082D01*
X0043814Y0024067D01*
X0043642Y0024056D01*
X0043469Y0024050D01*
X0043296Y0024048D01*
X0043123Y0024050D01*
X0042950Y0024056D01*
X0042778Y0024067D01*
X0042606Y0024082D01*
X0042434Y0024101D01*
X0042263Y0024124D01*
X0042092Y0024152D01*
X0041922Y0024183D01*
X0041753Y0024219D01*
X0041585Y0024259D01*
X0041418Y0024303D01*
X0041252Y0024351D01*
X0041087Y0024403D01*
X0040923Y0024460D01*
X0040761Y0024520D01*
X0040601Y0024584D01*
X0040442Y0024652D01*
X0040285Y0024724D01*
X0040129Y0024800D01*
X0039976Y0024880D01*
X0039825Y0024963D01*
X0039675Y0025050D01*
X0039528Y0025141D01*
X0039383Y0025235D01*
X0039241Y0025333D01*
X0039100Y0025434D01*
X0038963Y0025539D01*
X0038828Y0025647D01*
X0038696Y0025758D01*
X0038566Y0025872D01*
X0038440Y0025990D01*
X0038316Y0026111D01*
X0038195Y0026235D01*
X0038077Y0026361D01*
X0037963Y0026491D01*
X0037852Y0026623D01*
X0037744Y0026758D01*
X0037639Y0026895D01*
X0037538Y0027036D01*
X0037440Y0027178D01*
X0037346Y0027323D01*
X0037255Y0027470D01*
X0037168Y0027620D01*
X0037085Y0027771D01*
X0037005Y0027924D01*
X0036929Y0028080D01*
X0036857Y0028237D01*
X0036789Y0028396D01*
X0036725Y0028556D01*
X0036665Y0028718D01*
X0036608Y0028882D01*
X0036556Y0029047D01*
X0036508Y0029213D01*
X0036464Y0029380D01*
X0036424Y0029548D01*
X0036388Y0029717D01*
X0036357Y0029887D01*
X0036329Y0030058D01*
X0036306Y0030229D01*
X0036287Y0030401D01*
X0036272Y0030573D01*
X0036261Y0030745D01*
X0036255Y0030918D01*
X0036253Y0031091D01*
X0081367Y0051603D02*
X0081367Y0220894D01*
X0148296Y0220894D01*
X0148296Y0051603D01*
X0081367Y0051603D01*
X0151170Y0023611D02*
X0151170Y0220461D01*
X0206288Y0220461D01*
X0206288Y0023611D01*
X0151170Y0023611D01*
X0205855Y0028729D02*
X0210855Y0028729D01*
X0210855Y0038729D01*
X0215855Y0038729D01*
X0215855Y0213729D01*
X0210855Y0213729D01*
X0210855Y0038729D01*
X0121899Y0173148D02*
X0118847Y0173148D01*
X0118847Y0171113D02*
X0118847Y0177219D01*
X0121899Y0177219D01*
X0122917Y0176201D01*
X0122917Y0174166D01*
X0121899Y0173148D01*
X0116840Y0174166D02*
X0115822Y0173148D01*
X0113787Y0173148D01*
X0112770Y0174166D01*
X0112770Y0175183D01*
X0113787Y0176201D01*
X0115822Y0176201D01*
X0116840Y0175183D01*
X0116840Y0174166D01*
X0115822Y0176201D02*
X0116840Y0177219D01*
X0116840Y0178236D01*
X0115822Y0179254D01*
X0113787Y0179254D01*
X0112770Y0178236D01*
X0112770Y0177219D01*
X0113787Y0176201D01*
X0110763Y0177219D02*
X0110763Y0178236D01*
X0109745Y0179254D01*
X0107710Y0179254D01*
X0106692Y0178236D01*
X0104685Y0178236D02*
X0104685Y0177219D01*
X0103668Y0176201D01*
X0104685Y0175183D01*
X0104685Y0174166D01*
X0103668Y0173148D01*
X0101633Y0173148D01*
X0100615Y0174166D01*
X0102650Y0176201D02*
X0103668Y0176201D01*
X0104685Y0178236D02*
X0103668Y0179254D01*
X0101633Y0179254D01*
X0100615Y0178236D01*
X0100615Y0183048D02*
X0100615Y0187119D01*
X0101633Y0187119D01*
X0102650Y0186101D01*
X0103668Y0187119D01*
X0104685Y0186101D01*
X0104685Y0183048D01*
X0102650Y0183048D02*
X0102650Y0186101D01*
X0106692Y0186101D02*
X0106692Y0184066D01*
X0107710Y0183048D01*
X0109745Y0183048D01*
X0110763Y0185083D02*
X0106692Y0185083D01*
X0106692Y0186101D02*
X0107710Y0187119D01*
X0109745Y0187119D01*
X0110763Y0186101D01*
X0110763Y0185083D01*
X0112770Y0184066D02*
X0113787Y0183048D01*
X0116840Y0183048D01*
X0116840Y0182031D02*
X0115822Y0181013D01*
X0114805Y0181013D01*
X0116840Y0182031D02*
X0116840Y0187119D01*
X0113787Y0187119D01*
X0112770Y0186101D01*
X0112770Y0184066D01*
X0118847Y0184066D02*
X0119864Y0185083D01*
X0122917Y0185083D01*
X0122917Y0186101D02*
X0122917Y0183048D01*
X0119864Y0183048D01*
X0118847Y0184066D01*
X0121899Y0187119D02*
X0122917Y0186101D01*
X0121899Y0187119D02*
X0119864Y0187119D01*
X0110763Y0177219D02*
X0106692Y0173148D01*
X0110763Y0173148D01*
X0104989Y0207115D02*
X0104989Y0214989D01*
X0108926Y0214989D01*
X0108926Y0222863D01*
X0120737Y0222863D01*
X0120737Y0214989D01*
X0124674Y0214989D01*
X0124674Y0207115D01*
X0104989Y0207115D01*
X0104989Y0214989D02*
X0104989Y0220894D01*
X0104989Y0222863D01*
X0108926Y0222863D01*
X0104989Y0220894D02*
X0124674Y0220894D01*
X0124674Y0222863D01*
X0120737Y0222863D01*
X0124674Y0220894D02*
X0124674Y0214989D01*
X0120737Y0214989D02*
X0108926Y0214989D01*
X0073965Y0176446D02*
X0032627Y0176446D01*
X0032627Y0161091D01*
X0073965Y0161091D01*
X0073965Y0161485D01*
X0073965Y0176446D01*
X0060422Y0158020D02*
X0060422Y0150146D01*
X0032863Y0150146D01*
X0032863Y0158020D01*
X0060422Y0158020D01*
X0073532Y0148099D02*
X0032194Y0148099D01*
X0032194Y0147706D01*
X0032194Y0132745D01*
X0073532Y0132745D01*
X0073532Y0148099D01*
X0205855Y0218729D02*
X0210855Y0218729D01*
X0210855Y0213729D01*
D11*
X0050331Y0152884D02*
X0050331Y0151783D01*
X0050331Y0152884D02*
X0049964Y0153251D01*
X0049230Y0153251D01*
X0048863Y0152884D01*
X0048121Y0153251D02*
X0047020Y0153251D01*
X0046653Y0152884D01*
X0046653Y0152150D01*
X0047020Y0151783D01*
X0048121Y0151783D01*
X0048863Y0151783D02*
X0048863Y0153985D01*
X0045914Y0153251D02*
X0045180Y0153251D01*
X0045547Y0153618D02*
X0045547Y0152150D01*
X0045914Y0151783D01*
X0044441Y0151783D02*
X0043707Y0151783D01*
X0044074Y0151783D02*
X0044074Y0153251D01*
X0043707Y0153251D01*
X0042965Y0153251D02*
X0042965Y0152150D01*
X0042598Y0151783D01*
X0042231Y0152150D01*
X0041864Y0151783D01*
X0041497Y0152150D01*
X0041497Y0153251D01*
X0040755Y0153251D02*
X0039654Y0153251D01*
X0039287Y0152884D01*
X0039654Y0152517D01*
X0040388Y0152517D01*
X0040755Y0152150D01*
X0040388Y0151783D01*
X0039287Y0151783D01*
X0044074Y0153985D02*
X0044074Y0154352D01*
D12*
X0082703Y0140384D02*
X0084237Y0140384D01*
X0085005Y0139617D01*
X0085005Y0137315D01*
X0082703Y0137315D01*
X0081935Y0138082D01*
X0082703Y0138850D01*
X0085005Y0138850D01*
X0086539Y0139617D02*
X0089609Y0139617D01*
X0088841Y0137315D02*
X0088841Y0141919D01*
X0086539Y0139617D01*
X0091119Y0147315D02*
X0090351Y0148082D01*
X0091119Y0148850D01*
X0093420Y0148850D01*
X0093420Y0149617D02*
X0093420Y0147315D01*
X0091119Y0147315D01*
X0091119Y0150384D02*
X0092653Y0150384D01*
X0093420Y0149617D01*
X0094955Y0151152D02*
X0095722Y0151919D01*
X0097257Y0151919D01*
X0098024Y0151152D01*
X0098024Y0150384D01*
X0097257Y0149617D01*
X0098024Y0148850D01*
X0098024Y0148082D01*
X0097257Y0147315D01*
X0095722Y0147315D01*
X0094955Y0148082D01*
X0096490Y0149617D02*
X0097257Y0149617D01*
X0098024Y0157315D02*
X0094955Y0157315D01*
X0098024Y0160384D01*
X0098024Y0161152D01*
X0097257Y0161919D01*
X0095722Y0161919D01*
X0094955Y0161152D01*
X0093420Y0159617D02*
X0093420Y0157315D01*
X0091119Y0157315D01*
X0090351Y0158082D01*
X0091119Y0158850D01*
X0093420Y0158850D01*
X0093420Y0159617D02*
X0092653Y0160384D01*
X0091119Y0160384D01*
X0091119Y0167315D02*
X0090351Y0168082D01*
X0091119Y0168850D01*
X0093420Y0168850D01*
X0093420Y0169617D02*
X0093420Y0167315D01*
X0091119Y0167315D01*
X0091119Y0170384D02*
X0092653Y0170384D01*
X0093420Y0169617D01*
X0094955Y0170384D02*
X0096490Y0171919D01*
X0096490Y0167315D01*
X0098024Y0167315D02*
X0094955Y0167315D01*
X0095722Y0177315D02*
X0094955Y0178082D01*
X0098024Y0181152D01*
X0098024Y0178082D01*
X0097257Y0177315D01*
X0095722Y0177315D01*
X0094955Y0178082D02*
X0094955Y0181152D01*
X0095722Y0181919D01*
X0097257Y0181919D01*
X0098024Y0181152D01*
X0093420Y0179617D02*
X0093420Y0177315D01*
X0091119Y0177315D01*
X0090351Y0178082D01*
X0091119Y0178850D01*
X0093420Y0178850D01*
X0093420Y0179617D02*
X0092653Y0180384D01*
X0091119Y0180384D01*
X0092653Y0187315D02*
X0091886Y0188082D01*
X0091886Y0189617D01*
X0092653Y0190384D01*
X0094188Y0190384D01*
X0094955Y0189617D01*
X0094955Y0188850D01*
X0091886Y0188850D01*
X0092653Y0187315D02*
X0094188Y0187315D01*
X0097257Y0187315D02*
X0097257Y0191152D01*
X0098024Y0191919D01*
X0098024Y0189617D02*
X0096490Y0189617D01*
X0090351Y0190384D02*
X0089584Y0190384D01*
X0088049Y0188850D01*
X0088049Y0190384D02*
X0088049Y0187315D01*
X0088049Y0197315D02*
X0086515Y0197315D01*
X0085747Y0198082D01*
X0087282Y0199617D02*
X0088049Y0199617D01*
X0088817Y0198850D01*
X0088817Y0198082D01*
X0088049Y0197315D01*
X0088049Y0199617D02*
X0088817Y0200384D01*
X0088817Y0201152D01*
X0088049Y0201919D01*
X0086515Y0201919D01*
X0085747Y0201152D01*
X0090351Y0200384D02*
X0091886Y0197315D01*
X0093420Y0200384D01*
X0094955Y0201152D02*
X0095722Y0201919D01*
X0097257Y0201919D01*
X0098024Y0201152D01*
X0098024Y0200384D01*
X0097257Y0199617D01*
X0098024Y0198850D01*
X0098024Y0198082D01*
X0097257Y0197315D01*
X0095722Y0197315D01*
X0094955Y0198082D01*
X0096490Y0199617D02*
X0097257Y0199617D01*
X0098222Y0207315D02*
X0097455Y0208082D01*
X0098222Y0207315D02*
X0099757Y0207315D01*
X0100524Y0208082D01*
X0100524Y0208850D01*
X0099757Y0209617D01*
X0098990Y0209617D01*
X0099757Y0209617D02*
X0100524Y0210384D01*
X0100524Y0211152D01*
X0099757Y0211919D01*
X0098222Y0211919D01*
X0097455Y0211152D01*
X0094386Y0211919D02*
X0094386Y0207315D01*
X0095920Y0207315D02*
X0092851Y0207315D01*
X0091317Y0207315D02*
X0089015Y0207315D01*
X0088247Y0208082D01*
X0088247Y0209617D01*
X0089015Y0210384D01*
X0091317Y0210384D01*
X0092851Y0210384D02*
X0094386Y0211919D01*
X0091317Y0211919D02*
X0091317Y0207315D01*
X0125747Y0208082D02*
X0126515Y0207315D01*
X0128817Y0207315D01*
X0128817Y0211919D01*
X0128817Y0210384D02*
X0126515Y0210384D01*
X0125747Y0209617D01*
X0125747Y0208082D01*
X0130351Y0207315D02*
X0133420Y0207315D01*
X0131886Y0207315D02*
X0131886Y0211919D01*
X0130351Y0210384D01*
X0134955Y0211152D02*
X0135722Y0211919D01*
X0137257Y0211919D01*
X0138024Y0211152D01*
X0138024Y0210384D01*
X0134955Y0207315D01*
X0138024Y0207315D01*
X0136490Y0201919D02*
X0136490Y0197315D01*
X0138024Y0197315D02*
X0134955Y0197315D01*
X0133420Y0197315D02*
X0130351Y0197315D01*
X0128817Y0197315D02*
X0126515Y0197315D01*
X0125747Y0198082D01*
X0125747Y0199617D01*
X0126515Y0200384D01*
X0128817Y0200384D01*
X0130351Y0200384D02*
X0131886Y0201919D01*
X0131886Y0197315D01*
X0128817Y0197315D02*
X0128817Y0201919D01*
X0134955Y0200384D02*
X0136490Y0201919D01*
X0135722Y0191919D02*
X0137257Y0191919D01*
X0138024Y0191152D01*
X0134955Y0188082D01*
X0135722Y0187315D01*
X0137257Y0187315D01*
X0138024Y0188082D01*
X0138024Y0191152D01*
X0135722Y0191919D02*
X0134955Y0191152D01*
X0134955Y0188082D01*
X0133420Y0187315D02*
X0130351Y0187315D01*
X0128817Y0187315D02*
X0126515Y0187315D01*
X0125747Y0188082D01*
X0125747Y0189617D01*
X0126515Y0190384D01*
X0128817Y0190384D01*
X0130351Y0190384D02*
X0131886Y0191919D01*
X0131886Y0187315D01*
X0128817Y0187315D02*
X0128817Y0191919D01*
X0133420Y0181919D02*
X0133420Y0177315D01*
X0131119Y0177315D01*
X0130351Y0178082D01*
X0130351Y0179617D01*
X0131119Y0180384D01*
X0133420Y0180384D01*
X0134955Y0180384D02*
X0135722Y0179617D01*
X0138024Y0179617D01*
X0138024Y0178082D02*
X0138024Y0181152D01*
X0137257Y0181919D01*
X0135722Y0181919D01*
X0134955Y0181152D01*
X0134955Y0180384D01*
X0134955Y0178082D02*
X0135722Y0177315D01*
X0137257Y0177315D01*
X0138024Y0178082D01*
X0137257Y0171919D02*
X0135722Y0171919D01*
X0134955Y0171152D01*
X0134955Y0170384D01*
X0135722Y0169617D01*
X0137257Y0169617D01*
X0138024Y0168850D01*
X0138024Y0168082D01*
X0137257Y0167315D01*
X0135722Y0167315D01*
X0134955Y0168082D01*
X0134955Y0168850D01*
X0135722Y0169617D01*
X0137257Y0169617D02*
X0138024Y0170384D01*
X0138024Y0171152D01*
X0137257Y0171919D01*
X0133420Y0171919D02*
X0133420Y0167315D01*
X0131119Y0167315D01*
X0130351Y0168082D01*
X0130351Y0169617D01*
X0131119Y0170384D01*
X0133420Y0170384D01*
X0133420Y0161919D02*
X0133420Y0157315D01*
X0131119Y0157315D01*
X0130351Y0158082D01*
X0130351Y0159617D01*
X0131119Y0160384D01*
X0133420Y0160384D01*
X0134955Y0161919D02*
X0138024Y0161919D01*
X0138024Y0161152D01*
X0134955Y0158082D01*
X0134955Y0157315D01*
X0133420Y0151919D02*
X0133420Y0147315D01*
X0131119Y0147315D01*
X0130351Y0148082D01*
X0130351Y0149617D01*
X0131119Y0150384D01*
X0133420Y0150384D01*
X0134955Y0149617D02*
X0134955Y0148082D01*
X0135722Y0147315D01*
X0137257Y0147315D01*
X0138024Y0148082D01*
X0138024Y0148850D01*
X0137257Y0149617D01*
X0134955Y0149617D01*
X0136490Y0151152D01*
X0138024Y0151919D01*
X0138024Y0141919D02*
X0134955Y0141919D01*
X0134955Y0139617D01*
X0136490Y0140384D01*
X0137257Y0140384D01*
X0138024Y0139617D01*
X0138024Y0138082D01*
X0137257Y0137315D01*
X0135722Y0137315D01*
X0134955Y0138082D01*
X0133420Y0137315D02*
X0131119Y0137315D01*
X0130351Y0138082D01*
X0130351Y0139617D01*
X0131119Y0140384D01*
X0133420Y0140384D01*
X0133420Y0141919D02*
X0133420Y0137315D01*
X0133420Y0131919D02*
X0133420Y0127315D01*
X0131119Y0127315D01*
X0130351Y0128082D01*
X0130351Y0129617D01*
X0131119Y0130384D01*
X0133420Y0130384D01*
X0134955Y0129617D02*
X0138024Y0129617D01*
X0137257Y0127315D02*
X0137257Y0131919D01*
X0134955Y0129617D01*
X0135722Y0121919D02*
X0137257Y0121919D01*
X0138024Y0121152D01*
X0138024Y0120384D01*
X0137257Y0119617D01*
X0138024Y0118850D01*
X0138024Y0118082D01*
X0137257Y0117315D01*
X0135722Y0117315D01*
X0134955Y0118082D01*
X0133420Y0117315D02*
X0131119Y0117315D01*
X0130351Y0118082D01*
X0130351Y0119617D01*
X0131119Y0120384D01*
X0133420Y0120384D01*
X0133420Y0121919D02*
X0133420Y0117315D01*
X0136490Y0119617D02*
X0137257Y0119617D01*
X0134955Y0121152D02*
X0135722Y0121919D01*
X0135722Y0111919D02*
X0134955Y0111152D01*
X0135722Y0111919D02*
X0137257Y0111919D01*
X0138024Y0111152D01*
X0138024Y0110384D01*
X0134955Y0107315D01*
X0138024Y0107315D01*
X0133420Y0107315D02*
X0133420Y0111919D01*
X0133420Y0110384D02*
X0131119Y0110384D01*
X0130351Y0109617D01*
X0130351Y0108082D01*
X0131119Y0107315D01*
X0133420Y0107315D01*
X0132653Y0100384D02*
X0130351Y0100384D01*
X0130351Y0097315D01*
X0128817Y0097315D02*
X0126515Y0097315D01*
X0125747Y0098082D01*
X0125747Y0099617D01*
X0126515Y0100384D01*
X0128817Y0100384D01*
X0128817Y0096548D01*
X0128049Y0095780D01*
X0127282Y0095780D01*
X0126509Y0091211D02*
X0124974Y0091211D01*
X0124207Y0090444D01*
X0124207Y0088909D01*
X0124974Y0088142D01*
X0126509Y0088142D01*
X0127276Y0088909D01*
X0127276Y0090444D01*
X0126509Y0091211D01*
X0128049Y0090384D02*
X0128049Y0087315D01*
X0128049Y0088850D02*
X0129584Y0090384D01*
X0130351Y0090384D01*
X0131886Y0089617D02*
X0132653Y0090384D01*
X0134955Y0090384D01*
X0136490Y0090384D02*
X0138024Y0090384D01*
X0137257Y0091152D02*
X0137257Y0088082D01*
X0138024Y0087315D01*
X0134955Y0088082D02*
X0134188Y0088850D01*
X0132653Y0088850D01*
X0131886Y0089617D01*
X0131886Y0087315D02*
X0134188Y0087315D01*
X0134955Y0088082D01*
X0134955Y0080384D02*
X0138024Y0077315D01*
X0134955Y0077315D02*
X0138024Y0080384D01*
X0133420Y0080384D02*
X0132653Y0080384D01*
X0131119Y0078850D01*
X0131119Y0080384D02*
X0131119Y0077315D01*
X0132653Y0071152D02*
X0132653Y0068082D01*
X0133420Y0067315D01*
X0134955Y0067315D02*
X0138024Y0070384D01*
X0134955Y0070384D02*
X0138024Y0067315D01*
X0133420Y0070384D02*
X0131886Y0070384D01*
X0115767Y0081409D02*
X0115767Y0082944D01*
X0114999Y0083711D01*
X0113465Y0083711D01*
X0112697Y0082944D01*
X0112697Y0081409D01*
X0113465Y0080642D01*
X0114999Y0080642D01*
X0115767Y0081409D01*
X0111163Y0080642D02*
X0111163Y0082944D01*
X0110395Y0083711D01*
X0108093Y0083711D01*
X0108093Y0080642D01*
X0106559Y0080642D02*
X0106559Y0082944D01*
X0105791Y0083711D01*
X0104257Y0083711D01*
X0104257Y0082176D02*
X0106559Y0082176D01*
X0106559Y0080642D02*
X0104257Y0080642D01*
X0103489Y0081409D01*
X0104257Y0082176D01*
X0101955Y0082944D02*
X0101955Y0080642D01*
X0100524Y0080384D02*
X0098222Y0080384D01*
X0097455Y0079617D01*
X0097455Y0078082D01*
X0098222Y0077315D01*
X0100524Y0077315D01*
X0100524Y0081919D01*
X0101955Y0082944D02*
X0101187Y0083711D01*
X0098885Y0083711D01*
X0098885Y0080642D01*
X0095920Y0079617D02*
X0095920Y0077315D01*
X0095920Y0079617D02*
X0095153Y0080384D01*
X0092851Y0080384D01*
X0092851Y0077315D01*
X0091317Y0077315D02*
X0089015Y0077315D01*
X0088247Y0078082D01*
X0088247Y0079617D01*
X0089015Y0080384D01*
X0091317Y0080384D01*
X0091317Y0076548D01*
X0090549Y0075780D01*
X0089782Y0075780D01*
X0092653Y0072686D02*
X0092653Y0071919D01*
X0092653Y0070384D02*
X0092653Y0067315D01*
X0091886Y0067315D02*
X0093420Y0067315D01*
X0094955Y0067315D02*
X0094955Y0070384D01*
X0097257Y0070384D01*
X0098024Y0069617D01*
X0098024Y0067315D01*
X0092653Y0070384D02*
X0091886Y0070384D01*
X0090351Y0070384D02*
X0088817Y0067315D01*
X0087282Y0070384D01*
X0088049Y0087315D02*
X0088049Y0090384D01*
X0088049Y0088850D02*
X0089584Y0090384D01*
X0090351Y0090384D01*
X0091886Y0089617D02*
X0092653Y0088850D01*
X0094188Y0088850D01*
X0094955Y0088082D01*
X0094188Y0087315D01*
X0091886Y0087315D01*
X0091886Y0089617D02*
X0092653Y0090384D01*
X0094955Y0090384D01*
X0096490Y0090384D02*
X0098024Y0090384D01*
X0097257Y0091152D02*
X0097257Y0088082D01*
X0098024Y0087315D01*
X0098885Y0088909D02*
X0099653Y0089676D01*
X0101955Y0089676D01*
X0101955Y0090444D02*
X0101955Y0088142D01*
X0099653Y0088142D01*
X0098885Y0088909D01*
X0101187Y0091211D02*
X0101955Y0090444D01*
X0101187Y0091211D02*
X0099653Y0091211D01*
X0103489Y0091211D02*
X0103489Y0088142D01*
X0103489Y0089676D02*
X0105024Y0091211D01*
X0105791Y0091211D01*
X0107326Y0090444D02*
X0108093Y0091211D01*
X0110395Y0091211D01*
X0110395Y0092746D02*
X0110395Y0088142D01*
X0108093Y0088142D01*
X0107326Y0088909D01*
X0107326Y0090444D01*
X0111930Y0091211D02*
X0111930Y0088909D01*
X0112697Y0088142D01*
X0114999Y0088142D01*
X0114999Y0091211D01*
X0116534Y0091211D02*
X0117301Y0091211D01*
X0117301Y0088142D01*
X0116534Y0088142D02*
X0118068Y0088142D01*
X0119603Y0088142D02*
X0119603Y0091211D01*
X0121905Y0091211D01*
X0122672Y0090444D01*
X0122672Y0088142D01*
X0117301Y0092746D02*
X0117301Y0093513D01*
X0133420Y0097315D02*
X0133420Y0099617D01*
X0132653Y0100384D01*
X0134955Y0099617D02*
X0135722Y0100384D01*
X0138024Y0100384D01*
X0138024Y0101919D02*
X0138024Y0097315D01*
X0135722Y0097315D01*
X0134955Y0098082D01*
X0134955Y0099617D01*
X0108024Y0127315D02*
X0106490Y0127315D01*
X0107257Y0127315D02*
X0107257Y0131919D01*
X0106490Y0131919D01*
X0104955Y0130384D02*
X0102653Y0130384D01*
X0101886Y0129617D01*
X0101886Y0128082D01*
X0102653Y0127315D01*
X0104955Y0127315D01*
X0100351Y0128082D02*
X0099584Y0127315D01*
X0097282Y0127315D01*
X0098049Y0128850D02*
X0097282Y0129617D01*
X0098049Y0130384D01*
X0100351Y0130384D01*
X0099584Y0128850D02*
X0098049Y0128850D01*
X0099584Y0128850D02*
X0100351Y0128082D01*
X0098024Y0121919D02*
X0096490Y0121152D01*
X0094955Y0119617D01*
X0097257Y0119617D01*
X0098024Y0118850D01*
X0098024Y0118082D01*
X0097257Y0117315D01*
X0095722Y0117315D01*
X0094955Y0118082D01*
X0094955Y0119617D01*
X0093420Y0119617D02*
X0093420Y0117315D01*
X0091119Y0117315D01*
X0090351Y0118082D01*
X0091119Y0118850D01*
X0093420Y0118850D01*
X0093420Y0119617D02*
X0092653Y0120384D01*
X0091119Y0120384D01*
X0090376Y0127315D02*
X0088841Y0127315D01*
X0088074Y0128082D01*
X0088074Y0129617D02*
X0089609Y0130384D01*
X0090376Y0130384D01*
X0091143Y0129617D01*
X0091143Y0128082D01*
X0090376Y0127315D01*
X0088074Y0129617D02*
X0088074Y0131919D01*
X0091143Y0131919D01*
X0086539Y0129617D02*
X0086539Y0127315D01*
X0084237Y0127315D01*
X0083470Y0128082D01*
X0084237Y0128850D01*
X0086539Y0128850D01*
X0086539Y0129617D02*
X0085772Y0130384D01*
X0084237Y0130384D01*
X0095747Y0137315D02*
X0098049Y0137315D01*
X0098816Y0138082D01*
X0098049Y0138850D01*
X0096515Y0138850D01*
X0095747Y0139617D01*
X0096515Y0140384D01*
X0098816Y0140384D01*
X0100351Y0139617D02*
X0101118Y0140384D01*
X0103420Y0140384D01*
X0103420Y0141919D02*
X0103420Y0137315D01*
X0101118Y0137315D01*
X0100351Y0138082D01*
X0100351Y0139617D01*
X0104955Y0138082D02*
X0105722Y0138850D01*
X0108024Y0138850D01*
X0108024Y0139617D02*
X0108024Y0137315D01*
X0105722Y0137315D01*
X0104955Y0138082D01*
X0105722Y0140384D02*
X0107257Y0140384D01*
X0108024Y0139617D01*
X0098024Y0111919D02*
X0094955Y0111919D01*
X0092653Y0110384D02*
X0093420Y0109617D01*
X0093420Y0107315D01*
X0091119Y0107315D01*
X0090351Y0108082D01*
X0091119Y0108850D01*
X0093420Y0108850D01*
X0092653Y0110384D02*
X0091119Y0110384D01*
X0094955Y0108082D02*
X0094955Y0107315D01*
X0094955Y0108082D02*
X0098024Y0111152D01*
X0098024Y0111919D01*
X0093420Y0101919D02*
X0090351Y0101919D01*
X0090351Y0099617D01*
X0091886Y0100384D01*
X0092653Y0100384D01*
X0093420Y0099617D01*
X0093420Y0098082D01*
X0092653Y0097315D01*
X0091119Y0097315D01*
X0090351Y0098082D01*
X0094955Y0100384D02*
X0096490Y0097315D01*
X0098024Y0100384D01*
D13*
X0066211Y0115495D02*
X0066211Y0115979D01*
X0065727Y0116463D01*
X0063309Y0116463D01*
X0063309Y0115012D01*
X0063792Y0114528D01*
X0064760Y0114528D01*
X0065244Y0115012D01*
X0065244Y0116463D01*
X0065244Y0117474D02*
X0063309Y0117474D01*
X0063309Y0118926D01*
X0063792Y0119409D01*
X0065244Y0119409D01*
X0064760Y0120421D02*
X0065244Y0120905D01*
X0065244Y0122356D01*
X0062341Y0122356D01*
X0063309Y0122356D02*
X0063309Y0120905D01*
X0063792Y0120421D01*
X0064760Y0120421D01*
X0054614Y0120511D02*
X0054130Y0120027D01*
X0053163Y0120027D01*
X0052679Y0120511D01*
X0052679Y0121478D01*
X0053163Y0121962D01*
X0053646Y0121962D01*
X0053646Y0120027D01*
X0054614Y0120511D02*
X0054614Y0121478D01*
X0054614Y0119016D02*
X0054614Y0117564D01*
X0054130Y0117081D01*
X0053163Y0117081D01*
X0052679Y0117564D01*
X0052679Y0119016D01*
X0044378Y0119507D02*
X0044378Y0118055D01*
X0043894Y0117572D01*
X0042926Y0117572D01*
X0042443Y0118055D01*
X0042443Y0119507D01*
X0043410Y0120518D02*
X0042443Y0121969D01*
X0043410Y0120518D02*
X0044378Y0121969D01*
X0044378Y0120518D02*
X0041475Y0120518D01*
X0042443Y0116560D02*
X0042443Y0115109D01*
X0042926Y0114625D01*
X0043410Y0115109D01*
X0043410Y0116076D01*
X0043894Y0116560D01*
X0044378Y0116076D01*
X0044378Y0114625D01*
X0040441Y0108985D02*
X0040441Y0108017D01*
X0040441Y0108501D02*
X0038506Y0108501D01*
X0038506Y0108017D01*
X0038506Y0107006D02*
X0038506Y0105554D01*
X0038989Y0105071D01*
X0039473Y0105554D01*
X0039473Y0106522D01*
X0039957Y0107006D01*
X0040441Y0106522D01*
X0040441Y0105071D01*
X0039957Y0104059D02*
X0038989Y0104059D01*
X0038506Y0103575D01*
X0038506Y0102608D01*
X0038989Y0102124D01*
X0039957Y0102124D01*
X0040441Y0102608D01*
X0040441Y0103575D01*
X0039957Y0104059D01*
X0040441Y0101113D02*
X0038989Y0101113D01*
X0038506Y0100629D01*
X0038989Y0100145D01*
X0040441Y0100145D01*
X0040441Y0099178D02*
X0038506Y0099178D01*
X0038506Y0099661D01*
X0038989Y0100145D01*
X0037538Y0108501D02*
X0037054Y0108501D01*
X0034141Y0112170D02*
X0032206Y0112170D01*
X0032206Y0112653D01*
X0032690Y0113137D01*
X0032206Y0113621D01*
X0032690Y0114105D01*
X0034141Y0114105D01*
X0034141Y0113137D02*
X0032690Y0113137D01*
X0032206Y0115116D02*
X0032206Y0115600D01*
X0034141Y0115600D01*
X0034141Y0115116D02*
X0034141Y0116084D01*
X0034141Y0117081D02*
X0034141Y0118532D01*
X0033658Y0119016D01*
X0033174Y0118532D01*
X0033174Y0117564D01*
X0032690Y0117081D01*
X0032206Y0117564D01*
X0032206Y0119016D01*
X0032690Y0120027D02*
X0033658Y0120027D01*
X0034141Y0120511D01*
X0034141Y0121478D01*
X0033658Y0121962D01*
X0032690Y0121962D01*
X0032206Y0121478D01*
X0032206Y0120511D01*
X0032690Y0120027D01*
X0031239Y0115600D02*
X0030755Y0115600D01*
X0030384Y0108970D02*
X0027482Y0108970D01*
X0027482Y0107519D01*
X0027966Y0107035D01*
X0028933Y0107035D01*
X0029417Y0107519D01*
X0029417Y0108970D01*
X0027482Y0106031D02*
X0027482Y0105547D01*
X0028449Y0104580D01*
X0027482Y0104580D02*
X0029417Y0104580D01*
X0029417Y0103583D02*
X0029417Y0102615D01*
X0029417Y0103099D02*
X0027482Y0103099D01*
X0027482Y0102615D01*
X0026514Y0103099D02*
X0026031Y0103099D01*
X0048348Y0102683D02*
X0048348Y0101232D01*
X0048832Y0100748D01*
X0049799Y0100748D01*
X0050283Y0101232D01*
X0050283Y0102683D01*
X0050283Y0103695D02*
X0050283Y0105146D01*
X0049799Y0105630D01*
X0049316Y0105146D01*
X0049316Y0104178D01*
X0048832Y0103695D01*
X0048348Y0104178D01*
X0048348Y0105630D01*
X0048348Y0106641D02*
X0048348Y0108093D01*
X0048832Y0108576D01*
X0050283Y0108576D01*
X0050283Y0106641D02*
X0048348Y0106641D01*
X0058191Y0107125D02*
X0058674Y0106641D01*
X0059642Y0106641D01*
X0060126Y0107125D01*
X0060126Y0108576D01*
X0058191Y0108576D02*
X0058191Y0107125D01*
X0058191Y0105630D02*
X0058191Y0104178D01*
X0058674Y0103695D01*
X0059642Y0103695D01*
X0060126Y0104178D01*
X0060126Y0105630D01*
X0058191Y0102683D02*
X0060126Y0101716D01*
X0058191Y0100748D01*
X0066948Y0063745D02*
X0066948Y0061277D01*
X0065714Y0062511D02*
X0068182Y0062511D01*
X0068800Y0060062D02*
X0068800Y0057593D01*
X0068800Y0058828D02*
X0065096Y0058828D01*
X0066331Y0057593D01*
X0065714Y0056379D02*
X0068182Y0053910D01*
X0068800Y0054527D01*
X0068800Y0055762D01*
X0068182Y0056379D01*
X0065714Y0056379D01*
X0065096Y0055762D01*
X0065096Y0054527D01*
X0065714Y0053910D01*
X0068182Y0053910D01*
X0068800Y0052689D02*
X0068800Y0051455D01*
X0068800Y0052072D02*
X0065096Y0052072D01*
X0065096Y0051455D01*
X0065714Y0050241D02*
X0066331Y0050241D01*
X0066948Y0049623D01*
X0067565Y0050241D01*
X0068182Y0050241D01*
X0068800Y0049623D01*
X0068800Y0048389D01*
X0068182Y0047772D01*
X0068800Y0046557D02*
X0068800Y0044089D01*
X0066331Y0046557D01*
X0065714Y0046557D01*
X0065096Y0045940D01*
X0065096Y0044706D01*
X0065714Y0044089D01*
X0065096Y0042868D02*
X0065714Y0042250D01*
X0068800Y0042250D01*
X0066948Y0041633D02*
X0066948Y0042868D01*
X0066331Y0040415D02*
X0066331Y0039798D01*
X0067565Y0038564D01*
X0066331Y0038564D02*
X0068800Y0038564D01*
X0068800Y0037350D02*
X0066948Y0037350D01*
X0066331Y0036732D01*
X0066331Y0034881D01*
X0068800Y0034881D01*
X0072331Y0034881D02*
X0072331Y0036732D01*
X0072948Y0037350D01*
X0074800Y0037350D01*
X0074182Y0038564D02*
X0074800Y0039181D01*
X0074800Y0040415D01*
X0074182Y0041033D01*
X0072948Y0041033D01*
X0072331Y0040415D01*
X0072331Y0039181D01*
X0072948Y0038564D01*
X0074182Y0038564D01*
X0074800Y0034881D02*
X0072331Y0034881D01*
X0072331Y0042247D02*
X0074800Y0043481D01*
X0072331Y0044716D01*
X0072331Y0046547D02*
X0072331Y0047782D01*
X0072948Y0048399D01*
X0074800Y0048399D01*
X0074800Y0046547D01*
X0074182Y0045930D01*
X0073565Y0046547D01*
X0073565Y0048399D01*
X0072331Y0049613D02*
X0072331Y0050848D01*
X0071714Y0050230D02*
X0074182Y0050230D01*
X0074800Y0050848D01*
X0074182Y0052069D02*
X0072948Y0052069D01*
X0072331Y0052686D01*
X0072331Y0053920D01*
X0072948Y0054538D01*
X0073565Y0054538D01*
X0073565Y0052069D01*
X0074182Y0052069D02*
X0074800Y0052686D01*
X0074800Y0053920D01*
X0066948Y0049623D02*
X0066948Y0049006D01*
X0065714Y0047772D02*
X0065096Y0048389D01*
X0065096Y0049623D01*
X0065714Y0050241D01*
X0045165Y0033000D02*
X0044681Y0032517D01*
X0042746Y0032517D01*
X0043230Y0033000D02*
X0043230Y0032033D01*
X0043714Y0031021D02*
X0045165Y0031021D01*
X0043714Y0031021D02*
X0043230Y0030538D01*
X0043230Y0029086D01*
X0045165Y0029086D01*
X0045165Y0028075D02*
X0045165Y0026624D01*
X0044681Y0026140D01*
X0044197Y0026624D01*
X0044197Y0028075D01*
X0043714Y0028075D02*
X0045165Y0028075D01*
X0043714Y0028075D02*
X0043230Y0027591D01*
X0043230Y0026624D01*
X0163915Y0032783D02*
X0167619Y0032783D01*
X0167619Y0030931D01*
X0167001Y0030314D01*
X0165767Y0030314D01*
X0165150Y0030931D01*
X0165150Y0032783D01*
X0165767Y0035686D02*
X0165150Y0036920D01*
X0165150Y0037538D01*
X0165767Y0038155D01*
X0167001Y0038155D01*
X0167619Y0037538D01*
X0167619Y0036303D01*
X0167001Y0035686D01*
X0165767Y0035686D02*
X0163915Y0035686D01*
X0163915Y0038155D01*
X0165150Y0039369D02*
X0167619Y0040604D01*
X0165150Y0041838D01*
X0165767Y0029100D02*
X0167619Y0029100D01*
X0165767Y0029100D02*
X0165150Y0028483D01*
X0165150Y0026631D01*
X0167619Y0026631D01*
X0167619Y0025417D02*
X0167619Y0023565D01*
X0167001Y0022948D01*
X0165767Y0022948D01*
X0165150Y0023565D01*
X0165150Y0025417D01*
X0168236Y0025417D01*
X0168853Y0024799D01*
X0168853Y0024182D01*
X0190293Y0032389D02*
X0193996Y0032389D01*
X0193996Y0030538D01*
X0193379Y0029920D01*
X0192145Y0029920D01*
X0191528Y0030538D01*
X0191528Y0032389D01*
X0191357Y0035686D02*
X0189506Y0035686D01*
X0189506Y0038155D01*
X0190740Y0037538D02*
X0191357Y0038155D01*
X0192592Y0038155D01*
X0193209Y0037538D01*
X0193209Y0036303D01*
X0192592Y0035686D01*
X0191357Y0035686D02*
X0190740Y0036920D01*
X0190740Y0037538D01*
X0190740Y0039369D02*
X0193209Y0040604D01*
X0190740Y0041838D01*
X0192145Y0028706D02*
X0193996Y0028706D01*
X0192145Y0028706D02*
X0191528Y0028089D01*
X0191528Y0026237D01*
X0193996Y0026237D01*
X0193996Y0025023D02*
X0193996Y0023171D01*
X0193379Y0022554D01*
X0192145Y0022554D01*
X0191528Y0023171D01*
X0191528Y0025023D01*
X0194614Y0025023D01*
X0195231Y0024406D01*
X0195231Y0023788D01*
X0174705Y0071956D02*
X0171002Y0071956D01*
X0171002Y0073808D01*
X0171619Y0074425D01*
X0172854Y0074425D01*
X0173471Y0073808D01*
X0173471Y0071956D01*
X0174088Y0075639D02*
X0174705Y0076256D01*
X0174705Y0077491D01*
X0174088Y0078108D01*
X0172854Y0078108D01*
X0172236Y0077491D01*
X0172236Y0076256D01*
X0172854Y0075639D01*
X0174088Y0075639D01*
X0174088Y0079322D02*
X0172236Y0079322D01*
X0174088Y0079322D02*
X0174705Y0079939D01*
X0174088Y0080557D01*
X0174705Y0081174D01*
X0174088Y0081791D01*
X0172236Y0081791D01*
X0172854Y0083005D02*
X0172236Y0083623D01*
X0172236Y0084857D01*
X0172854Y0085474D01*
X0173471Y0085474D01*
X0173471Y0083005D01*
X0174088Y0083005D02*
X0172854Y0083005D01*
X0174088Y0083005D02*
X0174705Y0083623D01*
X0174705Y0084857D01*
X0174705Y0086689D02*
X0172236Y0086689D01*
X0172236Y0087923D02*
X0172236Y0088540D01*
X0172236Y0087923D02*
X0173471Y0086689D01*
X0174088Y0093441D02*
X0174705Y0094058D01*
X0174705Y0095293D01*
X0174088Y0095910D01*
X0173471Y0095910D01*
X0172854Y0095293D01*
X0172854Y0094058D01*
X0172236Y0093441D01*
X0171619Y0093441D01*
X0171002Y0094058D01*
X0171002Y0095293D01*
X0171619Y0095910D01*
X0172236Y0097124D02*
X0174088Y0097124D01*
X0174705Y0097741D01*
X0174705Y0099593D01*
X0172236Y0099593D01*
X0172236Y0100807D02*
X0172236Y0102659D01*
X0172854Y0103276D01*
X0174088Y0103276D01*
X0174705Y0102659D01*
X0174705Y0100807D01*
X0175940Y0100807D02*
X0172236Y0100807D01*
X0172236Y0104490D02*
X0172236Y0106342D01*
X0172854Y0106959D01*
X0174088Y0106959D01*
X0174705Y0106342D01*
X0174705Y0104490D01*
X0175940Y0104490D02*
X0172236Y0104490D01*
X0171002Y0108174D02*
X0171002Y0108791D01*
X0174705Y0108791D01*
X0174705Y0108174D02*
X0174705Y0109408D01*
X0174088Y0110629D02*
X0172236Y0110629D01*
X0174088Y0110629D02*
X0174705Y0111246D01*
X0174705Y0113098D01*
X0175322Y0113098D02*
X0172236Y0113098D01*
X0175322Y0113098D02*
X0175940Y0112481D01*
X0175940Y0111863D01*
X0167395Y0197751D02*
X0168012Y0198368D01*
X0168012Y0200220D01*
X0168629Y0200220D02*
X0165543Y0200220D01*
X0165543Y0198368D01*
X0166161Y0197751D01*
X0167395Y0197751D01*
X0169247Y0198985D02*
X0169247Y0199603D01*
X0168629Y0200220D01*
X0168012Y0201434D02*
X0165543Y0201434D01*
X0165543Y0203286D01*
X0166161Y0203903D01*
X0168012Y0203903D01*
X0167395Y0205117D02*
X0166161Y0205117D01*
X0165543Y0205734D01*
X0165543Y0207586D01*
X0164926Y0207987D02*
X0164309Y0208604D01*
X0164309Y0209839D01*
X0164926Y0210456D01*
X0165543Y0210456D01*
X0166161Y0209839D01*
X0166778Y0210456D01*
X0167395Y0210456D01*
X0168012Y0209839D01*
X0168012Y0208604D01*
X0167395Y0207987D01*
X0168012Y0207586D02*
X0168012Y0205734D01*
X0167395Y0205117D01*
X0168012Y0207586D02*
X0164309Y0207586D01*
X0166161Y0209222D02*
X0166161Y0209839D01*
X0165543Y0211670D02*
X0168012Y0212905D01*
X0165543Y0214139D01*
X0164926Y0215353D02*
X0164309Y0215971D01*
X0164309Y0217205D01*
X0164926Y0217822D01*
X0165543Y0217822D01*
X0166161Y0217205D01*
X0166778Y0217822D01*
X0167395Y0217822D01*
X0168012Y0217205D01*
X0168012Y0215971D01*
X0167395Y0215353D01*
X0166161Y0216588D02*
X0166161Y0217205D01*
X0189506Y0217205D02*
X0189506Y0215971D01*
X0190123Y0215353D01*
X0190740Y0214139D02*
X0193209Y0212905D01*
X0190740Y0211670D01*
X0190740Y0210456D02*
X0191357Y0209839D01*
X0191975Y0210456D01*
X0192592Y0210456D01*
X0193209Y0209839D01*
X0193209Y0208604D01*
X0192592Y0207987D01*
X0191528Y0207192D02*
X0191528Y0205341D01*
X0192145Y0204724D01*
X0193379Y0204724D01*
X0193996Y0205341D01*
X0193996Y0207192D01*
X0190293Y0207192D01*
X0190123Y0207987D02*
X0189506Y0208604D01*
X0189506Y0209839D01*
X0190123Y0210456D01*
X0190740Y0210456D01*
X0191357Y0209839D02*
X0191357Y0209222D01*
X0192145Y0203509D02*
X0193996Y0203509D01*
X0192145Y0203509D02*
X0191528Y0202892D01*
X0191528Y0201040D01*
X0193996Y0201040D01*
X0193996Y0199826D02*
X0193996Y0197974D01*
X0193379Y0197357D01*
X0192145Y0197357D01*
X0191528Y0197974D01*
X0191528Y0199826D01*
X0194614Y0199826D01*
X0195231Y0199209D01*
X0195231Y0198592D01*
X0192592Y0215353D02*
X0193209Y0215971D01*
X0193209Y0217205D01*
X0192592Y0217822D01*
X0191975Y0217822D01*
X0191357Y0217205D01*
X0191357Y0216588D01*
X0191357Y0217205D02*
X0190740Y0217822D01*
X0190123Y0217822D01*
X0189506Y0217205D01*
D14*
X0073703Y0159095D02*
X0072936Y0159095D01*
X0073319Y0159479D02*
X0073319Y0157944D01*
X0073703Y0157560D01*
X0072245Y0159095D02*
X0071862Y0159095D01*
X0071094Y0158328D01*
X0070419Y0158328D02*
X0069268Y0158328D01*
X0068884Y0157944D01*
X0069268Y0157560D01*
X0070419Y0157560D01*
X0070419Y0158711D01*
X0070035Y0159095D01*
X0069268Y0159095D01*
X0068209Y0159095D02*
X0068209Y0157560D01*
X0067058Y0157560D01*
X0066674Y0157944D01*
X0066674Y0159095D01*
X0066867Y0163389D02*
X0065332Y0163389D01*
X0066099Y0163389D02*
X0065332Y0164156D01*
X0065332Y0164540D01*
X0065332Y0165231D02*
X0066867Y0166765D01*
X0066867Y0165231D02*
X0065332Y0166765D01*
X0056630Y0166765D02*
X0055096Y0165231D01*
X0055096Y0164525D02*
X0055096Y0163757D01*
X0054712Y0164141D02*
X0056247Y0164141D01*
X0056630Y0164525D01*
X0056630Y0165231D02*
X0055096Y0166765D01*
X0046788Y0166765D02*
X0046788Y0165614D01*
X0046404Y0165231D01*
X0045637Y0165231D01*
X0045253Y0165614D01*
X0045253Y0166765D01*
X0045253Y0164555D02*
X0045253Y0163404D01*
X0045637Y0163021D01*
X0046404Y0163021D01*
X0046788Y0163404D01*
X0046788Y0164555D01*
X0045253Y0162346D02*
X0046788Y0161578D01*
X0045253Y0160811D01*
X0037068Y0150865D02*
X0035917Y0150865D01*
X0035533Y0150481D01*
X0035533Y0149714D01*
X0035917Y0149330D01*
X0037068Y0149330D01*
X0034858Y0149330D02*
X0033323Y0149330D01*
X0034858Y0150865D01*
X0034858Y0151249D01*
X0034474Y0151632D01*
X0033707Y0151632D01*
X0033323Y0151249D01*
X0032234Y0151632D02*
X0032234Y0152016D01*
X0032234Y0150865D02*
X0032234Y0149330D01*
X0032617Y0149330D02*
X0031850Y0149330D01*
X0031850Y0150865D02*
X0032234Y0150865D01*
X0039291Y0146653D02*
X0041593Y0146653D01*
X0041593Y0146270D02*
X0041593Y0147037D01*
X0041593Y0145595D02*
X0041593Y0144444D01*
X0041209Y0144060D01*
X0040442Y0144060D01*
X0040058Y0144444D01*
X0040058Y0145595D01*
X0039291Y0146270D02*
X0039291Y0146653D01*
X0040058Y0143385D02*
X0040058Y0142234D01*
X0040442Y0141850D01*
X0040825Y0142234D01*
X0040825Y0143001D01*
X0041209Y0143385D01*
X0041593Y0143001D01*
X0041593Y0141850D01*
X0050294Y0142234D02*
X0050294Y0143385D01*
X0050678Y0144060D02*
X0050294Y0144444D01*
X0050294Y0145595D01*
X0049527Y0145595D02*
X0051829Y0145595D01*
X0051829Y0144444D01*
X0051445Y0144060D01*
X0050678Y0144060D01*
X0051445Y0143385D02*
X0051061Y0143001D01*
X0051061Y0142234D01*
X0050678Y0141850D01*
X0050294Y0142234D01*
X0051829Y0141850D02*
X0051829Y0143001D01*
X0051445Y0143385D01*
X0051445Y0146270D02*
X0051061Y0146653D01*
X0051061Y0147804D01*
X0050678Y0147804D02*
X0051829Y0147804D01*
X0051829Y0146653D01*
X0051445Y0146270D01*
X0050294Y0146653D02*
X0050294Y0147421D01*
X0050678Y0147804D01*
X0060137Y0147804D02*
X0060137Y0146653D01*
X0060520Y0146270D01*
X0061288Y0146270D01*
X0061671Y0146653D01*
X0061671Y0147804D01*
X0061671Y0145595D02*
X0061671Y0144444D01*
X0061288Y0144060D01*
X0060520Y0144060D01*
X0060137Y0144444D01*
X0060137Y0145595D01*
X0060137Y0143385D02*
X0061671Y0142617D01*
X0060137Y0141850D01*
X0071094Y0157560D02*
X0071094Y0159095D01*
M02*
