G75*
%MOIN*%
%OFA0B0*%
%FSLAX25Y25*%
%IPPOS*%
%LPD*%
%AMOC8*
5,1,8,0,0,1.08239X$1,22.5*
%
%ADD10R,0.05150X0.05150*%
%ADD11R,0.04756X0.04756*%
%ADD12C,0.04756*%
%ADD13C,0.05150*%
%ADD14C,0.05543*%
%ADD15C,0.01200*%
%ADD16C,0.01600*%
%ADD17C,0.03962*%
D10*
X0036800Y0154083D03*
X0056485Y0154083D03*
D11*
X0085304Y0207115D03*
D12*
X0085343Y0197076D03*
X0085304Y0187194D03*
X0085304Y0177587D03*
X0085304Y0167587D03*
X0085304Y0157627D03*
X0085265Y0147587D03*
X0085304Y0137587D03*
X0085265Y0127587D03*
X0085265Y0117548D03*
X0085225Y0107509D03*
X0085304Y0097469D03*
X0085343Y0087430D03*
X0085304Y0077391D03*
X0085304Y0067351D03*
X0104989Y0067351D03*
X0104989Y0057509D03*
X0114831Y0057509D03*
X0114831Y0067351D03*
X0124674Y0067351D03*
X0124674Y0057509D03*
X0144359Y0067391D03*
X0144398Y0077391D03*
X0144359Y0087391D03*
X0144359Y0097391D03*
X0144359Y0107391D03*
X0144359Y0117430D03*
X0144359Y0127469D03*
X0144359Y0137509D03*
X0144398Y0147548D03*
X0144398Y0157627D03*
X0144398Y0167666D03*
X0144359Y0177666D03*
X0144438Y0187745D03*
X0144398Y0197706D03*
X0144359Y0207115D03*
D13*
X0068060Y0170146D03*
X0058060Y0170186D03*
X0048060Y0170186D03*
X0038060Y0170107D03*
X0038099Y0139044D03*
X0048099Y0139005D03*
X0058099Y0139005D03*
X0068099Y0139083D03*
X0058296Y0124595D03*
X0058257Y0114438D03*
X0048178Y0114398D03*
X0038375Y0114398D03*
X0038414Y0124517D03*
X0048178Y0124595D03*
X0027666Y0124556D03*
X0027666Y0114438D03*
D14*
X0159044Y0039359D03*
X0159044Y0029517D03*
X0198414Y0029517D03*
X0198414Y0039359D03*
X0198414Y0204713D03*
X0198414Y0214556D03*
X0159044Y0214556D03*
X0159044Y0204713D03*
D15*
X0143537Y0157985D02*
X0144398Y0157627D01*
X0143537Y0157985D02*
X0101937Y0157985D01*
X0087637Y0172285D01*
X0077237Y0172285D01*
X0072037Y0177485D01*
X0048637Y0177485D01*
X0043437Y0172285D01*
X0043437Y0130685D01*
X0048637Y0125485D01*
X0048178Y0124595D01*
X0043437Y0126785D02*
X0043437Y0121585D01*
X0046037Y0118985D01*
X0049937Y0118985D01*
X0055137Y0124185D01*
X0057737Y0124185D01*
X0058296Y0124595D01*
X0062937Y0122885D02*
X0062937Y0134585D01*
X0059037Y0138485D01*
X0058099Y0139005D01*
X0057737Y0139785D01*
X0048637Y0148885D01*
X0048637Y0169685D01*
X0048060Y0170186D01*
X0058060Y0170186D02*
X0059037Y0170985D01*
X0062937Y0174885D01*
X0070737Y0174885D01*
X0082437Y0163185D01*
X0086337Y0163185D01*
X0126637Y0122885D01*
X0146137Y0122885D01*
X0151337Y0117685D01*
X0151337Y0077385D01*
X0144837Y0070885D01*
X0144837Y0068285D01*
X0144359Y0067391D01*
X0144398Y0077391D02*
X0144837Y0078685D01*
X0144837Y0081285D01*
X0148737Y0085185D01*
X0148737Y0109885D01*
X0146137Y0112485D01*
X0126637Y0112485D01*
X0086337Y0152785D01*
X0083737Y0152785D01*
X0066837Y0169685D01*
X0068060Y0170146D01*
X0053837Y0180085D02*
X0040837Y0180085D01*
X0030437Y0169685D01*
X0030437Y0133285D01*
X0038237Y0125485D01*
X0038414Y0124517D01*
X0043437Y0126785D02*
X0033037Y0137185D01*
X0033037Y0150185D01*
X0035637Y0152785D01*
X0036800Y0154083D01*
X0056485Y0154083D02*
X0057737Y0152785D01*
X0061637Y0152785D01*
X0072037Y0142385D01*
X0087637Y0142385D01*
X0121437Y0108585D01*
X0143537Y0108585D01*
X0144359Y0107391D01*
X0144359Y0097391D02*
X0143537Y0096885D01*
X0143537Y0092985D01*
X0139637Y0089085D01*
X0139637Y0048785D01*
X0157837Y0030585D01*
X0159044Y0029517D01*
X0085304Y0097469D02*
X0085037Y0098185D01*
X0085037Y0100785D01*
X0062937Y0122885D01*
X0053837Y0180085D02*
X0079837Y0206085D01*
X0085037Y0206085D01*
X0085304Y0207115D01*
D16*
X0010152Y0219520D02*
X0010528Y0008568D01*
X0213724Y0008568D01*
X0213347Y0219520D01*
X0199422Y0219520D01*
X0201230Y0218771D01*
X0202629Y0217372D01*
X0203386Y0215545D01*
X0203386Y0213567D01*
X0202629Y0211740D01*
X0201230Y0210341D01*
X0199403Y0209584D01*
X0197425Y0209584D01*
X0195598Y0210341D01*
X0194199Y0211740D01*
X0193443Y0213567D01*
X0193443Y0215545D01*
X0194199Y0217372D01*
X0195598Y0218771D01*
X0197406Y0219520D01*
X0160052Y0219520D01*
X0161860Y0218771D01*
X0163259Y0217372D01*
X0164016Y0215545D01*
X0164016Y0213567D01*
X0163259Y0211740D01*
X0161860Y0210341D01*
X0160033Y0209584D01*
X0158055Y0209584D01*
X0156228Y0210341D01*
X0154829Y0211740D01*
X0154072Y0213567D01*
X0154072Y0215545D01*
X0154829Y0217372D01*
X0156228Y0218771D01*
X0158036Y0219520D01*
X0010152Y0219520D01*
X0010154Y0218102D02*
X0155559Y0218102D01*
X0154470Y0216503D02*
X0058577Y0216503D01*
X0059796Y0215800D02*
X0057265Y0217261D01*
X0054442Y0218017D01*
X0051520Y0218017D01*
X0048697Y0217261D01*
X0046166Y0215800D01*
X0044100Y0213733D01*
X0042638Y0211202D01*
X0041882Y0208379D01*
X0041882Y0205457D01*
X0042638Y0202634D01*
X0044100Y0200103D01*
X0046166Y0198037D01*
X0048697Y0196575D01*
X0051520Y0195819D01*
X0054442Y0195819D01*
X0057265Y0196575D01*
X0059796Y0198037D01*
X0061863Y0200103D01*
X0063324Y0202634D01*
X0064080Y0205457D01*
X0064080Y0208379D01*
X0063324Y0211202D01*
X0061863Y0213733D01*
X0059796Y0215800D01*
X0060691Y0214905D02*
X0154072Y0214905D01*
X0154180Y0213306D02*
X0062109Y0213306D01*
X0063032Y0211708D02*
X0154861Y0211708D01*
X0156787Y0210109D02*
X0147839Y0210109D01*
X0148240Y0209708D02*
X0146952Y0210996D01*
X0145270Y0211693D01*
X0143448Y0211693D01*
X0141766Y0210996D01*
X0140478Y0209708D01*
X0139781Y0208026D01*
X0139781Y0206204D01*
X0140478Y0204522D01*
X0141766Y0203234D01*
X0143448Y0202537D01*
X0145270Y0202537D01*
X0146952Y0203234D01*
X0148240Y0204522D01*
X0148937Y0206204D01*
X0148937Y0208026D01*
X0148240Y0209708D01*
X0148736Y0208511D02*
X0156493Y0208511D01*
X0156648Y0208623D02*
X0156066Y0208200D01*
X0155557Y0207692D01*
X0155134Y0207109D01*
X0154807Y0206468D01*
X0154585Y0205784D01*
X0154472Y0205073D01*
X0154472Y0204799D01*
X0158958Y0204799D01*
X0158958Y0204628D01*
X0154472Y0204628D01*
X0154472Y0204354D01*
X0154585Y0203643D01*
X0154807Y0202958D01*
X0155134Y0202317D01*
X0155557Y0201735D01*
X0156066Y0201226D01*
X0156648Y0200803D01*
X0157289Y0200477D01*
X0157974Y0200254D01*
X0158684Y0200142D01*
X0158958Y0200142D01*
X0158958Y0204627D01*
X0159130Y0204627D01*
X0159130Y0200142D01*
X0159404Y0200142D01*
X0160115Y0200254D01*
X0160799Y0200477D01*
X0161440Y0200803D01*
X0162022Y0201226D01*
X0162531Y0201735D01*
X0162954Y0202317D01*
X0163281Y0202958D01*
X0163503Y0203643D01*
X0163616Y0204354D01*
X0163616Y0204628D01*
X0159130Y0204628D01*
X0159130Y0204799D01*
X0163616Y0204799D01*
X0163616Y0205073D01*
X0163503Y0205784D01*
X0163281Y0206468D01*
X0162954Y0207109D01*
X0162531Y0207692D01*
X0162022Y0208200D01*
X0161440Y0208623D01*
X0160799Y0208950D01*
X0160115Y0209172D01*
X0159404Y0209285D01*
X0159130Y0209285D01*
X0159130Y0204799D01*
X0158958Y0204799D01*
X0158958Y0209285D01*
X0158684Y0209285D01*
X0157974Y0209172D01*
X0157289Y0208950D01*
X0156648Y0208623D01*
X0158958Y0208511D02*
X0159130Y0208511D01*
X0159130Y0206912D02*
X0158958Y0206912D01*
X0158958Y0205314D02*
X0159130Y0205314D01*
X0159130Y0203715D02*
X0158958Y0203715D01*
X0158958Y0202117D02*
X0159130Y0202117D01*
X0159130Y0200518D02*
X0158958Y0200518D01*
X0157207Y0200518D02*
X0148060Y0200518D01*
X0148279Y0200299D02*
X0146992Y0201587D01*
X0145309Y0202283D01*
X0143488Y0202283D01*
X0141805Y0201587D01*
X0140517Y0200299D01*
X0139820Y0198616D01*
X0139820Y0196795D01*
X0140517Y0195112D01*
X0141805Y0193825D01*
X0143488Y0193128D01*
X0145309Y0193128D01*
X0146992Y0193825D01*
X0148279Y0195112D01*
X0148976Y0196795D01*
X0148976Y0198616D01*
X0148279Y0200299D01*
X0148851Y0198920D02*
X0213384Y0198920D01*
X0213381Y0200518D02*
X0200251Y0200518D01*
X0200169Y0200477D02*
X0200810Y0200803D01*
X0201392Y0201226D01*
X0201901Y0201735D01*
X0202324Y0202317D01*
X0202651Y0202958D01*
X0202873Y0203643D01*
X0202986Y0204354D01*
X0202986Y0204628D01*
X0198500Y0204628D01*
X0198500Y0204799D01*
X0202986Y0204799D01*
X0202986Y0205073D01*
X0202873Y0205784D01*
X0202651Y0206468D01*
X0202324Y0207109D01*
X0201901Y0207692D01*
X0201392Y0208200D01*
X0200810Y0208623D01*
X0200169Y0208950D01*
X0199485Y0209172D01*
X0198774Y0209285D01*
X0198500Y0209285D01*
X0198500Y0204799D01*
X0198328Y0204799D01*
X0198328Y0204628D01*
X0193843Y0204628D01*
X0193843Y0204354D01*
X0193955Y0203643D01*
X0194177Y0202958D01*
X0194504Y0202317D01*
X0194927Y0201735D01*
X0195436Y0201226D01*
X0196018Y0200803D01*
X0196659Y0200477D01*
X0197344Y0200254D01*
X0198054Y0200142D01*
X0198328Y0200142D01*
X0198328Y0204627D01*
X0198500Y0204627D01*
X0198500Y0200142D01*
X0198774Y0200142D01*
X0199485Y0200254D01*
X0200169Y0200477D01*
X0198500Y0200518D02*
X0198328Y0200518D01*
X0198328Y0202117D02*
X0198500Y0202117D01*
X0198500Y0203715D02*
X0198328Y0203715D01*
X0198328Y0204799D02*
X0193843Y0204799D01*
X0193843Y0205073D01*
X0193955Y0205784D01*
X0194177Y0206468D01*
X0194504Y0207109D01*
X0194927Y0207692D01*
X0195436Y0208200D01*
X0196018Y0208623D01*
X0196659Y0208950D01*
X0197344Y0209172D01*
X0198054Y0209285D01*
X0198328Y0209285D01*
X0198328Y0204799D01*
X0198328Y0205314D02*
X0198500Y0205314D01*
X0198500Y0206912D02*
X0198328Y0206912D01*
X0198328Y0208511D02*
X0198500Y0208511D01*
X0200965Y0208511D02*
X0213367Y0208511D01*
X0213364Y0210109D02*
X0200671Y0210109D01*
X0202597Y0211708D02*
X0213361Y0211708D01*
X0213358Y0213306D02*
X0203278Y0213306D01*
X0203386Y0214905D02*
X0213355Y0214905D01*
X0213353Y0216503D02*
X0202989Y0216503D01*
X0201899Y0218102D02*
X0213350Y0218102D01*
X0213370Y0206912D02*
X0202425Y0206912D01*
X0202948Y0205314D02*
X0213373Y0205314D01*
X0213375Y0203715D02*
X0202885Y0203715D01*
X0202179Y0202117D02*
X0213378Y0202117D01*
X0213387Y0197321D02*
X0148976Y0197321D01*
X0148532Y0195723D02*
X0213390Y0195723D01*
X0213392Y0194124D02*
X0147291Y0194124D01*
X0147031Y0191626D02*
X0145348Y0192323D01*
X0143527Y0192323D01*
X0141845Y0191626D01*
X0140557Y0190338D01*
X0139860Y0188655D01*
X0139860Y0186834D01*
X0140557Y0185152D01*
X0141845Y0183864D01*
X0143527Y0183167D01*
X0145348Y0183167D01*
X0147031Y0183864D01*
X0148319Y0185152D01*
X0149016Y0186834D01*
X0149016Y0188655D01*
X0148319Y0190338D01*
X0147031Y0191626D01*
X0147730Y0190927D02*
X0213398Y0190927D01*
X0213401Y0189329D02*
X0148737Y0189329D01*
X0149016Y0187730D02*
X0213404Y0187730D01*
X0213407Y0186132D02*
X0197397Y0186132D01*
X0197082Y0186447D02*
X0198258Y0185271D01*
X0198894Y0183734D01*
X0198894Y0182071D01*
X0198258Y0180534D01*
X0197082Y0179358D01*
X0195545Y0178721D01*
X0193882Y0178721D01*
X0192345Y0179358D01*
X0191169Y0180534D01*
X0190532Y0182071D01*
X0190532Y0183734D01*
X0191169Y0185271D01*
X0192345Y0186447D01*
X0193882Y0187083D01*
X0195545Y0187083D01*
X0197082Y0186447D01*
X0198563Y0184533D02*
X0213410Y0184533D01*
X0213412Y0182935D02*
X0198894Y0182935D01*
X0198590Y0181336D02*
X0213415Y0181336D01*
X0213418Y0179738D02*
X0197462Y0179738D01*
X0195545Y0175272D02*
X0193882Y0175272D01*
X0192345Y0174636D01*
X0191169Y0173460D01*
X0190532Y0171923D01*
X0190532Y0170260D01*
X0191169Y0168723D01*
X0192345Y0167547D01*
X0193882Y0166910D01*
X0195545Y0166910D01*
X0197082Y0167547D01*
X0198258Y0168723D01*
X0198894Y0170260D01*
X0198894Y0171923D01*
X0198258Y0173460D01*
X0197082Y0174636D01*
X0195545Y0175272D01*
X0196342Y0174942D02*
X0213427Y0174942D01*
X0213430Y0173344D02*
X0198306Y0173344D01*
X0198894Y0171745D02*
X0213432Y0171745D01*
X0213435Y0170147D02*
X0198848Y0170147D01*
X0198083Y0168548D02*
X0213438Y0168548D01*
X0213441Y0166950D02*
X0195640Y0166950D01*
X0193787Y0166950D02*
X0183829Y0166950D01*
X0183734Y0166910D02*
X0185271Y0167547D01*
X0186447Y0168723D01*
X0187083Y0170260D01*
X0187083Y0171923D01*
X0186447Y0173460D01*
X0185271Y0174636D01*
X0183734Y0175272D01*
X0182071Y0175272D01*
X0180534Y0174636D01*
X0179358Y0173460D01*
X0178721Y0171923D01*
X0178721Y0170260D01*
X0179358Y0168723D01*
X0180534Y0167547D01*
X0182071Y0166910D01*
X0183734Y0166910D01*
X0181976Y0166950D02*
X0172018Y0166950D01*
X0171923Y0166910D02*
X0173460Y0167547D01*
X0174636Y0168723D01*
X0175272Y0170260D01*
X0175272Y0171923D01*
X0174636Y0173460D01*
X0173460Y0174636D01*
X0171923Y0175272D01*
X0170260Y0175272D01*
X0168723Y0174636D01*
X0167547Y0173460D01*
X0166910Y0171923D01*
X0166910Y0170260D01*
X0167547Y0168723D01*
X0168723Y0167547D01*
X0170260Y0166910D01*
X0171923Y0166910D01*
X0170165Y0166950D02*
X0160207Y0166950D01*
X0160112Y0166910D02*
X0161649Y0167547D01*
X0162825Y0168723D01*
X0163461Y0170260D01*
X0163461Y0171923D01*
X0162825Y0173460D01*
X0161649Y0174636D01*
X0160112Y0175272D01*
X0158449Y0175272D01*
X0156912Y0174636D01*
X0155736Y0173460D01*
X0155099Y0171923D01*
X0155099Y0170260D01*
X0155736Y0168723D01*
X0156912Y0167547D01*
X0158449Y0166910D01*
X0160112Y0166910D01*
X0158354Y0166950D02*
X0148976Y0166950D01*
X0148976Y0166756D02*
X0148279Y0165073D01*
X0146992Y0163785D01*
X0145309Y0163088D01*
X0143488Y0163088D01*
X0141805Y0163785D01*
X0140517Y0165073D01*
X0139820Y0166756D01*
X0139820Y0168577D01*
X0140517Y0170259D01*
X0141805Y0171547D01*
X0143488Y0172244D01*
X0145309Y0172244D01*
X0146992Y0171547D01*
X0148279Y0170259D01*
X0148976Y0168577D01*
X0148976Y0166756D01*
X0148395Y0165351D02*
X0213444Y0165351D01*
X0213447Y0163753D02*
X0146913Y0163753D01*
X0145431Y0162154D02*
X0156241Y0162154D01*
X0155736Y0161649D02*
X0155099Y0160112D01*
X0155099Y0158449D01*
X0155736Y0156912D01*
X0156912Y0155736D01*
X0158449Y0155099D01*
X0160112Y0155099D01*
X0161649Y0155736D01*
X0162825Y0156912D01*
X0163461Y0158449D01*
X0163461Y0160112D01*
X0162825Y0161649D01*
X0161649Y0162825D01*
X0160112Y0163461D01*
X0158449Y0163461D01*
X0156912Y0162825D01*
X0155736Y0161649D01*
X0155283Y0160556D02*
X0147944Y0160556D01*
X0148279Y0160220D02*
X0146992Y0161508D01*
X0145309Y0162205D01*
X0143488Y0162205D01*
X0141805Y0161508D01*
X0141082Y0160785D01*
X0103097Y0160785D01*
X0090011Y0173871D01*
X0089223Y0174659D01*
X0088959Y0174768D01*
X0089185Y0174994D01*
X0089882Y0176677D01*
X0089882Y0178498D01*
X0089185Y0180181D01*
X0087897Y0181468D01*
X0086215Y0182165D01*
X0084393Y0182165D01*
X0082711Y0181468D01*
X0081423Y0180181D01*
X0080726Y0178498D01*
X0080726Y0176677D01*
X0081385Y0175085D01*
X0078397Y0175085D01*
X0074411Y0179071D01*
X0073623Y0179859D01*
X0072594Y0180285D01*
X0057997Y0180285D01*
X0080997Y0203285D01*
X0081267Y0203285D01*
X0082015Y0202537D01*
X0088593Y0202537D01*
X0089882Y0203826D01*
X0089882Y0210404D01*
X0088593Y0211693D01*
X0082015Y0211693D01*
X0080726Y0210404D01*
X0080726Y0208885D01*
X0079280Y0208885D01*
X0078251Y0208459D01*
X0052677Y0182885D01*
X0040280Y0182885D01*
X0039251Y0182459D01*
X0028851Y0172059D01*
X0028063Y0171271D01*
X0027637Y0170242D01*
X0027637Y0132728D01*
X0028063Y0131699D01*
X0033832Y0125931D01*
X0033639Y0125466D01*
X0033639Y0123567D01*
X0034366Y0121812D01*
X0035709Y0120469D01*
X0037464Y0119742D01*
X0039364Y0119742D01*
X0041119Y0120469D01*
X0042462Y0121812D01*
X0043189Y0123567D01*
X0043189Y0125466D01*
X0042462Y0127221D01*
X0041119Y0128564D01*
X0039364Y0129291D01*
X0038391Y0129291D01*
X0033237Y0134445D01*
X0033237Y0150001D01*
X0033530Y0149831D01*
X0033988Y0149709D01*
X0036800Y0149709D01*
X0039612Y0149709D01*
X0040070Y0149831D01*
X0040480Y0150068D01*
X0040637Y0150225D01*
X0040637Y0143161D01*
X0039049Y0143819D01*
X0037149Y0143819D01*
X0035395Y0143092D01*
X0034051Y0141749D01*
X0033324Y0139994D01*
X0033324Y0138094D01*
X0034051Y0136339D01*
X0035395Y0134996D01*
X0037149Y0134269D01*
X0039049Y0134269D01*
X0040637Y0134927D01*
X0040637Y0130128D01*
X0041063Y0129099D01*
X0043759Y0126404D01*
X0043403Y0125545D01*
X0043403Y0123645D01*
X0044130Y0121891D01*
X0045473Y0120547D01*
X0047228Y0119820D01*
X0049128Y0119820D01*
X0050883Y0120547D01*
X0052226Y0121891D01*
X0052953Y0123645D01*
X0052953Y0125545D01*
X0052226Y0127300D01*
X0050883Y0128643D01*
X0049128Y0129370D01*
X0048712Y0129370D01*
X0046237Y0131845D01*
X0046237Y0134608D01*
X0047149Y0134230D01*
X0049049Y0134230D01*
X0050804Y0134957D01*
X0052147Y0136300D01*
X0052874Y0138055D01*
X0052874Y0139954D01*
X0052355Y0141207D01*
X0053407Y0140155D01*
X0053324Y0139954D01*
X0053324Y0138055D01*
X0054051Y0136300D01*
X0055395Y0134957D01*
X0057149Y0134230D01*
X0059049Y0134230D01*
X0059249Y0134313D01*
X0060137Y0133425D01*
X0060137Y0128567D01*
X0059975Y0128650D01*
X0059320Y0128862D01*
X0058640Y0128970D01*
X0058296Y0128970D01*
X0057952Y0128970D01*
X0057272Y0128862D01*
X0056617Y0128650D01*
X0056003Y0128337D01*
X0055446Y0127932D01*
X0054959Y0127445D01*
X0054554Y0126888D01*
X0054242Y0126275D01*
X0054029Y0125620D01*
X0053921Y0124940D01*
X0053921Y0124595D01*
X0053921Y0124251D01*
X0054029Y0123571D01*
X0054242Y0122916D01*
X0054554Y0122302D01*
X0054959Y0121745D01*
X0055446Y0121258D01*
X0056003Y0120854D01*
X0056617Y0120541D01*
X0057272Y0120328D01*
X0057952Y0120220D01*
X0058296Y0120220D01*
X0058296Y0124595D01*
X0058296Y0124595D01*
X0058296Y0120220D01*
X0058640Y0120220D01*
X0059320Y0120328D01*
X0059975Y0120541D01*
X0060589Y0120854D01*
X0060832Y0121030D01*
X0061351Y0120511D01*
X0081611Y0100251D01*
X0081423Y0100062D01*
X0080726Y0098380D01*
X0080726Y0096559D01*
X0081423Y0094876D01*
X0082711Y0093588D01*
X0084393Y0092891D01*
X0086215Y0092891D01*
X0087897Y0093588D01*
X0089185Y0094876D01*
X0089882Y0096559D01*
X0089882Y0098380D01*
X0089185Y0100062D01*
X0087897Y0101350D01*
X0087820Y0101382D01*
X0087411Y0102371D01*
X0086642Y0103140D01*
X0087818Y0103628D01*
X0089106Y0104915D01*
X0089803Y0106598D01*
X0089803Y0108419D01*
X0089106Y0110102D01*
X0087818Y0111390D01*
X0086136Y0112087D01*
X0084315Y0112087D01*
X0082632Y0111390D01*
X0081344Y0110102D01*
X0080857Y0108925D01*
X0065737Y0124045D01*
X0065737Y0135142D01*
X0065589Y0135500D01*
X0065806Y0135342D01*
X0066420Y0135029D01*
X0067075Y0134816D01*
X0067755Y0134709D01*
X0068099Y0134709D01*
X0068099Y0139083D01*
X0068099Y0139083D01*
X0063724Y0139083D01*
X0063724Y0138739D01*
X0063832Y0138059D01*
X0064029Y0137453D01*
X0062874Y0138608D01*
X0062874Y0139954D01*
X0062147Y0141709D01*
X0060804Y0143053D01*
X0059049Y0143780D01*
X0057702Y0143780D01*
X0051437Y0150045D01*
X0051437Y0166810D01*
X0052108Y0167481D01*
X0052835Y0169236D01*
X0052835Y0171136D01*
X0052108Y0172891D01*
X0050765Y0174234D01*
X0049761Y0174649D01*
X0049797Y0174685D01*
X0056445Y0174685D01*
X0055355Y0174234D01*
X0054012Y0172891D01*
X0053285Y0171136D01*
X0053285Y0169236D01*
X0054012Y0167481D01*
X0055355Y0166138D01*
X0057110Y0165411D01*
X0059010Y0165411D01*
X0060765Y0166138D01*
X0062108Y0167481D01*
X0062835Y0169236D01*
X0062835Y0170823D01*
X0063410Y0171399D01*
X0063285Y0171096D01*
X0063285Y0169197D01*
X0064012Y0167442D01*
X0065355Y0166099D01*
X0067110Y0165372D01*
X0067191Y0165372D01*
X0081883Y0150680D01*
X0081384Y0150181D01*
X0080687Y0148498D01*
X0080687Y0146677D01*
X0081305Y0145185D01*
X0073197Y0145185D01*
X0064011Y0154371D01*
X0063223Y0155159D01*
X0062194Y0155585D01*
X0061260Y0155585D01*
X0061260Y0157570D01*
X0059971Y0158858D01*
X0052999Y0158858D01*
X0051710Y0157570D01*
X0051710Y0150597D01*
X0052999Y0149309D01*
X0059971Y0149309D01*
X0060562Y0149900D01*
X0067107Y0143356D01*
X0067075Y0143351D01*
X0066420Y0143138D01*
X0065806Y0142825D01*
X0065249Y0142420D01*
X0064762Y0141933D01*
X0064358Y0141376D01*
X0064045Y0140763D01*
X0063832Y0140108D01*
X0063724Y0139428D01*
X0063724Y0139084D01*
X0068099Y0139084D01*
X0068099Y0139083D01*
X0068099Y0134709D01*
X0068444Y0134709D01*
X0069124Y0134816D01*
X0069779Y0135029D01*
X0070392Y0135342D01*
X0070949Y0135747D01*
X0071436Y0136233D01*
X0071841Y0136791D01*
X0072153Y0137404D01*
X0072366Y0138059D01*
X0072474Y0138739D01*
X0072474Y0139083D01*
X0068099Y0139083D01*
X0068099Y0139084D01*
X0072474Y0139084D01*
X0072474Y0139428D01*
X0072449Y0139585D01*
X0081176Y0139585D01*
X0080726Y0138498D01*
X0080726Y0136677D01*
X0081423Y0134994D01*
X0082711Y0133706D01*
X0084393Y0133009D01*
X0086215Y0133009D01*
X0087897Y0133706D01*
X0089185Y0134994D01*
X0089736Y0136326D01*
X0119851Y0106211D01*
X0120880Y0105785D01*
X0140069Y0105785D01*
X0140478Y0104797D01*
X0141766Y0103510D01*
X0143448Y0102813D01*
X0145270Y0102813D01*
X0145937Y0103089D01*
X0145937Y0101271D01*
X0145337Y0101466D01*
X0144688Y0101568D01*
X0144359Y0101568D01*
X0144030Y0101568D01*
X0143381Y0101466D01*
X0142755Y0101262D01*
X0142169Y0100964D01*
X0141637Y0100577D01*
X0141172Y0100112D01*
X0140786Y0099580D01*
X0140487Y0098994D01*
X0140284Y0098369D01*
X0140181Y0097719D01*
X0140181Y0097391D01*
X0144359Y0097391D01*
X0144359Y0101568D01*
X0144359Y0097391D01*
X0144359Y0097391D01*
X0144359Y0097390D01*
X0144359Y0093213D01*
X0144688Y0093213D01*
X0145337Y0093315D01*
X0145937Y0093510D01*
X0145937Y0091692D01*
X0145270Y0091968D01*
X0143448Y0091968D01*
X0141766Y0091272D01*
X0140478Y0089984D01*
X0139781Y0088301D01*
X0139781Y0086480D01*
X0140478Y0084797D01*
X0141766Y0083510D01*
X0142710Y0083118D01*
X0142463Y0082871D01*
X0142037Y0081842D01*
X0142037Y0081368D01*
X0141805Y0081272D01*
X0140517Y0079984D01*
X0139820Y0078301D01*
X0139820Y0076480D01*
X0140517Y0074797D01*
X0141805Y0073510D01*
X0143005Y0073013D01*
X0142463Y0072471D01*
X0142037Y0071442D01*
X0142037Y0071384D01*
X0141766Y0071272D01*
X0140478Y0069984D01*
X0139781Y0068301D01*
X0139781Y0066480D01*
X0140478Y0064797D01*
X0141766Y0063510D01*
X0143448Y0062813D01*
X0145270Y0062813D01*
X0146952Y0063510D01*
X0148240Y0064797D01*
X0148937Y0066480D01*
X0148937Y0068301D01*
X0148240Y0069984D01*
X0148068Y0070156D01*
X0153711Y0075799D01*
X0154137Y0076828D01*
X0154137Y0118242D01*
X0153711Y0119271D01*
X0148511Y0124471D01*
X0148173Y0124809D01*
X0148240Y0124876D01*
X0148937Y0126559D01*
X0148937Y0128380D01*
X0148240Y0130062D01*
X0146952Y0131350D01*
X0145270Y0132047D01*
X0143448Y0132047D01*
X0141766Y0131350D01*
X0140478Y0130062D01*
X0139781Y0128380D01*
X0139781Y0126559D01*
X0140143Y0125685D01*
X0127797Y0125685D01*
X0088836Y0164646D01*
X0089185Y0164994D01*
X0089707Y0166255D01*
X0100351Y0155611D01*
X0101380Y0155185D01*
X0140455Y0155185D01*
X0140517Y0155034D01*
X0141805Y0153746D01*
X0143488Y0153049D01*
X0145309Y0153049D01*
X0146992Y0153746D01*
X0148279Y0155034D01*
X0148976Y0156716D01*
X0148976Y0158537D01*
X0148279Y0160220D01*
X0148803Y0158957D02*
X0155099Y0158957D01*
X0155551Y0157359D02*
X0148976Y0157359D01*
X0148580Y0155760D02*
X0156888Y0155760D01*
X0158449Y0151650D02*
X0156912Y0151014D01*
X0155736Y0149838D01*
X0155099Y0148301D01*
X0155099Y0146638D01*
X0155736Y0145101D01*
X0156912Y0143925D01*
X0158449Y0143288D01*
X0160112Y0143288D01*
X0161649Y0143925D01*
X0162825Y0145101D01*
X0163461Y0146638D01*
X0163461Y0148301D01*
X0162825Y0149838D01*
X0161649Y0151014D01*
X0160112Y0151650D01*
X0158449Y0151650D01*
X0156863Y0150964D02*
X0147456Y0150964D01*
X0146992Y0151429D02*
X0145309Y0152126D01*
X0143488Y0152126D01*
X0141805Y0151429D01*
X0140517Y0150141D01*
X0139820Y0148459D01*
X0139820Y0146637D01*
X0140517Y0144955D01*
X0141805Y0143667D01*
X0143488Y0142970D01*
X0145309Y0142970D01*
X0146992Y0143667D01*
X0148279Y0144955D01*
X0148976Y0146637D01*
X0148976Y0148459D01*
X0148279Y0150141D01*
X0146992Y0151429D01*
X0148601Y0149366D02*
X0155540Y0149366D01*
X0155099Y0147767D02*
X0148976Y0147767D01*
X0148782Y0146169D02*
X0155293Y0146169D01*
X0156266Y0144570D02*
X0147895Y0144570D01*
X0146952Y0141390D02*
X0145270Y0142087D01*
X0143448Y0142087D01*
X0141766Y0141390D01*
X0140478Y0140102D01*
X0139781Y0138419D01*
X0139781Y0136598D01*
X0140478Y0134915D01*
X0141766Y0133628D01*
X0143448Y0132931D01*
X0145270Y0132931D01*
X0146952Y0133628D01*
X0148240Y0134915D01*
X0148937Y0136598D01*
X0148937Y0138419D01*
X0148240Y0140102D01*
X0146952Y0141390D01*
X0146969Y0141373D02*
X0213487Y0141373D01*
X0213489Y0139775D02*
X0160268Y0139775D01*
X0160112Y0139839D02*
X0158449Y0139839D01*
X0156912Y0139203D01*
X0155736Y0138027D01*
X0155099Y0136490D01*
X0155099Y0134827D01*
X0155736Y0133290D01*
X0156912Y0132114D01*
X0158449Y0131477D01*
X0160112Y0131477D01*
X0161649Y0132114D01*
X0162825Y0133290D01*
X0163461Y0134827D01*
X0163461Y0136490D01*
X0162825Y0138027D01*
X0161649Y0139203D01*
X0160112Y0139839D01*
X0158293Y0139775D02*
X0148375Y0139775D01*
X0148937Y0138176D02*
X0155885Y0138176D01*
X0155136Y0136578D02*
X0148929Y0136578D01*
X0148267Y0134979D02*
X0155099Y0134979D01*
X0155698Y0133381D02*
X0146356Y0133381D01*
X0145909Y0131782D02*
X0157712Y0131782D01*
X0160849Y0131782D02*
X0213504Y0131782D01*
X0213507Y0130184D02*
X0148119Y0130184D01*
X0148852Y0128585D02*
X0213509Y0128585D01*
X0213512Y0126987D02*
X0148937Y0126987D01*
X0148452Y0125388D02*
X0213515Y0125388D01*
X0213518Y0123790D02*
X0149192Y0123790D01*
X0148511Y0124471D02*
X0148511Y0124471D01*
X0150791Y0122191D02*
X0213521Y0122191D01*
X0213524Y0120593D02*
X0152389Y0120593D01*
X0153825Y0118994D02*
X0213527Y0118994D01*
X0213529Y0117396D02*
X0154137Y0117396D01*
X0154137Y0115797D02*
X0196804Y0115797D01*
X0196282Y0115581D02*
X0195106Y0114405D01*
X0194469Y0112868D01*
X0194469Y0111205D01*
X0195106Y0109668D01*
X0196282Y0108492D01*
X0197819Y0107855D01*
X0199482Y0107855D01*
X0201019Y0108492D01*
X0202195Y0109668D01*
X0202831Y0111205D01*
X0202831Y0112868D01*
X0202195Y0114405D01*
X0201019Y0115581D01*
X0199482Y0116217D01*
X0197819Y0116217D01*
X0196282Y0115581D01*
X0195021Y0114199D02*
X0154137Y0114199D01*
X0154137Y0112600D02*
X0194469Y0112600D01*
X0194553Y0111002D02*
X0154137Y0111002D01*
X0154137Y0109403D02*
X0195370Y0109403D01*
X0197819Y0104406D02*
X0196282Y0103770D01*
X0195106Y0102594D01*
X0194469Y0101057D01*
X0194469Y0099394D01*
X0195106Y0097857D01*
X0196282Y0096681D01*
X0197819Y0096044D01*
X0199482Y0096044D01*
X0201019Y0096681D01*
X0202195Y0097857D01*
X0202831Y0099394D01*
X0202831Y0101057D01*
X0202195Y0102594D01*
X0201019Y0103770D01*
X0199482Y0104406D01*
X0197819Y0104406D01*
X0195521Y0103009D02*
X0186031Y0103009D01*
X0186447Y0102594D02*
X0185271Y0103770D01*
X0183734Y0104406D01*
X0182071Y0104406D01*
X0180534Y0103770D01*
X0179358Y0102594D01*
X0178721Y0101057D01*
X0178721Y0099394D01*
X0179358Y0097857D01*
X0180534Y0096681D01*
X0182071Y0096044D01*
X0183734Y0096044D01*
X0185271Y0096681D01*
X0186447Y0097857D01*
X0187083Y0099394D01*
X0187083Y0101057D01*
X0186447Y0102594D01*
X0186937Y0101411D02*
X0194616Y0101411D01*
X0194469Y0099812D02*
X0187083Y0099812D01*
X0186595Y0098214D02*
X0194958Y0098214D01*
X0196440Y0096615D02*
X0185112Y0096615D01*
X0183734Y0092595D02*
X0182071Y0092595D01*
X0180534Y0091959D01*
X0179358Y0090783D01*
X0178721Y0089246D01*
X0178721Y0087582D01*
X0179358Y0086046D01*
X0180534Y0084870D01*
X0182071Y0084233D01*
X0183734Y0084233D01*
X0185271Y0084870D01*
X0186447Y0086046D01*
X0187083Y0087582D01*
X0187083Y0089246D01*
X0186447Y0090783D01*
X0185271Y0091959D01*
X0183734Y0092595D01*
X0185410Y0091820D02*
X0196143Y0091820D01*
X0196282Y0091959D02*
X0195106Y0090783D01*
X0194469Y0089246D01*
X0194469Y0087582D01*
X0195106Y0086046D01*
X0196282Y0084870D01*
X0197819Y0084233D01*
X0199482Y0084233D01*
X0201019Y0084870D01*
X0202195Y0086046D01*
X0202831Y0087582D01*
X0202831Y0089246D01*
X0202195Y0090783D01*
X0201019Y0091959D01*
X0199482Y0092595D01*
X0197819Y0092595D01*
X0196282Y0091959D01*
X0194873Y0090221D02*
X0186680Y0090221D01*
X0187083Y0088623D02*
X0194469Y0088623D01*
X0194701Y0087024D02*
X0186852Y0087024D01*
X0185827Y0085425D02*
X0195726Y0085425D01*
X0197819Y0080784D02*
X0196282Y0080148D01*
X0195106Y0078972D01*
X0194469Y0077435D01*
X0194469Y0075771D01*
X0195106Y0074235D01*
X0196282Y0073059D01*
X0197819Y0072422D01*
X0199482Y0072422D01*
X0201019Y0073059D01*
X0202195Y0074235D01*
X0202831Y0075771D01*
X0202831Y0077435D01*
X0202195Y0078972D01*
X0201019Y0080148D01*
X0199482Y0080784D01*
X0197819Y0080784D01*
X0197446Y0080630D02*
X0184107Y0080630D01*
X0183734Y0080784D02*
X0185271Y0080148D01*
X0186447Y0078972D01*
X0187083Y0077435D01*
X0187083Y0075771D01*
X0186447Y0074235D01*
X0185271Y0073059D01*
X0183734Y0072422D01*
X0182071Y0072422D01*
X0180534Y0073059D01*
X0179358Y0074235D01*
X0178721Y0075771D01*
X0178721Y0077435D01*
X0179358Y0078972D01*
X0180534Y0080148D01*
X0182071Y0080784D01*
X0183734Y0080784D01*
X0181698Y0080630D02*
X0168358Y0080630D01*
X0167986Y0080784D02*
X0169523Y0080148D01*
X0170699Y0078972D01*
X0171335Y0077435D01*
X0171335Y0075771D01*
X0170699Y0074235D01*
X0169523Y0073059D01*
X0167986Y0072422D01*
X0166323Y0072422D01*
X0164786Y0073059D01*
X0163610Y0074235D01*
X0162973Y0075771D01*
X0162973Y0077435D01*
X0163610Y0078972D01*
X0164786Y0080148D01*
X0166323Y0080784D01*
X0167986Y0080784D01*
X0165950Y0080630D02*
X0154137Y0080630D01*
X0154137Y0082228D02*
X0213592Y0082228D01*
X0213595Y0080630D02*
X0199855Y0080630D01*
X0202135Y0079031D02*
X0213598Y0079031D01*
X0213601Y0077433D02*
X0202831Y0077433D01*
X0202831Y0075834D02*
X0213604Y0075834D01*
X0213606Y0074236D02*
X0202195Y0074236D01*
X0200002Y0072637D02*
X0213609Y0072637D01*
X0213612Y0071039D02*
X0148951Y0071039D01*
X0148465Y0069440D02*
X0213615Y0069440D01*
X0213618Y0067842D02*
X0201514Y0067842D01*
X0201019Y0068337D02*
X0199482Y0068973D01*
X0197819Y0068973D01*
X0196282Y0068337D01*
X0195106Y0067161D01*
X0194469Y0065624D01*
X0194469Y0063960D01*
X0195106Y0062424D01*
X0196282Y0061248D01*
X0197819Y0060611D01*
X0199482Y0060611D01*
X0201019Y0061248D01*
X0202195Y0062424D01*
X0202831Y0063960D01*
X0202831Y0065624D01*
X0202195Y0067161D01*
X0201019Y0068337D01*
X0202575Y0066243D02*
X0213621Y0066243D01*
X0213624Y0064645D02*
X0202831Y0064645D01*
X0202453Y0063046D02*
X0213626Y0063046D01*
X0213629Y0061448D02*
X0201219Y0061448D01*
X0196082Y0061448D02*
X0185471Y0061448D01*
X0185271Y0061248D02*
X0186447Y0062424D01*
X0187083Y0063960D01*
X0187083Y0065624D01*
X0186447Y0067161D01*
X0185271Y0068337D01*
X0183734Y0068973D01*
X0182071Y0068973D01*
X0180534Y0068337D01*
X0179358Y0067161D01*
X0178721Y0065624D01*
X0178721Y0063960D01*
X0179358Y0062424D01*
X0180534Y0061248D01*
X0182071Y0060611D01*
X0183734Y0060611D01*
X0185271Y0061248D01*
X0186705Y0063046D02*
X0194848Y0063046D01*
X0194469Y0064645D02*
X0187083Y0064645D01*
X0186827Y0066243D02*
X0194726Y0066243D01*
X0195787Y0067842D02*
X0185766Y0067842D01*
X0184254Y0072637D02*
X0197299Y0072637D01*
X0195105Y0074236D02*
X0186447Y0074236D01*
X0187083Y0075834D02*
X0194469Y0075834D01*
X0194469Y0077433D02*
X0187083Y0077433D01*
X0186387Y0079031D02*
X0195166Y0079031D01*
X0201575Y0085425D02*
X0213587Y0085425D01*
X0213589Y0083827D02*
X0154137Y0083827D01*
X0154137Y0085425D02*
X0164230Y0085425D01*
X0164786Y0084870D02*
X0166323Y0084233D01*
X0167986Y0084233D01*
X0169523Y0084870D01*
X0170699Y0086046D01*
X0171335Y0087582D01*
X0171335Y0089246D01*
X0170699Y0090783D01*
X0169523Y0091959D01*
X0167986Y0092595D01*
X0166323Y0092595D01*
X0164786Y0091959D01*
X0163610Y0090783D01*
X0162973Y0089246D01*
X0162973Y0087582D01*
X0163610Y0086046D01*
X0164786Y0084870D01*
X0163205Y0087024D02*
X0154137Y0087024D01*
X0154137Y0088623D02*
X0162973Y0088623D01*
X0163377Y0090221D02*
X0154137Y0090221D01*
X0154137Y0091820D02*
X0164647Y0091820D01*
X0169662Y0091820D02*
X0180395Y0091820D01*
X0179125Y0090221D02*
X0170931Y0090221D01*
X0171335Y0088623D02*
X0178721Y0088623D01*
X0178953Y0087024D02*
X0171104Y0087024D01*
X0170079Y0085425D02*
X0179978Y0085425D01*
X0179418Y0079031D02*
X0170639Y0079031D01*
X0171335Y0077433D02*
X0178721Y0077433D01*
X0178721Y0075834D02*
X0171335Y0075834D01*
X0170699Y0074236D02*
X0179357Y0074236D01*
X0181551Y0072637D02*
X0168506Y0072637D01*
X0167986Y0068973D02*
X0166323Y0068973D01*
X0164786Y0068337D01*
X0163610Y0067161D01*
X0162973Y0065624D01*
X0162973Y0063960D01*
X0163610Y0062424D01*
X0164786Y0061248D01*
X0166323Y0060611D01*
X0167986Y0060611D01*
X0169523Y0061248D01*
X0170699Y0062424D01*
X0171335Y0063960D01*
X0171335Y0065624D01*
X0170699Y0067161D01*
X0169523Y0068337D01*
X0167986Y0068973D01*
X0170018Y0067842D02*
X0180039Y0067842D01*
X0178978Y0066243D02*
X0171079Y0066243D01*
X0171335Y0064645D02*
X0178721Y0064645D01*
X0179100Y0063046D02*
X0170957Y0063046D01*
X0169723Y0061448D02*
X0180334Y0061448D01*
X0164586Y0061448D02*
X0127127Y0061448D01*
X0127267Y0061390D02*
X0125585Y0062087D01*
X0123763Y0062087D01*
X0122081Y0061390D01*
X0120793Y0060102D01*
X0120096Y0058419D01*
X0120096Y0056598D01*
X0120793Y0054915D01*
X0122081Y0053628D01*
X0123763Y0052931D01*
X0125585Y0052931D01*
X0127267Y0053628D01*
X0128555Y0054915D01*
X0129252Y0056598D01*
X0129252Y0058419D01*
X0128555Y0060102D01*
X0127267Y0061390D01*
X0126244Y0063046D02*
X0142884Y0063046D01*
X0140631Y0064645D02*
X0128442Y0064645D01*
X0128555Y0064758D02*
X0129252Y0066441D01*
X0129252Y0068262D01*
X0128555Y0069944D01*
X0127267Y0071232D01*
X0125585Y0071929D01*
X0123763Y0071929D01*
X0122081Y0071232D01*
X0120793Y0069944D01*
X0120096Y0068262D01*
X0120096Y0066441D01*
X0120793Y0064758D01*
X0122081Y0063470D01*
X0123763Y0062773D01*
X0125585Y0062773D01*
X0127267Y0063470D01*
X0128555Y0064758D01*
X0129170Y0066243D02*
X0139879Y0066243D01*
X0139781Y0067842D02*
X0129252Y0067842D01*
X0128764Y0069440D02*
X0140253Y0069440D01*
X0141533Y0071039D02*
X0127460Y0071039D01*
X0126953Y0076359D02*
X0125416Y0076996D01*
X0124240Y0078172D01*
X0123603Y0079708D01*
X0123603Y0081372D01*
X0124240Y0082909D01*
X0125416Y0084085D01*
X0126953Y0084721D01*
X0128616Y0084721D01*
X0130153Y0084085D01*
X0131329Y0082909D01*
X0131965Y0081372D01*
X0131965Y0079708D01*
X0131329Y0078172D01*
X0130153Y0076996D01*
X0128616Y0076359D01*
X0126953Y0076359D01*
X0124978Y0077433D02*
X0118779Y0077433D01*
X0118342Y0076996D02*
X0119518Y0078172D01*
X0120154Y0079708D01*
X0120154Y0081372D01*
X0119518Y0082909D01*
X0118342Y0084085D01*
X0116805Y0084721D01*
X0115142Y0084721D01*
X0113605Y0084085D01*
X0112429Y0082909D01*
X0111792Y0081372D01*
X0111792Y0079708D01*
X0112429Y0078172D01*
X0113605Y0076996D01*
X0115142Y0076359D01*
X0116805Y0076359D01*
X0118342Y0076996D01*
X0119874Y0079031D02*
X0123884Y0079031D01*
X0123603Y0080630D02*
X0120154Y0080630D01*
X0119799Y0082228D02*
X0123958Y0082228D01*
X0125158Y0083827D02*
X0118599Y0083827D01*
X0113347Y0083827D02*
X0106788Y0083827D01*
X0106531Y0084085D02*
X0104994Y0084721D01*
X0103331Y0084721D01*
X0101794Y0084085D01*
X0100618Y0082909D01*
X0099981Y0081372D01*
X0099981Y0079708D01*
X0100618Y0078172D01*
X0101794Y0076996D01*
X0103331Y0076359D01*
X0104994Y0076359D01*
X0106531Y0076996D01*
X0107707Y0078172D01*
X0108343Y0079708D01*
X0108343Y0081372D01*
X0107707Y0082909D01*
X0106531Y0084085D01*
X0107988Y0082228D02*
X0112147Y0082228D01*
X0111792Y0080630D02*
X0108343Y0080630D01*
X0108063Y0079031D02*
X0112073Y0079031D01*
X0113167Y0077433D02*
X0106968Y0077433D01*
X0105900Y0071929D02*
X0104078Y0071929D01*
X0102396Y0071232D01*
X0101108Y0069944D01*
X0100411Y0068262D01*
X0100411Y0066441D01*
X0101108Y0064758D01*
X0102396Y0063470D01*
X0104078Y0062773D01*
X0105900Y0062773D01*
X0107582Y0063470D01*
X0108870Y0064758D01*
X0109567Y0066441D01*
X0109567Y0068262D01*
X0108870Y0069944D01*
X0107582Y0071232D01*
X0105900Y0071929D01*
X0107775Y0071039D02*
X0112045Y0071039D01*
X0112238Y0071232D02*
X0110950Y0069944D01*
X0110254Y0068262D01*
X0110254Y0066441D01*
X0110950Y0064758D01*
X0112238Y0063470D01*
X0113921Y0062773D01*
X0115742Y0062773D01*
X0117425Y0063470D01*
X0118712Y0064758D01*
X0119409Y0066441D01*
X0119409Y0068262D01*
X0118712Y0069944D01*
X0117425Y0071232D01*
X0115742Y0071929D01*
X0113921Y0071929D01*
X0112238Y0071232D01*
X0110742Y0069440D02*
X0109079Y0069440D01*
X0109567Y0067842D02*
X0110254Y0067842D01*
X0110335Y0066243D02*
X0109485Y0066243D01*
X0108757Y0064645D02*
X0111064Y0064645D01*
X0113262Y0063046D02*
X0106559Y0063046D01*
X0105900Y0062087D02*
X0104078Y0062087D01*
X0102396Y0061390D01*
X0101108Y0060102D01*
X0100411Y0058419D01*
X0100411Y0056598D01*
X0101108Y0054915D01*
X0102396Y0053628D01*
X0104078Y0052931D01*
X0105900Y0052931D01*
X0107582Y0053628D01*
X0108870Y0054915D01*
X0109567Y0056598D01*
X0109567Y0058419D01*
X0108870Y0060102D01*
X0107582Y0061390D01*
X0105900Y0062087D01*
X0107442Y0061448D02*
X0112379Y0061448D01*
X0112238Y0061390D02*
X0110950Y0060102D01*
X0110254Y0058419D01*
X0110254Y0056598D01*
X0110950Y0054915D01*
X0112238Y0053628D01*
X0113921Y0052931D01*
X0115742Y0052931D01*
X0117425Y0053628D01*
X0118712Y0054915D01*
X0119409Y0056598D01*
X0119409Y0058419D01*
X0118712Y0060102D01*
X0117425Y0061390D01*
X0115742Y0062087D01*
X0113921Y0062087D01*
X0112238Y0061390D01*
X0110846Y0059849D02*
X0108975Y0059849D01*
X0109567Y0058251D02*
X0110254Y0058251D01*
X0110254Y0056652D02*
X0109567Y0056652D01*
X0108927Y0055054D02*
X0110893Y0055054D01*
X0112654Y0053455D02*
X0107166Y0053455D01*
X0102812Y0053455D02*
X0053225Y0053455D01*
X0053225Y0053813D02*
X0052589Y0055349D01*
X0051412Y0056526D01*
X0049876Y0057162D01*
X0048212Y0057162D01*
X0046676Y0056526D01*
X0045500Y0055349D01*
X0044863Y0053813D01*
X0044863Y0052149D01*
X0045500Y0050613D01*
X0046676Y0049437D01*
X0048212Y0048800D01*
X0049876Y0048800D01*
X0051412Y0049437D01*
X0052589Y0050613D01*
X0053225Y0052149D01*
X0053225Y0053813D01*
X0052711Y0055054D02*
X0101051Y0055054D01*
X0100411Y0056652D02*
X0051107Y0056652D01*
X0046981Y0056652D02*
X0035359Y0056652D01*
X0035664Y0056526D02*
X0034128Y0057162D01*
X0032464Y0057162D01*
X0030928Y0056526D01*
X0029751Y0055349D01*
X0029115Y0053813D01*
X0029115Y0052149D01*
X0029751Y0050613D01*
X0030928Y0049437D01*
X0032464Y0048800D01*
X0034128Y0048800D01*
X0035664Y0049437D01*
X0036841Y0050613D01*
X0037477Y0052149D01*
X0037477Y0053813D01*
X0036841Y0055349D01*
X0035664Y0056526D01*
X0036963Y0055054D02*
X0045377Y0055054D01*
X0044863Y0053455D02*
X0037477Y0053455D01*
X0037356Y0051857D02*
X0044984Y0051857D01*
X0045854Y0050258D02*
X0036486Y0050258D01*
X0030106Y0050258D02*
X0010454Y0050258D01*
X0010457Y0048660D02*
X0213652Y0048660D01*
X0213649Y0050258D02*
X0052234Y0050258D01*
X0053104Y0051857D02*
X0213646Y0051857D01*
X0213644Y0053455D02*
X0126851Y0053455D01*
X0128612Y0055054D02*
X0213641Y0055054D01*
X0213638Y0056652D02*
X0129252Y0056652D01*
X0129252Y0058251D02*
X0213635Y0058251D01*
X0213632Y0059849D02*
X0128660Y0059849D01*
X0123104Y0063046D02*
X0116401Y0063046D01*
X0117284Y0061448D02*
X0122221Y0061448D01*
X0120688Y0059849D02*
X0118817Y0059849D01*
X0119409Y0058251D02*
X0120096Y0058251D01*
X0120096Y0056652D02*
X0119409Y0056652D01*
X0118770Y0055054D02*
X0120736Y0055054D01*
X0122497Y0053455D02*
X0117008Y0053455D01*
X0118599Y0064645D02*
X0120906Y0064645D01*
X0120178Y0066243D02*
X0119328Y0066243D01*
X0119409Y0067842D02*
X0120096Y0067842D01*
X0120584Y0069440D02*
X0118921Y0069440D01*
X0117618Y0071039D02*
X0121888Y0071039D01*
X0130590Y0077433D02*
X0139820Y0077433D01*
X0140088Y0075834D02*
X0089614Y0075834D01*
X0089882Y0076480D02*
X0089185Y0074797D01*
X0087897Y0073510D01*
X0086215Y0072813D01*
X0084393Y0072813D01*
X0082711Y0073510D01*
X0081423Y0074797D01*
X0080726Y0076480D01*
X0080726Y0078301D01*
X0081423Y0079984D01*
X0082711Y0081272D01*
X0084393Y0081968D01*
X0086215Y0081968D01*
X0087897Y0081272D01*
X0089185Y0079984D01*
X0089882Y0078301D01*
X0089882Y0076480D01*
X0089882Y0077433D02*
X0101356Y0077433D01*
X0100262Y0079031D02*
X0089579Y0079031D01*
X0088539Y0080630D02*
X0099981Y0080630D01*
X0100336Y0082228D02*
X0068386Y0082228D01*
X0068337Y0082109D02*
X0068973Y0083645D01*
X0068973Y0085309D01*
X0068337Y0086846D01*
X0067161Y0088022D01*
X0065624Y0088658D01*
X0063960Y0088658D01*
X0062424Y0088022D01*
X0061248Y0086846D01*
X0060611Y0085309D01*
X0060611Y0083645D01*
X0061248Y0082109D01*
X0062424Y0080933D01*
X0063960Y0080296D01*
X0065624Y0080296D01*
X0067161Y0080933D01*
X0068337Y0082109D01*
X0068973Y0083827D02*
X0082472Y0083827D01*
X0082750Y0083549D02*
X0084433Y0082852D01*
X0086254Y0082852D01*
X0087937Y0083549D01*
X0089224Y0084837D01*
X0089921Y0086519D01*
X0089921Y0088341D01*
X0089224Y0090023D01*
X0087937Y0091311D01*
X0086254Y0092008D01*
X0084433Y0092008D01*
X0082750Y0091311D01*
X0081462Y0090023D01*
X0080765Y0088341D01*
X0080765Y0086519D01*
X0081462Y0084837D01*
X0082750Y0083549D01*
X0081218Y0085425D02*
X0068925Y0085425D01*
X0068158Y0087024D02*
X0080765Y0087024D01*
X0080882Y0088623D02*
X0065710Y0088623D01*
X0063874Y0088623D02*
X0049962Y0088623D01*
X0049876Y0088658D02*
X0048212Y0088658D01*
X0046676Y0088022D01*
X0045500Y0086846D01*
X0044863Y0085309D01*
X0044863Y0083645D01*
X0045500Y0082109D01*
X0046676Y0080933D01*
X0048212Y0080296D01*
X0049876Y0080296D01*
X0051412Y0080933D01*
X0052589Y0082109D01*
X0053225Y0083645D01*
X0053225Y0085309D01*
X0052589Y0086846D01*
X0051412Y0088022D01*
X0049876Y0088658D01*
X0048126Y0088623D02*
X0034214Y0088623D01*
X0034128Y0088658D02*
X0032464Y0088658D01*
X0030928Y0088022D01*
X0029751Y0086846D01*
X0029115Y0085309D01*
X0029115Y0083645D01*
X0029751Y0082109D01*
X0030928Y0080933D01*
X0032464Y0080296D01*
X0034128Y0080296D01*
X0035664Y0080933D01*
X0036841Y0082109D01*
X0037477Y0083645D01*
X0037477Y0085309D01*
X0036841Y0086846D01*
X0035664Y0088022D01*
X0034128Y0088658D01*
X0032378Y0088623D02*
X0018466Y0088623D01*
X0018380Y0088658D02*
X0016716Y0088658D01*
X0015180Y0088022D01*
X0014003Y0086846D01*
X0013367Y0085309D01*
X0013367Y0083645D01*
X0014003Y0082109D01*
X0015180Y0080933D01*
X0016716Y0080296D01*
X0018380Y0080296D01*
X0019916Y0080933D01*
X0021093Y0082109D01*
X0021729Y0083645D01*
X0021729Y0085309D01*
X0021093Y0086846D01*
X0019916Y0088022D01*
X0018380Y0088658D01*
X0016630Y0088623D02*
X0010386Y0088623D01*
X0010383Y0090221D02*
X0081660Y0090221D01*
X0083978Y0091820D02*
X0010380Y0091820D01*
X0010377Y0093418D02*
X0083122Y0093418D01*
X0081365Y0095017D02*
X0010374Y0095017D01*
X0010371Y0096615D02*
X0080726Y0096615D01*
X0080726Y0098214D02*
X0010368Y0098214D01*
X0010366Y0099812D02*
X0081319Y0099812D01*
X0080452Y0101411D02*
X0010363Y0101411D01*
X0010360Y0103009D02*
X0078853Y0103009D01*
X0077255Y0104608D02*
X0010357Y0104608D01*
X0010354Y0106206D02*
X0075656Y0106206D01*
X0074058Y0107805D02*
X0010351Y0107805D01*
X0010348Y0109403D02*
X0072459Y0109403D01*
X0070861Y0111002D02*
X0061573Y0111002D01*
X0060961Y0110390D02*
X0062305Y0111733D01*
X0063031Y0113488D01*
X0063031Y0115388D01*
X0062305Y0117142D01*
X0060961Y0118486D01*
X0059206Y0119213D01*
X0057307Y0119213D01*
X0055552Y0118486D01*
X0054209Y0117142D01*
X0053482Y0115388D01*
X0053482Y0113488D01*
X0054209Y0111733D01*
X0055552Y0110390D01*
X0057307Y0109663D01*
X0059206Y0109663D01*
X0060961Y0110390D01*
X0062664Y0112600D02*
X0069262Y0112600D01*
X0067664Y0114199D02*
X0063031Y0114199D01*
X0062862Y0115797D02*
X0066065Y0115797D01*
X0064467Y0117396D02*
X0062051Y0117396D01*
X0062868Y0118994D02*
X0059734Y0118994D01*
X0060077Y0120593D02*
X0061270Y0120593D01*
X0058296Y0120593D02*
X0058296Y0120593D01*
X0058296Y0122191D02*
X0058296Y0122191D01*
X0058296Y0123790D02*
X0058296Y0123790D01*
X0058296Y0124595D02*
X0053921Y0124595D01*
X0058296Y0124595D01*
X0058296Y0124595D01*
X0058296Y0128970D01*
X0058296Y0124595D01*
X0058296Y0124595D01*
X0058296Y0125388D02*
X0058296Y0125388D01*
X0058296Y0126987D02*
X0058296Y0126987D01*
X0058296Y0128585D02*
X0058296Y0128585D01*
X0056491Y0128585D02*
X0050941Y0128585D01*
X0052356Y0126987D02*
X0054626Y0126987D01*
X0053992Y0125388D02*
X0052953Y0125388D01*
X0052953Y0123790D02*
X0053994Y0123790D01*
X0054635Y0122191D02*
X0052350Y0122191D01*
X0050928Y0120593D02*
X0056515Y0120593D01*
X0056780Y0118994D02*
X0049560Y0118994D01*
X0049128Y0119173D02*
X0050883Y0118446D01*
X0052226Y0117103D01*
X0052953Y0115348D01*
X0052953Y0113449D01*
X0052226Y0111694D01*
X0050883Y0110351D01*
X0049128Y0109624D01*
X0047228Y0109624D01*
X0045473Y0110351D01*
X0044130Y0111694D01*
X0043403Y0113449D01*
X0043403Y0115348D01*
X0044130Y0117103D01*
X0045473Y0118446D01*
X0047228Y0119173D01*
X0049128Y0119173D01*
X0046796Y0118994D02*
X0039757Y0118994D01*
X0039325Y0119173D02*
X0037425Y0119173D01*
X0035670Y0118446D01*
X0034327Y0117103D01*
X0033600Y0115348D01*
X0033600Y0113449D01*
X0034327Y0111694D01*
X0035670Y0110351D01*
X0037425Y0109624D01*
X0039325Y0109624D01*
X0041080Y0110351D01*
X0042423Y0111694D01*
X0043150Y0113449D01*
X0043150Y0115348D01*
X0042423Y0117103D01*
X0041080Y0118446D01*
X0039325Y0119173D01*
X0036993Y0118994D02*
X0029143Y0118994D01*
X0028616Y0119213D02*
X0030371Y0118486D01*
X0031714Y0117142D01*
X0032441Y0115388D01*
X0032441Y0113488D01*
X0031714Y0111733D01*
X0030371Y0110390D01*
X0028616Y0109663D01*
X0026716Y0109663D01*
X0024961Y0110390D01*
X0023618Y0111733D01*
X0022891Y0113488D01*
X0022891Y0115388D01*
X0023618Y0117142D01*
X0024961Y0118486D01*
X0026716Y0119213D01*
X0028616Y0119213D01*
X0028616Y0119781D02*
X0030371Y0120508D01*
X0031714Y0121851D01*
X0032441Y0123606D01*
X0032441Y0125506D01*
X0031714Y0127261D01*
X0030371Y0128604D01*
X0028616Y0129331D01*
X0026716Y0129331D01*
X0024961Y0128604D01*
X0023618Y0127261D01*
X0022891Y0125506D01*
X0022891Y0123606D01*
X0023618Y0121851D01*
X0024961Y0120508D01*
X0026716Y0119781D01*
X0028616Y0119781D01*
X0030456Y0120593D02*
X0035585Y0120593D01*
X0034209Y0122191D02*
X0031855Y0122191D01*
X0032441Y0123790D02*
X0033639Y0123790D01*
X0033639Y0125388D02*
X0032441Y0125388D01*
X0032775Y0126987D02*
X0031827Y0126987D01*
X0031177Y0128585D02*
X0030389Y0128585D01*
X0029578Y0130184D02*
X0010311Y0130184D01*
X0010308Y0131782D02*
X0028029Y0131782D01*
X0027637Y0133381D02*
X0010306Y0133381D01*
X0010303Y0134979D02*
X0027637Y0134979D01*
X0027637Y0136578D02*
X0010300Y0136578D01*
X0010297Y0138176D02*
X0027637Y0138176D01*
X0027637Y0139775D02*
X0010294Y0139775D01*
X0010291Y0141373D02*
X0027637Y0141373D01*
X0027637Y0142972D02*
X0010289Y0142972D01*
X0010286Y0144570D02*
X0027637Y0144570D01*
X0027637Y0146169D02*
X0010283Y0146169D01*
X0010280Y0147767D02*
X0027637Y0147767D01*
X0027637Y0149366D02*
X0010277Y0149366D01*
X0010274Y0150964D02*
X0027637Y0150964D01*
X0027637Y0152563D02*
X0010271Y0152563D01*
X0010269Y0154161D02*
X0027637Y0154161D01*
X0027637Y0155760D02*
X0010266Y0155760D01*
X0010263Y0157359D02*
X0027637Y0157359D01*
X0027637Y0158957D02*
X0010260Y0158957D01*
X0010257Y0160556D02*
X0027637Y0160556D01*
X0027637Y0162154D02*
X0010254Y0162154D01*
X0010251Y0163753D02*
X0027637Y0163753D01*
X0027637Y0165351D02*
X0010249Y0165351D01*
X0010246Y0166950D02*
X0027637Y0166950D01*
X0027637Y0168548D02*
X0010243Y0168548D01*
X0010240Y0170147D02*
X0027637Y0170147D01*
X0028537Y0171745D02*
X0010237Y0171745D01*
X0010234Y0173344D02*
X0030136Y0173344D01*
X0031734Y0174942D02*
X0010231Y0174942D01*
X0010229Y0176541D02*
X0033333Y0176541D01*
X0034931Y0178139D02*
X0010226Y0178139D01*
X0010223Y0179738D02*
X0036530Y0179738D01*
X0038128Y0181336D02*
X0029800Y0181336D01*
X0028919Y0180827D02*
X0031450Y0182288D01*
X0033516Y0184355D01*
X0034977Y0186886D01*
X0035734Y0189709D01*
X0035734Y0192631D01*
X0034977Y0195454D01*
X0033516Y0197985D01*
X0031450Y0200052D01*
X0028919Y0201513D01*
X0026096Y0202269D01*
X0023173Y0202269D01*
X0020351Y0201513D01*
X0017820Y0200052D01*
X0015753Y0197985D01*
X0014292Y0195454D01*
X0013535Y0192631D01*
X0013535Y0189709D01*
X0014292Y0186886D01*
X0015753Y0184355D01*
X0017820Y0182288D01*
X0020351Y0180827D01*
X0023173Y0180071D01*
X0026096Y0180071D01*
X0028919Y0180827D01*
X0032096Y0182935D02*
X0052727Y0182935D01*
X0054325Y0184533D02*
X0033619Y0184533D01*
X0034542Y0186132D02*
X0055924Y0186132D01*
X0057522Y0187730D02*
X0035204Y0187730D01*
X0035632Y0189329D02*
X0059121Y0189329D01*
X0060719Y0190927D02*
X0035734Y0190927D01*
X0035734Y0192526D02*
X0062318Y0192526D01*
X0063916Y0194124D02*
X0035334Y0194124D01*
X0034822Y0195723D02*
X0065515Y0195723D01*
X0067113Y0197321D02*
X0058557Y0197321D01*
X0060679Y0198920D02*
X0068712Y0198920D01*
X0070310Y0200518D02*
X0062102Y0200518D01*
X0063025Y0202117D02*
X0071909Y0202117D01*
X0073508Y0203715D02*
X0063614Y0203715D01*
X0064042Y0205314D02*
X0075106Y0205314D01*
X0076705Y0206912D02*
X0064080Y0206912D01*
X0064045Y0208511D02*
X0078377Y0208511D01*
X0080726Y0210109D02*
X0063617Y0210109D01*
X0075033Y0197321D02*
X0080765Y0197321D01*
X0080765Y0197986D02*
X0080765Y0196165D01*
X0081462Y0194482D01*
X0082750Y0193195D01*
X0084433Y0192498D01*
X0086254Y0192498D01*
X0087937Y0193195D01*
X0089224Y0194482D01*
X0089921Y0196165D01*
X0089921Y0197986D01*
X0089224Y0199669D01*
X0087937Y0200957D01*
X0086254Y0201654D01*
X0084433Y0201654D01*
X0082750Y0200957D01*
X0081462Y0199669D01*
X0080765Y0197986D01*
X0081152Y0198920D02*
X0076632Y0198920D01*
X0078230Y0200518D02*
X0082312Y0200518D01*
X0079829Y0202117D02*
X0143086Y0202117D01*
X0141284Y0203715D02*
X0089771Y0203715D01*
X0089882Y0205314D02*
X0140150Y0205314D01*
X0139781Y0206912D02*
X0089882Y0206912D01*
X0089882Y0208511D02*
X0139982Y0208511D01*
X0140879Y0210109D02*
X0089882Y0210109D01*
X0088375Y0200518D02*
X0140737Y0200518D01*
X0139946Y0198920D02*
X0089535Y0198920D01*
X0089921Y0197321D02*
X0139820Y0197321D01*
X0140265Y0195723D02*
X0089738Y0195723D01*
X0088866Y0194124D02*
X0141505Y0194124D01*
X0141146Y0190927D02*
X0088045Y0190927D01*
X0087897Y0191075D02*
X0086215Y0191772D01*
X0084393Y0191772D01*
X0082711Y0191075D01*
X0081423Y0189787D01*
X0080726Y0188104D01*
X0080726Y0186283D01*
X0081423Y0184600D01*
X0082711Y0183313D01*
X0084393Y0182616D01*
X0086215Y0182616D01*
X0087897Y0183313D01*
X0089185Y0184600D01*
X0089882Y0186283D01*
X0089882Y0188104D01*
X0089185Y0189787D01*
X0087897Y0191075D01*
X0086322Y0192526D02*
X0213395Y0192526D01*
X0213421Y0178139D02*
X0148937Y0178139D01*
X0148937Y0178577D02*
X0148240Y0180259D01*
X0146952Y0181547D01*
X0145270Y0182244D01*
X0143448Y0182244D01*
X0141766Y0181547D01*
X0140478Y0180259D01*
X0139781Y0178577D01*
X0139781Y0176756D01*
X0140478Y0175073D01*
X0141766Y0173785D01*
X0143448Y0173088D01*
X0145270Y0173088D01*
X0146952Y0173785D01*
X0148240Y0175073D01*
X0148937Y0176756D01*
X0148937Y0178577D01*
X0148456Y0179738D02*
X0156532Y0179738D01*
X0156912Y0179358D02*
X0155736Y0180534D01*
X0155099Y0182071D01*
X0155099Y0183734D01*
X0155736Y0185271D01*
X0156912Y0186447D01*
X0158449Y0187083D01*
X0160112Y0187083D01*
X0161649Y0186447D01*
X0162825Y0185271D01*
X0163461Y0183734D01*
X0163461Y0182071D01*
X0162825Y0180534D01*
X0161649Y0179358D01*
X0160112Y0178721D01*
X0158449Y0178721D01*
X0156912Y0179358D01*
X0155403Y0181336D02*
X0147163Y0181336D01*
X0147700Y0184533D02*
X0155430Y0184533D01*
X0155099Y0182935D02*
X0086985Y0182935D01*
X0088029Y0181336D02*
X0141555Y0181336D01*
X0140262Y0179738D02*
X0089368Y0179738D01*
X0089882Y0178139D02*
X0139781Y0178139D01*
X0139870Y0176541D02*
X0089825Y0176541D01*
X0089133Y0174942D02*
X0140609Y0174942D01*
X0142832Y0173344D02*
X0090538Y0173344D01*
X0092137Y0171745D02*
X0142283Y0171745D01*
X0140471Y0170147D02*
X0093735Y0170147D01*
X0095334Y0168548D02*
X0139820Y0168548D01*
X0139820Y0166950D02*
X0096932Y0166950D01*
X0098531Y0165351D02*
X0140402Y0165351D01*
X0141884Y0163753D02*
X0100129Y0163753D01*
X0101728Y0162154D02*
X0143365Y0162154D01*
X0148976Y0168548D02*
X0155911Y0168548D01*
X0155146Y0170147D02*
X0148326Y0170147D01*
X0146514Y0171745D02*
X0155099Y0171745D01*
X0155688Y0173344D02*
X0145886Y0173344D01*
X0148109Y0174942D02*
X0157651Y0174942D01*
X0160909Y0174942D02*
X0169462Y0174942D01*
X0167499Y0173344D02*
X0162873Y0173344D01*
X0163461Y0171745D02*
X0166910Y0171745D01*
X0166957Y0170147D02*
X0163415Y0170147D01*
X0162650Y0168548D02*
X0167722Y0168548D01*
X0170260Y0163461D02*
X0168723Y0162825D01*
X0167547Y0161649D01*
X0166910Y0160112D01*
X0166910Y0158449D01*
X0167547Y0156912D01*
X0168723Y0155736D01*
X0170260Y0155099D01*
X0171923Y0155099D01*
X0173460Y0155736D01*
X0174636Y0156912D01*
X0175272Y0158449D01*
X0175272Y0160112D01*
X0174636Y0161649D01*
X0173460Y0162825D01*
X0171923Y0163461D01*
X0170260Y0163461D01*
X0168052Y0162154D02*
X0162320Y0162154D01*
X0163278Y0160556D02*
X0167094Y0160556D01*
X0166910Y0158957D02*
X0163461Y0158957D01*
X0163010Y0157359D02*
X0167362Y0157359D01*
X0168699Y0155760D02*
X0161673Y0155760D01*
X0161698Y0150964D02*
X0168674Y0150964D01*
X0168723Y0151014D02*
X0167547Y0149838D01*
X0166910Y0148301D01*
X0166910Y0146638D01*
X0167547Y0145101D01*
X0168723Y0143925D01*
X0170260Y0143288D01*
X0171923Y0143288D01*
X0173460Y0143925D01*
X0174636Y0145101D01*
X0175272Y0146638D01*
X0175272Y0148301D01*
X0174636Y0149838D01*
X0173460Y0151014D01*
X0171923Y0151650D01*
X0170260Y0151650D01*
X0168723Y0151014D01*
X0167351Y0149366D02*
X0163020Y0149366D01*
X0163461Y0147767D02*
X0166910Y0147767D01*
X0167104Y0146169D02*
X0163267Y0146169D01*
X0162294Y0144570D02*
X0168077Y0144570D01*
X0174105Y0144570D02*
X0213481Y0144570D01*
X0213484Y0142972D02*
X0145313Y0142972D01*
X0143483Y0142972D02*
X0134258Y0142972D01*
X0134090Y0143140D02*
X0133142Y0143532D01*
X0134090Y0143925D01*
X0135266Y0145101D01*
X0135902Y0146638D01*
X0135902Y0148301D01*
X0135266Y0149838D01*
X0134090Y0151014D01*
X0132553Y0151650D01*
X0130890Y0151650D01*
X0129353Y0151014D01*
X0128177Y0149838D01*
X0127784Y0148890D01*
X0127392Y0149838D01*
X0126216Y0151014D01*
X0124679Y0151650D01*
X0123016Y0151650D01*
X0121479Y0151014D01*
X0120303Y0149838D01*
X0119666Y0148301D01*
X0119666Y0146638D01*
X0120303Y0145101D01*
X0121479Y0143925D01*
X0123016Y0143288D01*
X0124679Y0143288D01*
X0126216Y0143925D01*
X0127392Y0145101D01*
X0127784Y0146048D01*
X0128177Y0145101D01*
X0129353Y0143925D01*
X0130300Y0143532D01*
X0129353Y0143140D01*
X0128177Y0141964D01*
X0127540Y0140427D01*
X0127540Y0138764D01*
X0128177Y0137227D01*
X0129353Y0136051D01*
X0130890Y0135414D01*
X0132553Y0135414D01*
X0134090Y0136051D01*
X0135266Y0137227D01*
X0135902Y0138764D01*
X0135902Y0140427D01*
X0135266Y0141964D01*
X0134090Y0143140D01*
X0134735Y0144570D02*
X0140902Y0144570D01*
X0140015Y0146169D02*
X0135708Y0146169D01*
X0135902Y0147767D02*
X0139820Y0147767D01*
X0140196Y0149366D02*
X0135461Y0149366D01*
X0134139Y0150964D02*
X0141341Y0150964D01*
X0141390Y0154161D02*
X0099320Y0154161D01*
X0100202Y0155760D02*
X0097722Y0155760D01*
X0098604Y0157359D02*
X0096123Y0157359D01*
X0097005Y0158957D02*
X0094525Y0158957D01*
X0095407Y0160556D02*
X0092926Y0160556D01*
X0093808Y0162154D02*
X0091328Y0162154D01*
X0092210Y0163753D02*
X0089729Y0163753D01*
X0089333Y0165351D02*
X0090611Y0165351D01*
X0080782Y0176541D02*
X0076941Y0176541D01*
X0075343Y0178139D02*
X0080726Y0178139D01*
X0081239Y0179738D02*
X0073744Y0179738D01*
X0082579Y0181336D02*
X0059048Y0181336D01*
X0060646Y0182935D02*
X0083623Y0182935D01*
X0081490Y0184533D02*
X0062245Y0184533D01*
X0063843Y0186132D02*
X0080789Y0186132D01*
X0080726Y0187730D02*
X0065442Y0187730D01*
X0067040Y0189329D02*
X0081233Y0189329D01*
X0082563Y0190927D02*
X0068639Y0190927D01*
X0070238Y0192526D02*
X0084365Y0192526D01*
X0081820Y0194124D02*
X0071836Y0194124D01*
X0073435Y0195723D02*
X0080949Y0195723D01*
X0089375Y0189329D02*
X0140139Y0189329D01*
X0139860Y0187730D02*
X0089882Y0187730D01*
X0089819Y0186132D02*
X0140151Y0186132D01*
X0141175Y0184533D02*
X0089118Y0184533D01*
X0068810Y0163753D02*
X0051437Y0163753D01*
X0051437Y0165351D02*
X0067211Y0165351D01*
X0064504Y0166950D02*
X0061576Y0166950D01*
X0062550Y0168548D02*
X0063554Y0168548D01*
X0063285Y0170147D02*
X0062835Y0170147D01*
X0070408Y0162154D02*
X0051437Y0162154D01*
X0051437Y0160556D02*
X0072007Y0160556D01*
X0073605Y0158957D02*
X0051437Y0158957D01*
X0051437Y0157359D02*
X0051710Y0157359D01*
X0051710Y0155760D02*
X0051437Y0155760D01*
X0051437Y0154161D02*
X0051710Y0154161D01*
X0051710Y0152563D02*
X0051437Y0152563D01*
X0051437Y0150964D02*
X0051710Y0150964D01*
X0052116Y0149366D02*
X0052942Y0149366D01*
X0053714Y0147767D02*
X0062695Y0147767D01*
X0064293Y0146169D02*
X0055313Y0146169D01*
X0056911Y0144570D02*
X0065892Y0144570D01*
X0066094Y0142972D02*
X0060885Y0142972D01*
X0062286Y0141373D02*
X0064356Y0141373D01*
X0063779Y0139775D02*
X0062874Y0139775D01*
X0063305Y0138176D02*
X0063814Y0138176D01*
X0065737Y0134979D02*
X0066573Y0134979D01*
X0068099Y0134979D02*
X0068099Y0134979D01*
X0069625Y0134979D02*
X0081438Y0134979D01*
X0080767Y0136578D02*
X0071686Y0136578D01*
X0072385Y0138176D02*
X0080726Y0138176D01*
X0083497Y0133381D02*
X0065737Y0133381D01*
X0065737Y0131782D02*
X0083429Y0131782D01*
X0082671Y0131468D02*
X0084354Y0132165D01*
X0086175Y0132165D01*
X0087858Y0131468D01*
X0089146Y0130181D01*
X0089843Y0128498D01*
X0089843Y0126677D01*
X0089146Y0124994D01*
X0087858Y0123706D01*
X0086175Y0123009D01*
X0084354Y0123009D01*
X0082671Y0123706D01*
X0081384Y0124994D01*
X0080687Y0126677D01*
X0080687Y0128498D01*
X0081384Y0130181D01*
X0082671Y0131468D01*
X0081387Y0130184D02*
X0065737Y0130184D01*
X0065737Y0128585D02*
X0080723Y0128585D01*
X0080687Y0126987D02*
X0065737Y0126987D01*
X0065737Y0125388D02*
X0081220Y0125388D01*
X0082588Y0123790D02*
X0065992Y0123790D01*
X0067591Y0122191D02*
X0103871Y0122191D01*
X0105470Y0120593D02*
X0088694Y0120593D01*
X0089146Y0120141D02*
X0087858Y0121429D01*
X0086175Y0122126D01*
X0084354Y0122126D01*
X0082671Y0121429D01*
X0081384Y0120141D01*
X0080687Y0118459D01*
X0080687Y0116637D01*
X0081384Y0114955D01*
X0082671Y0113667D01*
X0084354Y0112970D01*
X0086175Y0112970D01*
X0087858Y0113667D01*
X0089146Y0114955D01*
X0089843Y0116637D01*
X0089843Y0118459D01*
X0089146Y0120141D01*
X0089621Y0118994D02*
X0093396Y0118994D01*
X0093920Y0119518D02*
X0092744Y0118342D01*
X0092107Y0116805D01*
X0092107Y0115142D01*
X0092744Y0113605D01*
X0093920Y0112429D01*
X0095457Y0111792D01*
X0097120Y0111792D01*
X0098657Y0112429D01*
X0099833Y0113605D01*
X0100469Y0115142D01*
X0100469Y0116805D01*
X0099833Y0118342D01*
X0098657Y0119518D01*
X0097120Y0120154D01*
X0095457Y0120154D01*
X0093920Y0119518D01*
X0092352Y0117396D02*
X0089843Y0117396D01*
X0089494Y0115797D02*
X0092107Y0115797D01*
X0092498Y0114199D02*
X0088389Y0114199D01*
X0088206Y0111002D02*
X0115061Y0111002D01*
X0116659Y0109403D02*
X0089396Y0109403D01*
X0089803Y0107805D02*
X0094156Y0107805D01*
X0093920Y0107707D02*
X0095457Y0108343D01*
X0097120Y0108343D01*
X0098657Y0107707D01*
X0099833Y0106531D01*
X0100469Y0104994D01*
X0100469Y0103331D01*
X0099833Y0101794D01*
X0098657Y0100618D01*
X0097120Y0099981D01*
X0095457Y0099981D01*
X0093920Y0100618D01*
X0092744Y0101794D01*
X0092107Y0103331D01*
X0092107Y0104994D01*
X0092744Y0106531D01*
X0093920Y0107707D01*
X0092609Y0106206D02*
X0089641Y0106206D01*
X0088798Y0104608D02*
X0092107Y0104608D01*
X0092240Y0103009D02*
X0086773Y0103009D01*
X0087809Y0101411D02*
X0093127Y0101411D01*
X0089882Y0098214D02*
X0140259Y0098214D01*
X0140181Y0097390D02*
X0140181Y0097062D01*
X0140284Y0096412D01*
X0140487Y0095787D01*
X0140786Y0095201D01*
X0141172Y0094669D01*
X0141637Y0094204D01*
X0142169Y0093817D01*
X0142755Y0093519D01*
X0143381Y0093315D01*
X0144030Y0093213D01*
X0144359Y0093213D01*
X0144359Y0097390D01*
X0144359Y0097390D01*
X0140181Y0097390D01*
X0140252Y0096615D02*
X0089882Y0096615D01*
X0089243Y0095017D02*
X0140920Y0095017D01*
X0143065Y0093418D02*
X0087486Y0093418D01*
X0086709Y0091820D02*
X0143089Y0091820D01*
X0144359Y0093418D02*
X0144359Y0093418D01*
X0145653Y0093418D02*
X0145937Y0093418D01*
X0145937Y0091820D02*
X0145629Y0091820D01*
X0144359Y0095017D02*
X0144359Y0095017D01*
X0144359Y0096615D02*
X0144359Y0096615D01*
X0144359Y0098214D02*
X0144359Y0098214D01*
X0144359Y0099812D02*
X0144359Y0099812D01*
X0144359Y0101411D02*
X0144359Y0101411D01*
X0143211Y0101411D02*
X0111261Y0101411D01*
X0111644Y0101794D02*
X0112280Y0103331D01*
X0112280Y0104994D01*
X0111644Y0106531D01*
X0110468Y0107707D01*
X0108931Y0108343D01*
X0107268Y0108343D01*
X0105731Y0107707D01*
X0104555Y0106531D01*
X0103918Y0104994D01*
X0103918Y0103331D01*
X0104555Y0101794D01*
X0105731Y0100618D01*
X0107268Y0099981D01*
X0108931Y0099981D01*
X0110468Y0100618D01*
X0111644Y0101794D01*
X0112147Y0103009D02*
X0142974Y0103009D01*
X0140668Y0104608D02*
X0112280Y0104608D01*
X0111778Y0106206D02*
X0119863Y0106206D01*
X0118258Y0107805D02*
X0110231Y0107805D01*
X0105967Y0107805D02*
X0098420Y0107805D01*
X0099967Y0106206D02*
X0104420Y0106206D01*
X0103918Y0104608D02*
X0100469Y0104608D01*
X0100336Y0103009D02*
X0104051Y0103009D01*
X0104938Y0101411D02*
X0099450Y0101411D01*
X0089289Y0099812D02*
X0140954Y0099812D01*
X0145507Y0101411D02*
X0145937Y0101411D01*
X0145937Y0103009D02*
X0145744Y0103009D01*
X0154137Y0103009D02*
X0179773Y0103009D01*
X0178868Y0101411D02*
X0154137Y0101411D01*
X0154137Y0099812D02*
X0178721Y0099812D01*
X0179210Y0098214D02*
X0154137Y0098214D01*
X0154137Y0096615D02*
X0180692Y0096615D01*
X0163670Y0079031D02*
X0154137Y0079031D01*
X0154137Y0077433D02*
X0162973Y0077433D01*
X0162973Y0075834D02*
X0153725Y0075834D01*
X0152148Y0074236D02*
X0163609Y0074236D01*
X0165803Y0072637D02*
X0150549Y0072637D01*
X0148937Y0067842D02*
X0164291Y0067842D01*
X0163230Y0066243D02*
X0148839Y0066243D01*
X0148088Y0064645D02*
X0162973Y0064645D01*
X0163352Y0063046D02*
X0145834Y0063046D01*
X0142630Y0072637D02*
X0066282Y0072637D01*
X0065624Y0072910D02*
X0063960Y0072910D01*
X0062424Y0072274D01*
X0061248Y0071098D01*
X0060611Y0069561D01*
X0060611Y0067897D01*
X0061248Y0066361D01*
X0062424Y0065185D01*
X0063960Y0064548D01*
X0065624Y0064548D01*
X0067161Y0065185D01*
X0068337Y0066361D01*
X0068973Y0067897D01*
X0068973Y0069561D01*
X0068337Y0071098D01*
X0067161Y0072274D01*
X0065624Y0072910D01*
X0063302Y0072637D02*
X0050534Y0072637D01*
X0049876Y0072910D02*
X0048212Y0072910D01*
X0046676Y0072274D01*
X0045500Y0071098D01*
X0044863Y0069561D01*
X0044863Y0067897D01*
X0045500Y0066361D01*
X0046676Y0065185D01*
X0048212Y0064548D01*
X0049876Y0064548D01*
X0051412Y0065185D01*
X0052589Y0066361D01*
X0053225Y0067897D01*
X0053225Y0069561D01*
X0052589Y0071098D01*
X0051412Y0072274D01*
X0049876Y0072910D01*
X0047554Y0072637D02*
X0034786Y0072637D01*
X0034128Y0072910D02*
X0032464Y0072910D01*
X0030928Y0072274D01*
X0029751Y0071098D01*
X0029115Y0069561D01*
X0029115Y0067897D01*
X0029751Y0066361D01*
X0030928Y0065185D01*
X0032464Y0064548D01*
X0034128Y0064548D01*
X0035664Y0065185D01*
X0036841Y0066361D01*
X0037477Y0067897D01*
X0037477Y0069561D01*
X0036841Y0071098D01*
X0035664Y0072274D01*
X0034128Y0072910D01*
X0031806Y0072637D02*
X0019038Y0072637D01*
X0018380Y0072910D02*
X0016716Y0072910D01*
X0015180Y0072274D01*
X0014003Y0071098D01*
X0013367Y0069561D01*
X0013367Y0067897D01*
X0014003Y0066361D01*
X0015180Y0065185D01*
X0016716Y0064548D01*
X0018380Y0064548D01*
X0019916Y0065185D01*
X0021093Y0066361D01*
X0021729Y0067897D01*
X0021729Y0069561D01*
X0021093Y0071098D01*
X0019916Y0072274D01*
X0018380Y0072910D01*
X0016058Y0072637D02*
X0010414Y0072637D01*
X0010417Y0071039D02*
X0013979Y0071039D01*
X0013367Y0069440D02*
X0010420Y0069440D01*
X0010423Y0067842D02*
X0013390Y0067842D01*
X0014121Y0066243D02*
X0010425Y0066243D01*
X0010428Y0064645D02*
X0016483Y0064645D01*
X0018613Y0064645D02*
X0032231Y0064645D01*
X0034361Y0064645D02*
X0047979Y0064645D01*
X0050109Y0064645D02*
X0063727Y0064645D01*
X0065858Y0064645D02*
X0081536Y0064645D01*
X0081423Y0064758D02*
X0082711Y0063470D01*
X0084393Y0062773D01*
X0086215Y0062773D01*
X0087897Y0063470D01*
X0089185Y0064758D01*
X0089882Y0066441D01*
X0089882Y0068262D01*
X0089185Y0069944D01*
X0087897Y0071232D01*
X0086215Y0071929D01*
X0084393Y0071929D01*
X0082711Y0071232D01*
X0081423Y0069944D01*
X0080726Y0068262D01*
X0080726Y0066441D01*
X0081423Y0064758D01*
X0080808Y0066243D02*
X0068219Y0066243D01*
X0068950Y0067842D02*
X0080726Y0067842D01*
X0081214Y0069440D02*
X0068973Y0069440D01*
X0068361Y0071039D02*
X0082517Y0071039D01*
X0081984Y0074236D02*
X0010411Y0074236D01*
X0010408Y0075834D02*
X0080993Y0075834D01*
X0080726Y0077433D02*
X0010406Y0077433D01*
X0010403Y0079031D02*
X0081028Y0079031D01*
X0082069Y0080630D02*
X0066430Y0080630D01*
X0063154Y0080630D02*
X0050682Y0080630D01*
X0052638Y0082228D02*
X0061198Y0082228D01*
X0060611Y0083827D02*
X0053225Y0083827D01*
X0053177Y0085425D02*
X0060659Y0085425D01*
X0061426Y0087024D02*
X0052410Y0087024D01*
X0045678Y0087024D02*
X0036662Y0087024D01*
X0037429Y0085425D02*
X0044911Y0085425D01*
X0044863Y0083827D02*
X0037477Y0083827D01*
X0036890Y0082228D02*
X0045450Y0082228D01*
X0047406Y0080630D02*
X0034934Y0080630D01*
X0031658Y0080630D02*
X0019186Y0080630D01*
X0021142Y0082228D02*
X0029702Y0082228D01*
X0029115Y0083827D02*
X0021729Y0083827D01*
X0021681Y0085425D02*
X0029163Y0085425D01*
X0029930Y0087024D02*
X0020914Y0087024D01*
X0014182Y0087024D02*
X0010388Y0087024D01*
X0010391Y0085425D02*
X0013415Y0085425D01*
X0013367Y0083827D02*
X0010394Y0083827D01*
X0010397Y0082228D02*
X0013954Y0082228D01*
X0015910Y0080630D02*
X0010400Y0080630D01*
X0021117Y0071039D02*
X0029727Y0071039D01*
X0029115Y0069440D02*
X0021729Y0069440D01*
X0021706Y0067842D02*
X0029138Y0067842D01*
X0029869Y0066243D02*
X0020975Y0066243D01*
X0010431Y0063046D02*
X0083734Y0063046D01*
X0086874Y0063046D02*
X0103419Y0063046D01*
X0102536Y0061448D02*
X0010434Y0061448D01*
X0010437Y0059849D02*
X0101003Y0059849D01*
X0100411Y0058251D02*
X0010440Y0058251D01*
X0010443Y0056652D02*
X0031233Y0056652D01*
X0029629Y0055054D02*
X0010445Y0055054D01*
X0010448Y0053455D02*
X0029115Y0053455D01*
X0029236Y0051857D02*
X0010451Y0051857D01*
X0010460Y0047061D02*
X0213655Y0047061D01*
X0213658Y0045463D02*
X0010463Y0045463D01*
X0010465Y0043864D02*
X0156929Y0043864D01*
X0156228Y0043574D02*
X0158055Y0044331D01*
X0160033Y0044331D01*
X0161860Y0043574D01*
X0163259Y0042175D01*
X0164016Y0040348D01*
X0164016Y0038370D01*
X0163259Y0036543D01*
X0161860Y0035144D01*
X0160033Y0034387D01*
X0158055Y0034387D01*
X0156228Y0035144D01*
X0154829Y0036543D01*
X0154072Y0038370D01*
X0154072Y0040348D01*
X0154829Y0042175D01*
X0156228Y0043574D01*
X0154920Y0042266D02*
X0010468Y0042266D01*
X0010471Y0040667D02*
X0154205Y0040667D01*
X0154072Y0039069D02*
X0010474Y0039069D01*
X0010477Y0037470D02*
X0108477Y0037470D01*
X0108933Y0037733D02*
X0106402Y0036272D01*
X0104336Y0034206D01*
X0102875Y0031675D01*
X0102118Y0028852D01*
X0102118Y0025929D01*
X0102875Y0023106D01*
X0104336Y0020575D01*
X0106402Y0018509D01*
X0108933Y0017048D01*
X0111756Y0016291D01*
X0114679Y0016291D01*
X0117501Y0017048D01*
X0120032Y0018509D01*
X0122099Y0020575D01*
X0123560Y0023106D01*
X0124317Y0025929D01*
X0124317Y0028852D01*
X0123560Y0031675D01*
X0122099Y0034206D01*
X0120032Y0036272D01*
X0117501Y0037733D01*
X0114679Y0038490D01*
X0111756Y0038490D01*
X0108933Y0037733D01*
X0106002Y0035872D02*
X0010480Y0035872D01*
X0010483Y0034273D02*
X0104403Y0034273D01*
X0103452Y0032675D02*
X0010485Y0032675D01*
X0010488Y0031076D02*
X0102714Y0031076D01*
X0102286Y0029478D02*
X0010491Y0029478D01*
X0010494Y0027879D02*
X0102118Y0027879D01*
X0102118Y0026281D02*
X0010497Y0026281D01*
X0010500Y0024682D02*
X0102452Y0024682D01*
X0102888Y0023084D02*
X0010503Y0023084D01*
X0010505Y0021485D02*
X0103811Y0021485D01*
X0105025Y0019887D02*
X0010508Y0019887D01*
X0010511Y0018288D02*
X0106785Y0018288D01*
X0110270Y0016690D02*
X0010514Y0016690D01*
X0010517Y0015091D02*
X0213712Y0015091D01*
X0213715Y0013492D02*
X0010520Y0013492D01*
X0010523Y0011894D02*
X0213718Y0011894D01*
X0213721Y0010295D02*
X0010525Y0010295D01*
X0010528Y0008697D02*
X0213723Y0008697D01*
X0213709Y0016690D02*
X0116165Y0016690D01*
X0119650Y0018288D02*
X0213706Y0018288D01*
X0213703Y0019887D02*
X0121410Y0019887D01*
X0122624Y0021485D02*
X0213701Y0021485D01*
X0213698Y0023084D02*
X0123547Y0023084D01*
X0123982Y0024682D02*
X0213695Y0024682D01*
X0213692Y0026281D02*
X0201644Y0026281D01*
X0201392Y0026029D02*
X0201901Y0026538D01*
X0202324Y0027120D01*
X0202651Y0027762D01*
X0202873Y0028446D01*
X0202986Y0029157D01*
X0202986Y0029431D01*
X0198500Y0029431D01*
X0198500Y0029602D01*
X0202986Y0029602D01*
X0202986Y0029876D01*
X0202873Y0030587D01*
X0202651Y0031271D01*
X0202324Y0031913D01*
X0201901Y0032495D01*
X0201392Y0033004D01*
X0200810Y0033427D01*
X0200169Y0033753D01*
X0199485Y0033976D01*
X0198774Y0034088D01*
X0198500Y0034088D01*
X0198500Y0029602D01*
X0198328Y0029602D01*
X0198328Y0029431D01*
X0193843Y0029431D01*
X0193843Y0029157D01*
X0193955Y0028446D01*
X0194177Y0027762D01*
X0194504Y0027120D01*
X0194927Y0026538D01*
X0195436Y0026029D01*
X0196018Y0025607D01*
X0196659Y0025280D01*
X0197344Y0025057D01*
X0198054Y0024945D01*
X0198328Y0024945D01*
X0198328Y0029431D01*
X0198500Y0029431D01*
X0198500Y0024945D01*
X0198774Y0024945D01*
X0199485Y0025057D01*
X0200169Y0025280D01*
X0200810Y0025607D01*
X0201392Y0026029D01*
X0202689Y0027879D02*
X0213689Y0027879D01*
X0213686Y0029478D02*
X0198500Y0029478D01*
X0198328Y0029478D02*
X0159130Y0029478D01*
X0159130Y0029431D02*
X0159130Y0029602D01*
X0163616Y0029602D01*
X0163616Y0029876D01*
X0163503Y0030587D01*
X0163281Y0031271D01*
X0162954Y0031913D01*
X0162531Y0032495D01*
X0162022Y0033004D01*
X0161440Y0033427D01*
X0160799Y0033753D01*
X0160115Y0033976D01*
X0159404Y0034088D01*
X0159130Y0034088D01*
X0159130Y0029602D01*
X0158958Y0029602D01*
X0158958Y0029431D01*
X0154472Y0029431D01*
X0154472Y0029157D01*
X0154585Y0028446D01*
X0154807Y0027762D01*
X0155134Y0027120D01*
X0155557Y0026538D01*
X0156066Y0026029D01*
X0156648Y0025607D01*
X0157289Y0025280D01*
X0157974Y0025057D01*
X0158684Y0024945D01*
X0158958Y0024945D01*
X0158958Y0029431D01*
X0159130Y0029431D01*
X0163616Y0029431D01*
X0163616Y0029157D01*
X0163503Y0028446D01*
X0163281Y0027762D01*
X0162954Y0027120D01*
X0162531Y0026538D01*
X0162022Y0026029D01*
X0161440Y0025607D01*
X0160799Y0025280D01*
X0160115Y0025057D01*
X0159404Y0024945D01*
X0159130Y0024945D01*
X0159130Y0029431D01*
X0158958Y0029478D02*
X0124149Y0029478D01*
X0124317Y0027879D02*
X0154769Y0027879D01*
X0154472Y0029602D02*
X0154472Y0029876D01*
X0154585Y0030587D01*
X0154807Y0031271D01*
X0155134Y0031913D01*
X0155557Y0032495D01*
X0156066Y0033004D01*
X0156648Y0033427D01*
X0157289Y0033753D01*
X0157974Y0033976D01*
X0158684Y0034088D01*
X0158958Y0034088D01*
X0158958Y0029602D01*
X0154472Y0029602D01*
X0154744Y0031076D02*
X0123721Y0031076D01*
X0122983Y0032675D02*
X0155737Y0032675D01*
X0155501Y0035872D02*
X0120433Y0035872D01*
X0122031Y0034273D02*
X0213678Y0034273D01*
X0213681Y0032675D02*
X0201721Y0032675D01*
X0202714Y0031076D02*
X0213684Y0031076D01*
X0213675Y0035872D02*
X0201958Y0035872D01*
X0202629Y0036543D02*
X0203386Y0038370D01*
X0203386Y0040348D01*
X0202629Y0042175D01*
X0201230Y0043574D01*
X0199403Y0044331D01*
X0197425Y0044331D01*
X0195598Y0043574D01*
X0194199Y0042175D01*
X0193443Y0040348D01*
X0193443Y0038370D01*
X0194199Y0036543D01*
X0195598Y0035144D01*
X0197425Y0034387D01*
X0199403Y0034387D01*
X0201230Y0035144D01*
X0202629Y0036543D01*
X0203013Y0037470D02*
X0213672Y0037470D01*
X0213669Y0039069D02*
X0203386Y0039069D01*
X0203254Y0040667D02*
X0213666Y0040667D01*
X0213664Y0042266D02*
X0202538Y0042266D01*
X0200529Y0043864D02*
X0213661Y0043864D01*
X0198328Y0034088D02*
X0198328Y0029602D01*
X0193843Y0029602D01*
X0193843Y0029876D01*
X0193955Y0030587D01*
X0194177Y0031271D01*
X0194504Y0031913D01*
X0194927Y0032495D01*
X0195436Y0033004D01*
X0196018Y0033427D01*
X0196659Y0033753D01*
X0197344Y0033976D01*
X0198054Y0034088D01*
X0198328Y0034088D01*
X0198328Y0032675D02*
X0198500Y0032675D01*
X0198500Y0031076D02*
X0198328Y0031076D01*
X0198328Y0027879D02*
X0198500Y0027879D01*
X0198500Y0026281D02*
X0198328Y0026281D01*
X0195185Y0026281D02*
X0162273Y0026281D01*
X0163319Y0027879D02*
X0194139Y0027879D01*
X0194114Y0031076D02*
X0163344Y0031076D01*
X0162351Y0032675D02*
X0195107Y0032675D01*
X0194871Y0035872D02*
X0162588Y0035872D01*
X0163643Y0037470D02*
X0193815Y0037470D01*
X0193443Y0039069D02*
X0164016Y0039069D01*
X0163884Y0040667D02*
X0193575Y0040667D01*
X0194290Y0042266D02*
X0163168Y0042266D01*
X0161159Y0043864D02*
X0196299Y0043864D01*
X0159130Y0032675D02*
X0158958Y0032675D01*
X0158958Y0031076D02*
X0159130Y0031076D01*
X0159130Y0027879D02*
X0158958Y0027879D01*
X0158958Y0026281D02*
X0159130Y0026281D01*
X0155815Y0026281D02*
X0124317Y0026281D01*
X0117957Y0037470D02*
X0154445Y0037470D01*
X0141079Y0074236D02*
X0088623Y0074236D01*
X0088090Y0071039D02*
X0102202Y0071039D01*
X0100899Y0069440D02*
X0089394Y0069440D01*
X0089882Y0067842D02*
X0100411Y0067842D01*
X0100493Y0066243D02*
X0089800Y0066243D01*
X0089072Y0064645D02*
X0101221Y0064645D01*
X0101536Y0083827D02*
X0088215Y0083827D01*
X0089468Y0085425D02*
X0140218Y0085425D01*
X0139781Y0087024D02*
X0089921Y0087024D01*
X0089804Y0088623D02*
X0139914Y0088623D01*
X0140715Y0090221D02*
X0089026Y0090221D01*
X0081055Y0109403D02*
X0080379Y0109403D01*
X0078780Y0111002D02*
X0082244Y0111002D01*
X0082140Y0114199D02*
X0075583Y0114199D01*
X0073985Y0115797D02*
X0081035Y0115797D01*
X0080687Y0117396D02*
X0072386Y0117396D01*
X0070788Y0118994D02*
X0080908Y0118994D01*
X0081835Y0120593D02*
X0069189Y0120593D01*
X0077182Y0112600D02*
X0093748Y0112600D01*
X0098828Y0112600D02*
X0113462Y0112600D01*
X0111864Y0114199D02*
X0100079Y0114199D01*
X0100469Y0115797D02*
X0110265Y0115797D01*
X0108667Y0117396D02*
X0100225Y0117396D01*
X0099180Y0118994D02*
X0107068Y0118994D01*
X0102272Y0123790D02*
X0087941Y0123790D01*
X0089309Y0125388D02*
X0100674Y0125388D01*
X0099075Y0126987D02*
X0089843Y0126987D01*
X0089806Y0128585D02*
X0097477Y0128585D01*
X0095878Y0130184D02*
X0089142Y0130184D01*
X0087100Y0131782D02*
X0094280Y0131782D01*
X0092681Y0133381D02*
X0087111Y0133381D01*
X0089170Y0134979D02*
X0091083Y0134979D01*
X0080897Y0146169D02*
X0072213Y0146169D01*
X0070614Y0147767D02*
X0080687Y0147767D01*
X0081046Y0149366D02*
X0069016Y0149366D01*
X0067417Y0150964D02*
X0081598Y0150964D01*
X0079999Y0152563D02*
X0065819Y0152563D01*
X0064220Y0154161D02*
X0078401Y0154161D01*
X0076802Y0155760D02*
X0061260Y0155760D01*
X0061260Y0157359D02*
X0075204Y0157359D01*
X0061096Y0149366D02*
X0060028Y0149366D01*
X0053324Y0139775D02*
X0052874Y0139775D01*
X0052874Y0138176D02*
X0053324Y0138176D01*
X0053936Y0136578D02*
X0052262Y0136578D01*
X0050826Y0134979D02*
X0055372Y0134979D01*
X0060137Y0133381D02*
X0046237Y0133381D01*
X0046300Y0131782D02*
X0060137Y0131782D01*
X0060137Y0130184D02*
X0047898Y0130184D01*
X0043175Y0126987D02*
X0042559Y0126987D01*
X0043189Y0125388D02*
X0043403Y0125388D01*
X0043403Y0123790D02*
X0043189Y0123790D01*
X0042619Y0122191D02*
X0044006Y0122191D01*
X0045428Y0120593D02*
X0041243Y0120593D01*
X0042130Y0117396D02*
X0044423Y0117396D01*
X0043589Y0115797D02*
X0042964Y0115797D01*
X0043150Y0114199D02*
X0043403Y0114199D01*
X0043755Y0112600D02*
X0042798Y0112600D01*
X0041731Y0111002D02*
X0044822Y0111002D01*
X0051534Y0111002D02*
X0054940Y0111002D01*
X0053850Y0112600D02*
X0052601Y0112600D01*
X0052953Y0114199D02*
X0053482Y0114199D01*
X0053652Y0115797D02*
X0052767Y0115797D01*
X0051933Y0117396D02*
X0054462Y0117396D01*
X0060102Y0128585D02*
X0060137Y0128585D01*
X0068099Y0136578D02*
X0068099Y0136578D01*
X0068099Y0138176D02*
X0068099Y0138176D01*
X0040637Y0133381D02*
X0034301Y0133381D01*
X0033237Y0134979D02*
X0035435Y0134979D01*
X0033953Y0136578D02*
X0033237Y0136578D01*
X0033237Y0138176D02*
X0033324Y0138176D01*
X0033324Y0139775D02*
X0033237Y0139775D01*
X0033237Y0141373D02*
X0033896Y0141373D01*
X0033237Y0142972D02*
X0035274Y0142972D01*
X0033237Y0144570D02*
X0040637Y0144570D01*
X0040637Y0146169D02*
X0033237Y0146169D01*
X0033237Y0147767D02*
X0040637Y0147767D01*
X0040637Y0149366D02*
X0033237Y0149366D01*
X0036800Y0149709D02*
X0036800Y0154083D01*
X0036800Y0149709D01*
X0036800Y0150964D02*
X0036800Y0150964D01*
X0036800Y0152563D02*
X0036800Y0152563D01*
X0036800Y0154083D02*
X0036800Y0154083D01*
X0036800Y0154084D02*
X0036800Y0158458D01*
X0033988Y0158458D01*
X0033530Y0158336D01*
X0033237Y0158166D01*
X0033237Y0168525D01*
X0033793Y0169081D01*
X0034006Y0168428D01*
X0034318Y0167814D01*
X0034723Y0167257D01*
X0035210Y0166770D01*
X0035767Y0166365D01*
X0036380Y0166053D01*
X0037035Y0165840D01*
X0037716Y0165732D01*
X0038060Y0165732D01*
X0038404Y0165732D01*
X0039084Y0165840D01*
X0039739Y0166053D01*
X0040353Y0166365D01*
X0040637Y0166572D01*
X0040637Y0157942D01*
X0040480Y0158099D01*
X0040070Y0158336D01*
X0039612Y0158458D01*
X0036800Y0158458D01*
X0036800Y0154084D01*
X0036800Y0154084D01*
X0036800Y0154161D02*
X0036800Y0154161D01*
X0036800Y0155760D02*
X0036800Y0155760D01*
X0036800Y0157359D02*
X0036800Y0157359D01*
X0033237Y0158957D02*
X0040637Y0158957D01*
X0040637Y0160556D02*
X0033237Y0160556D01*
X0033237Y0162154D02*
X0040637Y0162154D01*
X0040637Y0163753D02*
X0033237Y0163753D01*
X0033237Y0165351D02*
X0040637Y0165351D01*
X0038060Y0165732D02*
X0038060Y0170107D01*
X0038060Y0170107D01*
X0038060Y0165732D01*
X0038060Y0166950D02*
X0038060Y0166950D01*
X0038060Y0168548D02*
X0038060Y0168548D01*
X0035030Y0166950D02*
X0033237Y0166950D01*
X0033260Y0168548D02*
X0033966Y0168548D01*
X0019469Y0181336D02*
X0010220Y0181336D01*
X0010217Y0182935D02*
X0017173Y0182935D01*
X0015650Y0184533D02*
X0010214Y0184533D01*
X0010211Y0186132D02*
X0014727Y0186132D01*
X0014066Y0187730D02*
X0010209Y0187730D01*
X0010206Y0189329D02*
X0013637Y0189329D01*
X0013535Y0190927D02*
X0010203Y0190927D01*
X0010200Y0192526D02*
X0013535Y0192526D01*
X0013935Y0194124D02*
X0010197Y0194124D01*
X0010194Y0195723D02*
X0014447Y0195723D01*
X0015370Y0197321D02*
X0010191Y0197321D01*
X0010189Y0198920D02*
X0016688Y0198920D01*
X0018628Y0200518D02*
X0010186Y0200518D01*
X0010183Y0202117D02*
X0022604Y0202117D01*
X0026665Y0202117D02*
X0042937Y0202117D01*
X0042349Y0203715D02*
X0010180Y0203715D01*
X0010177Y0205314D02*
X0041920Y0205314D01*
X0041882Y0206912D02*
X0010174Y0206912D01*
X0010172Y0208511D02*
X0041917Y0208511D01*
X0042345Y0210109D02*
X0010169Y0210109D01*
X0010166Y0211708D02*
X0042930Y0211708D01*
X0043853Y0213306D02*
X0010163Y0213306D01*
X0010160Y0214905D02*
X0045271Y0214905D01*
X0047385Y0216503D02*
X0010157Y0216503D01*
X0030641Y0200518D02*
X0043860Y0200518D01*
X0045283Y0198920D02*
X0032582Y0198920D01*
X0033900Y0197321D02*
X0047405Y0197321D01*
X0051655Y0173344D02*
X0054465Y0173344D01*
X0053538Y0171745D02*
X0052582Y0171745D01*
X0052835Y0170147D02*
X0053285Y0170147D01*
X0053570Y0168548D02*
X0052550Y0168548D01*
X0051576Y0166950D02*
X0054544Y0166950D01*
X0040637Y0131782D02*
X0035900Y0131782D01*
X0037498Y0130184D02*
X0040637Y0130184D01*
X0041068Y0128585D02*
X0041577Y0128585D01*
X0034620Y0117396D02*
X0031461Y0117396D01*
X0032271Y0115797D02*
X0033786Y0115797D01*
X0033600Y0114199D02*
X0032441Y0114199D01*
X0032073Y0112600D02*
X0033951Y0112600D01*
X0035019Y0111002D02*
X0030983Y0111002D01*
X0024350Y0111002D02*
X0010346Y0111002D01*
X0010343Y0112600D02*
X0023259Y0112600D01*
X0022891Y0114199D02*
X0010340Y0114199D01*
X0010337Y0115797D02*
X0023061Y0115797D01*
X0023871Y0117396D02*
X0010334Y0117396D01*
X0010331Y0118994D02*
X0026189Y0118994D01*
X0024877Y0120593D02*
X0010328Y0120593D01*
X0010326Y0122191D02*
X0023477Y0122191D01*
X0022891Y0123790D02*
X0010323Y0123790D01*
X0010320Y0125388D02*
X0022891Y0125388D01*
X0023505Y0126987D02*
X0010317Y0126987D01*
X0010314Y0128585D02*
X0024943Y0128585D01*
X0036865Y0071039D02*
X0045475Y0071039D01*
X0044863Y0069440D02*
X0037477Y0069440D01*
X0037454Y0067842D02*
X0044886Y0067842D01*
X0045617Y0066243D02*
X0036723Y0066243D01*
X0052471Y0066243D02*
X0061365Y0066243D01*
X0060634Y0067842D02*
X0053202Y0067842D01*
X0053225Y0069440D02*
X0060611Y0069440D01*
X0061223Y0071039D02*
X0052613Y0071039D01*
X0116904Y0136578D02*
X0128826Y0136578D01*
X0127783Y0138176D02*
X0115305Y0138176D01*
X0113707Y0139775D02*
X0127540Y0139775D01*
X0127932Y0141373D02*
X0112108Y0141373D01*
X0110510Y0142972D02*
X0129185Y0142972D01*
X0128707Y0144570D02*
X0126861Y0144570D01*
X0127587Y0149366D02*
X0127981Y0149366D01*
X0129303Y0150964D02*
X0126265Y0150964D01*
X0121429Y0150964D02*
X0102517Y0150964D01*
X0104116Y0149366D02*
X0120107Y0149366D01*
X0119666Y0147767D02*
X0105714Y0147767D01*
X0107313Y0146169D02*
X0119860Y0146169D01*
X0120833Y0144570D02*
X0108911Y0144570D01*
X0100919Y0152563D02*
X0213467Y0152563D01*
X0213464Y0154161D02*
X0147407Y0154161D01*
X0141750Y0141373D02*
X0135510Y0141373D01*
X0135902Y0139775D02*
X0140343Y0139775D01*
X0139781Y0138176D02*
X0135659Y0138176D01*
X0134617Y0136578D02*
X0139789Y0136578D01*
X0140452Y0134979D02*
X0118502Y0134979D01*
X0120101Y0133381D02*
X0142362Y0133381D01*
X0142809Y0131782D02*
X0121700Y0131782D01*
X0123298Y0130184D02*
X0140599Y0130184D01*
X0139866Y0128585D02*
X0124897Y0128585D01*
X0126495Y0126987D02*
X0139781Y0126987D01*
X0154137Y0107805D02*
X0213547Y0107805D01*
X0213544Y0109403D02*
X0201930Y0109403D01*
X0202747Y0111002D02*
X0213541Y0111002D01*
X0213538Y0112600D02*
X0202831Y0112600D01*
X0202280Y0114199D02*
X0213535Y0114199D01*
X0213532Y0115797D02*
X0200496Y0115797D01*
X0201779Y0103009D02*
X0213555Y0103009D01*
X0213558Y0101411D02*
X0202685Y0101411D01*
X0202831Y0099812D02*
X0213561Y0099812D01*
X0213564Y0098214D02*
X0202343Y0098214D01*
X0200861Y0096615D02*
X0213567Y0096615D01*
X0213569Y0095017D02*
X0154137Y0095017D01*
X0154137Y0093418D02*
X0213572Y0093418D01*
X0213575Y0091820D02*
X0201158Y0091820D01*
X0202428Y0090221D02*
X0213578Y0090221D01*
X0213581Y0088623D02*
X0202831Y0088623D01*
X0202600Y0087024D02*
X0213584Y0087024D01*
X0213552Y0104608D02*
X0154137Y0104608D01*
X0154137Y0106206D02*
X0213549Y0106206D01*
X0213501Y0133381D02*
X0162863Y0133381D01*
X0163461Y0134979D02*
X0213498Y0134979D01*
X0213495Y0136578D02*
X0163425Y0136578D01*
X0162675Y0138176D02*
X0213492Y0138176D01*
X0213478Y0146169D02*
X0175078Y0146169D01*
X0175272Y0147767D02*
X0213475Y0147767D01*
X0213472Y0149366D02*
X0174831Y0149366D01*
X0173509Y0150964D02*
X0213470Y0150964D01*
X0213461Y0155760D02*
X0185295Y0155760D01*
X0185271Y0155736D02*
X0186447Y0156912D01*
X0187083Y0158449D01*
X0187083Y0160112D01*
X0186447Y0161649D01*
X0185271Y0162825D01*
X0183734Y0163461D01*
X0182071Y0163461D01*
X0180534Y0162825D01*
X0179358Y0161649D01*
X0178721Y0160112D01*
X0178721Y0158449D01*
X0179358Y0156912D01*
X0180534Y0155736D01*
X0182071Y0155099D01*
X0183734Y0155099D01*
X0185271Y0155736D01*
X0186632Y0157359D02*
X0213458Y0157359D01*
X0213455Y0158957D02*
X0187083Y0158957D01*
X0186900Y0160556D02*
X0213452Y0160556D01*
X0213450Y0162154D02*
X0185942Y0162154D01*
X0179863Y0162154D02*
X0174131Y0162154D01*
X0175089Y0160556D02*
X0178905Y0160556D01*
X0178721Y0158957D02*
X0175272Y0158957D01*
X0174821Y0157359D02*
X0179173Y0157359D01*
X0180510Y0155760D02*
X0173484Y0155760D01*
X0174461Y0168548D02*
X0179533Y0168548D01*
X0178768Y0170147D02*
X0175226Y0170147D01*
X0175272Y0171745D02*
X0178721Y0171745D01*
X0179310Y0173344D02*
X0174684Y0173344D01*
X0172720Y0174942D02*
X0181273Y0174942D01*
X0184531Y0174942D02*
X0193084Y0174942D01*
X0191121Y0173344D02*
X0186495Y0173344D01*
X0187083Y0171745D02*
X0190532Y0171745D01*
X0190579Y0170147D02*
X0187037Y0170147D01*
X0186272Y0168548D02*
X0191344Y0168548D01*
X0191965Y0179738D02*
X0185651Y0179738D01*
X0185271Y0179358D02*
X0186447Y0180534D01*
X0187083Y0182071D01*
X0187083Y0183734D01*
X0186447Y0185271D01*
X0185271Y0186447D01*
X0183734Y0187083D01*
X0182071Y0187083D01*
X0180534Y0186447D01*
X0179358Y0185271D01*
X0178721Y0183734D01*
X0178721Y0182071D01*
X0179358Y0180534D01*
X0180534Y0179358D01*
X0182071Y0178721D01*
X0183734Y0178721D01*
X0185271Y0179358D01*
X0186779Y0181336D02*
X0190837Y0181336D01*
X0190532Y0182935D02*
X0187083Y0182935D01*
X0186752Y0184533D02*
X0190863Y0184533D01*
X0192030Y0186132D02*
X0185586Y0186132D01*
X0180219Y0186132D02*
X0173775Y0186132D01*
X0173460Y0186447D02*
X0171923Y0187083D01*
X0170260Y0187083D01*
X0168723Y0186447D01*
X0167547Y0185271D01*
X0166910Y0183734D01*
X0166910Y0182071D01*
X0167547Y0180534D01*
X0168723Y0179358D01*
X0170260Y0178721D01*
X0171923Y0178721D01*
X0173460Y0179358D01*
X0174636Y0180534D01*
X0175272Y0182071D01*
X0175272Y0183734D01*
X0174636Y0185271D01*
X0173460Y0186447D01*
X0174941Y0184533D02*
X0179052Y0184533D01*
X0178721Y0182935D02*
X0175272Y0182935D01*
X0174968Y0181336D02*
X0179025Y0181336D01*
X0180154Y0179738D02*
X0173840Y0179738D01*
X0168343Y0179738D02*
X0162029Y0179738D01*
X0163157Y0181336D02*
X0167214Y0181336D01*
X0166910Y0182935D02*
X0163461Y0182935D01*
X0163130Y0184533D02*
X0167241Y0184533D01*
X0168408Y0186132D02*
X0161964Y0186132D01*
X0156597Y0186132D02*
X0148725Y0186132D01*
X0148848Y0176541D02*
X0213424Y0176541D01*
X0196578Y0200518D02*
X0160881Y0200518D01*
X0162808Y0202117D02*
X0194650Y0202117D01*
X0193944Y0203715D02*
X0163515Y0203715D01*
X0163578Y0205314D02*
X0193881Y0205314D01*
X0194404Y0206912D02*
X0163055Y0206912D01*
X0161595Y0208511D02*
X0195863Y0208511D01*
X0196157Y0210109D02*
X0161301Y0210109D01*
X0163227Y0211708D02*
X0194231Y0211708D01*
X0193550Y0213306D02*
X0163908Y0213306D01*
X0164016Y0214905D02*
X0193443Y0214905D01*
X0193840Y0216503D02*
X0163619Y0216503D01*
X0162529Y0218102D02*
X0194929Y0218102D01*
X0155034Y0206912D02*
X0148937Y0206912D01*
X0148568Y0205314D02*
X0154511Y0205314D01*
X0154574Y0203715D02*
X0147434Y0203715D01*
X0145711Y0202117D02*
X0155280Y0202117D01*
X0141448Y0083827D02*
X0130410Y0083827D01*
X0131611Y0082228D02*
X0142197Y0082228D01*
X0141164Y0080630D02*
X0131965Y0080630D01*
X0131685Y0079031D02*
X0140123Y0079031D01*
D17*
X0127784Y0080540D03*
X0115973Y0080540D03*
X0104162Y0080540D03*
X0108099Y0104162D03*
X0096288Y0104162D03*
X0096288Y0115973D03*
X0123847Y0147469D03*
X0131721Y0147469D03*
X0131721Y0139595D03*
X0159280Y0135658D03*
X0159280Y0147469D03*
X0159280Y0159280D03*
X0171091Y0159280D03*
X0171091Y0147469D03*
X0182902Y0159280D03*
X0182902Y0171091D03*
X0171091Y0171091D03*
X0159280Y0171091D03*
X0159280Y0182902D03*
X0171091Y0182902D03*
X0182902Y0182902D03*
X0194713Y0182902D03*
X0194713Y0171091D03*
X0198650Y0112036D03*
X0198650Y0100225D03*
X0198650Y0088414D03*
X0198650Y0076603D03*
X0198650Y0064792D03*
X0182902Y0064792D03*
X0182902Y0076603D03*
X0182902Y0088414D03*
X0182902Y0100225D03*
X0167154Y0088414D03*
X0167154Y0076603D03*
X0167154Y0064792D03*
X0064792Y0068729D03*
X0049044Y0068729D03*
X0049044Y0052981D03*
X0033296Y0052981D03*
X0033296Y0068729D03*
X0017548Y0068729D03*
X0017548Y0084477D03*
X0033296Y0084477D03*
X0049044Y0084477D03*
X0064792Y0084477D03*
M02*
