G75*
%MOIN*%
%OFA0B0*%
%FSLAX25Y25*%
%IPPOS*%
%LPD*%
%AMOC8*
5,1,8,0,0,1.08239X$1,22.5*
%
%ADD10C,0.00000*%
%ADD11R,0.05150X0.05150*%
%ADD12R,0.04756X0.04756*%
%ADD13C,0.04756*%
%ADD14C,0.05150*%
%ADD15C,0.05543*%
%ADD16C,0.01000*%
%ADD17C,0.01600*%
%ADD18R,0.03962X0.03962*%
D10*
X0005737Y0005737D02*
X0005737Y0253769D01*
X0232509Y0253375D01*
X0232509Y0005343D01*
X0005737Y0005737D01*
X0038414Y0167548D02*
X0038416Y0167706D01*
X0038422Y0167864D01*
X0038432Y0168022D01*
X0038446Y0168180D01*
X0038464Y0168337D01*
X0038485Y0168494D01*
X0038511Y0168650D01*
X0038541Y0168806D01*
X0038574Y0168961D01*
X0038612Y0169114D01*
X0038653Y0169267D01*
X0038698Y0169419D01*
X0038747Y0169570D01*
X0038800Y0169719D01*
X0038856Y0169867D01*
X0038916Y0170013D01*
X0038980Y0170158D01*
X0039048Y0170301D01*
X0039119Y0170443D01*
X0039193Y0170583D01*
X0039271Y0170720D01*
X0039353Y0170856D01*
X0039437Y0170990D01*
X0039526Y0171121D01*
X0039617Y0171250D01*
X0039712Y0171377D01*
X0039809Y0171502D01*
X0039910Y0171624D01*
X0040014Y0171743D01*
X0040121Y0171860D01*
X0040231Y0171974D01*
X0040344Y0172085D01*
X0040459Y0172194D01*
X0040577Y0172299D01*
X0040698Y0172401D01*
X0040821Y0172501D01*
X0040947Y0172597D01*
X0041075Y0172690D01*
X0041205Y0172780D01*
X0041338Y0172866D01*
X0041473Y0172950D01*
X0041609Y0173029D01*
X0041748Y0173106D01*
X0041889Y0173178D01*
X0042031Y0173248D01*
X0042175Y0173313D01*
X0042321Y0173375D01*
X0042468Y0173433D01*
X0042617Y0173488D01*
X0042767Y0173539D01*
X0042918Y0173586D01*
X0043070Y0173629D01*
X0043223Y0173668D01*
X0043378Y0173704D01*
X0043533Y0173735D01*
X0043689Y0173763D01*
X0043845Y0173787D01*
X0044002Y0173807D01*
X0044160Y0173823D01*
X0044317Y0173835D01*
X0044476Y0173843D01*
X0044634Y0173847D01*
X0044792Y0173847D01*
X0044950Y0173843D01*
X0045109Y0173835D01*
X0045266Y0173823D01*
X0045424Y0173807D01*
X0045581Y0173787D01*
X0045737Y0173763D01*
X0045893Y0173735D01*
X0046048Y0173704D01*
X0046203Y0173668D01*
X0046356Y0173629D01*
X0046508Y0173586D01*
X0046659Y0173539D01*
X0046809Y0173488D01*
X0046958Y0173433D01*
X0047105Y0173375D01*
X0047251Y0173313D01*
X0047395Y0173248D01*
X0047537Y0173178D01*
X0047678Y0173106D01*
X0047817Y0173029D01*
X0047953Y0172950D01*
X0048088Y0172866D01*
X0048221Y0172780D01*
X0048351Y0172690D01*
X0048479Y0172597D01*
X0048605Y0172501D01*
X0048728Y0172401D01*
X0048849Y0172299D01*
X0048967Y0172194D01*
X0049082Y0172085D01*
X0049195Y0171974D01*
X0049305Y0171860D01*
X0049412Y0171743D01*
X0049516Y0171624D01*
X0049617Y0171502D01*
X0049714Y0171377D01*
X0049809Y0171250D01*
X0049900Y0171121D01*
X0049989Y0170990D01*
X0050073Y0170856D01*
X0050155Y0170720D01*
X0050233Y0170583D01*
X0050307Y0170443D01*
X0050378Y0170301D01*
X0050446Y0170158D01*
X0050510Y0170013D01*
X0050570Y0169867D01*
X0050626Y0169719D01*
X0050679Y0169570D01*
X0050728Y0169419D01*
X0050773Y0169267D01*
X0050814Y0169114D01*
X0050852Y0168961D01*
X0050885Y0168806D01*
X0050915Y0168650D01*
X0050941Y0168494D01*
X0050962Y0168337D01*
X0050980Y0168180D01*
X0050994Y0168022D01*
X0051004Y0167864D01*
X0051010Y0167706D01*
X0051012Y0167548D01*
X0051010Y0167390D01*
X0051004Y0167232D01*
X0050994Y0167074D01*
X0050980Y0166916D01*
X0050962Y0166759D01*
X0050941Y0166602D01*
X0050915Y0166446D01*
X0050885Y0166290D01*
X0050852Y0166135D01*
X0050814Y0165982D01*
X0050773Y0165829D01*
X0050728Y0165677D01*
X0050679Y0165526D01*
X0050626Y0165377D01*
X0050570Y0165229D01*
X0050510Y0165083D01*
X0050446Y0164938D01*
X0050378Y0164795D01*
X0050307Y0164653D01*
X0050233Y0164513D01*
X0050155Y0164376D01*
X0050073Y0164240D01*
X0049989Y0164106D01*
X0049900Y0163975D01*
X0049809Y0163846D01*
X0049714Y0163719D01*
X0049617Y0163594D01*
X0049516Y0163472D01*
X0049412Y0163353D01*
X0049305Y0163236D01*
X0049195Y0163122D01*
X0049082Y0163011D01*
X0048967Y0162902D01*
X0048849Y0162797D01*
X0048728Y0162695D01*
X0048605Y0162595D01*
X0048479Y0162499D01*
X0048351Y0162406D01*
X0048221Y0162316D01*
X0048088Y0162230D01*
X0047953Y0162146D01*
X0047817Y0162067D01*
X0047678Y0161990D01*
X0047537Y0161918D01*
X0047395Y0161848D01*
X0047251Y0161783D01*
X0047105Y0161721D01*
X0046958Y0161663D01*
X0046809Y0161608D01*
X0046659Y0161557D01*
X0046508Y0161510D01*
X0046356Y0161467D01*
X0046203Y0161428D01*
X0046048Y0161392D01*
X0045893Y0161361D01*
X0045737Y0161333D01*
X0045581Y0161309D01*
X0045424Y0161289D01*
X0045266Y0161273D01*
X0045109Y0161261D01*
X0044950Y0161253D01*
X0044792Y0161249D01*
X0044634Y0161249D01*
X0044476Y0161253D01*
X0044317Y0161261D01*
X0044160Y0161273D01*
X0044002Y0161289D01*
X0043845Y0161309D01*
X0043689Y0161333D01*
X0043533Y0161361D01*
X0043378Y0161392D01*
X0043223Y0161428D01*
X0043070Y0161467D01*
X0042918Y0161510D01*
X0042767Y0161557D01*
X0042617Y0161608D01*
X0042468Y0161663D01*
X0042321Y0161721D01*
X0042175Y0161783D01*
X0042031Y0161848D01*
X0041889Y0161918D01*
X0041748Y0161990D01*
X0041609Y0162067D01*
X0041473Y0162146D01*
X0041338Y0162230D01*
X0041205Y0162316D01*
X0041075Y0162406D01*
X0040947Y0162499D01*
X0040821Y0162595D01*
X0040698Y0162695D01*
X0040577Y0162797D01*
X0040459Y0162902D01*
X0040344Y0163011D01*
X0040231Y0163122D01*
X0040121Y0163236D01*
X0040014Y0163353D01*
X0039910Y0163472D01*
X0039809Y0163594D01*
X0039712Y0163719D01*
X0039617Y0163846D01*
X0039526Y0163975D01*
X0039437Y0164106D01*
X0039353Y0164240D01*
X0039271Y0164376D01*
X0039193Y0164513D01*
X0039119Y0164653D01*
X0039048Y0164795D01*
X0038980Y0164938D01*
X0038916Y0165083D01*
X0038856Y0165229D01*
X0038800Y0165377D01*
X0038747Y0165526D01*
X0038698Y0165677D01*
X0038653Y0165829D01*
X0038612Y0165982D01*
X0038574Y0166135D01*
X0038541Y0166290D01*
X0038511Y0166446D01*
X0038485Y0166602D01*
X0038464Y0166759D01*
X0038446Y0166916D01*
X0038432Y0167074D01*
X0038422Y0167232D01*
X0038416Y0167390D01*
X0038414Y0167548D01*
X0078178Y0167154D02*
X0078180Y0167312D01*
X0078186Y0167470D01*
X0078196Y0167628D01*
X0078210Y0167786D01*
X0078228Y0167943D01*
X0078249Y0168100D01*
X0078275Y0168256D01*
X0078305Y0168412D01*
X0078338Y0168567D01*
X0078376Y0168720D01*
X0078417Y0168873D01*
X0078462Y0169025D01*
X0078511Y0169176D01*
X0078564Y0169325D01*
X0078620Y0169473D01*
X0078680Y0169619D01*
X0078744Y0169764D01*
X0078812Y0169907D01*
X0078883Y0170049D01*
X0078957Y0170189D01*
X0079035Y0170326D01*
X0079117Y0170462D01*
X0079201Y0170596D01*
X0079290Y0170727D01*
X0079381Y0170856D01*
X0079476Y0170983D01*
X0079573Y0171108D01*
X0079674Y0171230D01*
X0079778Y0171349D01*
X0079885Y0171466D01*
X0079995Y0171580D01*
X0080108Y0171691D01*
X0080223Y0171800D01*
X0080341Y0171905D01*
X0080462Y0172007D01*
X0080585Y0172107D01*
X0080711Y0172203D01*
X0080839Y0172296D01*
X0080969Y0172386D01*
X0081102Y0172472D01*
X0081237Y0172556D01*
X0081373Y0172635D01*
X0081512Y0172712D01*
X0081653Y0172784D01*
X0081795Y0172854D01*
X0081939Y0172919D01*
X0082085Y0172981D01*
X0082232Y0173039D01*
X0082381Y0173094D01*
X0082531Y0173145D01*
X0082682Y0173192D01*
X0082834Y0173235D01*
X0082987Y0173274D01*
X0083142Y0173310D01*
X0083297Y0173341D01*
X0083453Y0173369D01*
X0083609Y0173393D01*
X0083766Y0173413D01*
X0083924Y0173429D01*
X0084081Y0173441D01*
X0084240Y0173449D01*
X0084398Y0173453D01*
X0084556Y0173453D01*
X0084714Y0173449D01*
X0084873Y0173441D01*
X0085030Y0173429D01*
X0085188Y0173413D01*
X0085345Y0173393D01*
X0085501Y0173369D01*
X0085657Y0173341D01*
X0085812Y0173310D01*
X0085967Y0173274D01*
X0086120Y0173235D01*
X0086272Y0173192D01*
X0086423Y0173145D01*
X0086573Y0173094D01*
X0086722Y0173039D01*
X0086869Y0172981D01*
X0087015Y0172919D01*
X0087159Y0172854D01*
X0087301Y0172784D01*
X0087442Y0172712D01*
X0087581Y0172635D01*
X0087717Y0172556D01*
X0087852Y0172472D01*
X0087985Y0172386D01*
X0088115Y0172296D01*
X0088243Y0172203D01*
X0088369Y0172107D01*
X0088492Y0172007D01*
X0088613Y0171905D01*
X0088731Y0171800D01*
X0088846Y0171691D01*
X0088959Y0171580D01*
X0089069Y0171466D01*
X0089176Y0171349D01*
X0089280Y0171230D01*
X0089381Y0171108D01*
X0089478Y0170983D01*
X0089573Y0170856D01*
X0089664Y0170727D01*
X0089753Y0170596D01*
X0089837Y0170462D01*
X0089919Y0170326D01*
X0089997Y0170189D01*
X0090071Y0170049D01*
X0090142Y0169907D01*
X0090210Y0169764D01*
X0090274Y0169619D01*
X0090334Y0169473D01*
X0090390Y0169325D01*
X0090443Y0169176D01*
X0090492Y0169025D01*
X0090537Y0168873D01*
X0090578Y0168720D01*
X0090616Y0168567D01*
X0090649Y0168412D01*
X0090679Y0168256D01*
X0090705Y0168100D01*
X0090726Y0167943D01*
X0090744Y0167786D01*
X0090758Y0167628D01*
X0090768Y0167470D01*
X0090774Y0167312D01*
X0090776Y0167154D01*
X0090774Y0166996D01*
X0090768Y0166838D01*
X0090758Y0166680D01*
X0090744Y0166522D01*
X0090726Y0166365D01*
X0090705Y0166208D01*
X0090679Y0166052D01*
X0090649Y0165896D01*
X0090616Y0165741D01*
X0090578Y0165588D01*
X0090537Y0165435D01*
X0090492Y0165283D01*
X0090443Y0165132D01*
X0090390Y0164983D01*
X0090334Y0164835D01*
X0090274Y0164689D01*
X0090210Y0164544D01*
X0090142Y0164401D01*
X0090071Y0164259D01*
X0089997Y0164119D01*
X0089919Y0163982D01*
X0089837Y0163846D01*
X0089753Y0163712D01*
X0089664Y0163581D01*
X0089573Y0163452D01*
X0089478Y0163325D01*
X0089381Y0163200D01*
X0089280Y0163078D01*
X0089176Y0162959D01*
X0089069Y0162842D01*
X0088959Y0162728D01*
X0088846Y0162617D01*
X0088731Y0162508D01*
X0088613Y0162403D01*
X0088492Y0162301D01*
X0088369Y0162201D01*
X0088243Y0162105D01*
X0088115Y0162012D01*
X0087985Y0161922D01*
X0087852Y0161836D01*
X0087717Y0161752D01*
X0087581Y0161673D01*
X0087442Y0161596D01*
X0087301Y0161524D01*
X0087159Y0161454D01*
X0087015Y0161389D01*
X0086869Y0161327D01*
X0086722Y0161269D01*
X0086573Y0161214D01*
X0086423Y0161163D01*
X0086272Y0161116D01*
X0086120Y0161073D01*
X0085967Y0161034D01*
X0085812Y0160998D01*
X0085657Y0160967D01*
X0085501Y0160939D01*
X0085345Y0160915D01*
X0085188Y0160895D01*
X0085030Y0160879D01*
X0084873Y0160867D01*
X0084714Y0160859D01*
X0084556Y0160855D01*
X0084398Y0160855D01*
X0084240Y0160859D01*
X0084081Y0160867D01*
X0083924Y0160879D01*
X0083766Y0160895D01*
X0083609Y0160915D01*
X0083453Y0160939D01*
X0083297Y0160967D01*
X0083142Y0160998D01*
X0082987Y0161034D01*
X0082834Y0161073D01*
X0082682Y0161116D01*
X0082531Y0161163D01*
X0082381Y0161214D01*
X0082232Y0161269D01*
X0082085Y0161327D01*
X0081939Y0161389D01*
X0081795Y0161454D01*
X0081653Y0161524D01*
X0081512Y0161596D01*
X0081373Y0161673D01*
X0081237Y0161752D01*
X0081102Y0161836D01*
X0080969Y0161922D01*
X0080839Y0162012D01*
X0080711Y0162105D01*
X0080585Y0162201D01*
X0080462Y0162301D01*
X0080341Y0162403D01*
X0080223Y0162508D01*
X0080108Y0162617D01*
X0079995Y0162728D01*
X0079885Y0162842D01*
X0079778Y0162959D01*
X0079674Y0163078D01*
X0079573Y0163200D01*
X0079476Y0163325D01*
X0079381Y0163452D01*
X0079290Y0163581D01*
X0079201Y0163712D01*
X0079117Y0163846D01*
X0079035Y0163982D01*
X0078957Y0164119D01*
X0078883Y0164259D01*
X0078812Y0164401D01*
X0078744Y0164544D01*
X0078680Y0164689D01*
X0078620Y0164835D01*
X0078564Y0164983D01*
X0078511Y0165132D01*
X0078462Y0165283D01*
X0078417Y0165435D01*
X0078376Y0165588D01*
X0078338Y0165741D01*
X0078305Y0165896D01*
X0078275Y0166052D01*
X0078249Y0166208D01*
X0078228Y0166365D01*
X0078210Y0166522D01*
X0078196Y0166680D01*
X0078186Y0166838D01*
X0078180Y0166996D01*
X0078178Y0167154D01*
X0211643Y0164005D02*
X0211645Y0164163D01*
X0211651Y0164321D01*
X0211661Y0164479D01*
X0211675Y0164637D01*
X0211693Y0164794D01*
X0211714Y0164951D01*
X0211740Y0165107D01*
X0211770Y0165263D01*
X0211803Y0165418D01*
X0211841Y0165571D01*
X0211882Y0165724D01*
X0211927Y0165876D01*
X0211976Y0166027D01*
X0212029Y0166176D01*
X0212085Y0166324D01*
X0212145Y0166470D01*
X0212209Y0166615D01*
X0212277Y0166758D01*
X0212348Y0166900D01*
X0212422Y0167040D01*
X0212500Y0167177D01*
X0212582Y0167313D01*
X0212666Y0167447D01*
X0212755Y0167578D01*
X0212846Y0167707D01*
X0212941Y0167834D01*
X0213038Y0167959D01*
X0213139Y0168081D01*
X0213243Y0168200D01*
X0213350Y0168317D01*
X0213460Y0168431D01*
X0213573Y0168542D01*
X0213688Y0168651D01*
X0213806Y0168756D01*
X0213927Y0168858D01*
X0214050Y0168958D01*
X0214176Y0169054D01*
X0214304Y0169147D01*
X0214434Y0169237D01*
X0214567Y0169323D01*
X0214702Y0169407D01*
X0214838Y0169486D01*
X0214977Y0169563D01*
X0215118Y0169635D01*
X0215260Y0169705D01*
X0215404Y0169770D01*
X0215550Y0169832D01*
X0215697Y0169890D01*
X0215846Y0169945D01*
X0215996Y0169996D01*
X0216147Y0170043D01*
X0216299Y0170086D01*
X0216452Y0170125D01*
X0216607Y0170161D01*
X0216762Y0170192D01*
X0216918Y0170220D01*
X0217074Y0170244D01*
X0217231Y0170264D01*
X0217389Y0170280D01*
X0217546Y0170292D01*
X0217705Y0170300D01*
X0217863Y0170304D01*
X0218021Y0170304D01*
X0218179Y0170300D01*
X0218338Y0170292D01*
X0218495Y0170280D01*
X0218653Y0170264D01*
X0218810Y0170244D01*
X0218966Y0170220D01*
X0219122Y0170192D01*
X0219277Y0170161D01*
X0219432Y0170125D01*
X0219585Y0170086D01*
X0219737Y0170043D01*
X0219888Y0169996D01*
X0220038Y0169945D01*
X0220187Y0169890D01*
X0220334Y0169832D01*
X0220480Y0169770D01*
X0220624Y0169705D01*
X0220766Y0169635D01*
X0220907Y0169563D01*
X0221046Y0169486D01*
X0221182Y0169407D01*
X0221317Y0169323D01*
X0221450Y0169237D01*
X0221580Y0169147D01*
X0221708Y0169054D01*
X0221834Y0168958D01*
X0221957Y0168858D01*
X0222078Y0168756D01*
X0222196Y0168651D01*
X0222311Y0168542D01*
X0222424Y0168431D01*
X0222534Y0168317D01*
X0222641Y0168200D01*
X0222745Y0168081D01*
X0222846Y0167959D01*
X0222943Y0167834D01*
X0223038Y0167707D01*
X0223129Y0167578D01*
X0223218Y0167447D01*
X0223302Y0167313D01*
X0223384Y0167177D01*
X0223462Y0167040D01*
X0223536Y0166900D01*
X0223607Y0166758D01*
X0223675Y0166615D01*
X0223739Y0166470D01*
X0223799Y0166324D01*
X0223855Y0166176D01*
X0223908Y0166027D01*
X0223957Y0165876D01*
X0224002Y0165724D01*
X0224043Y0165571D01*
X0224081Y0165418D01*
X0224114Y0165263D01*
X0224144Y0165107D01*
X0224170Y0164951D01*
X0224191Y0164794D01*
X0224209Y0164637D01*
X0224223Y0164479D01*
X0224233Y0164321D01*
X0224239Y0164163D01*
X0224241Y0164005D01*
X0224239Y0163847D01*
X0224233Y0163689D01*
X0224223Y0163531D01*
X0224209Y0163373D01*
X0224191Y0163216D01*
X0224170Y0163059D01*
X0224144Y0162903D01*
X0224114Y0162747D01*
X0224081Y0162592D01*
X0224043Y0162439D01*
X0224002Y0162286D01*
X0223957Y0162134D01*
X0223908Y0161983D01*
X0223855Y0161834D01*
X0223799Y0161686D01*
X0223739Y0161540D01*
X0223675Y0161395D01*
X0223607Y0161252D01*
X0223536Y0161110D01*
X0223462Y0160970D01*
X0223384Y0160833D01*
X0223302Y0160697D01*
X0223218Y0160563D01*
X0223129Y0160432D01*
X0223038Y0160303D01*
X0222943Y0160176D01*
X0222846Y0160051D01*
X0222745Y0159929D01*
X0222641Y0159810D01*
X0222534Y0159693D01*
X0222424Y0159579D01*
X0222311Y0159468D01*
X0222196Y0159359D01*
X0222078Y0159254D01*
X0221957Y0159152D01*
X0221834Y0159052D01*
X0221708Y0158956D01*
X0221580Y0158863D01*
X0221450Y0158773D01*
X0221317Y0158687D01*
X0221182Y0158603D01*
X0221046Y0158524D01*
X0220907Y0158447D01*
X0220766Y0158375D01*
X0220624Y0158305D01*
X0220480Y0158240D01*
X0220334Y0158178D01*
X0220187Y0158120D01*
X0220038Y0158065D01*
X0219888Y0158014D01*
X0219737Y0157967D01*
X0219585Y0157924D01*
X0219432Y0157885D01*
X0219277Y0157849D01*
X0219122Y0157818D01*
X0218966Y0157790D01*
X0218810Y0157766D01*
X0218653Y0157746D01*
X0218495Y0157730D01*
X0218338Y0157718D01*
X0218179Y0157710D01*
X0218021Y0157706D01*
X0217863Y0157706D01*
X0217705Y0157710D01*
X0217546Y0157718D01*
X0217389Y0157730D01*
X0217231Y0157746D01*
X0217074Y0157766D01*
X0216918Y0157790D01*
X0216762Y0157818D01*
X0216607Y0157849D01*
X0216452Y0157885D01*
X0216299Y0157924D01*
X0216147Y0157967D01*
X0215996Y0158014D01*
X0215846Y0158065D01*
X0215697Y0158120D01*
X0215550Y0158178D01*
X0215404Y0158240D01*
X0215260Y0158305D01*
X0215118Y0158375D01*
X0214977Y0158447D01*
X0214838Y0158524D01*
X0214702Y0158603D01*
X0214567Y0158687D01*
X0214434Y0158773D01*
X0214304Y0158863D01*
X0214176Y0158956D01*
X0214050Y0159052D01*
X0213927Y0159152D01*
X0213806Y0159254D01*
X0213688Y0159359D01*
X0213573Y0159468D01*
X0213460Y0159579D01*
X0213350Y0159693D01*
X0213243Y0159810D01*
X0213139Y0159929D01*
X0213038Y0160051D01*
X0212941Y0160176D01*
X0212846Y0160303D01*
X0212755Y0160432D01*
X0212666Y0160563D01*
X0212582Y0160697D01*
X0212500Y0160833D01*
X0212422Y0160970D01*
X0212348Y0161110D01*
X0212277Y0161252D01*
X0212209Y0161395D01*
X0212145Y0161540D01*
X0212085Y0161686D01*
X0212029Y0161834D01*
X0211976Y0161983D01*
X0211927Y0162134D01*
X0211882Y0162286D01*
X0211841Y0162439D01*
X0211803Y0162592D01*
X0211770Y0162747D01*
X0211740Y0162903D01*
X0211714Y0163059D01*
X0211693Y0163216D01*
X0211675Y0163373D01*
X0211661Y0163531D01*
X0211651Y0163689D01*
X0211645Y0163847D01*
X0211643Y0164005D01*
X0210462Y0035658D02*
X0210464Y0035816D01*
X0210470Y0035974D01*
X0210480Y0036132D01*
X0210494Y0036290D01*
X0210512Y0036447D01*
X0210533Y0036604D01*
X0210559Y0036760D01*
X0210589Y0036916D01*
X0210622Y0037071D01*
X0210660Y0037224D01*
X0210701Y0037377D01*
X0210746Y0037529D01*
X0210795Y0037680D01*
X0210848Y0037829D01*
X0210904Y0037977D01*
X0210964Y0038123D01*
X0211028Y0038268D01*
X0211096Y0038411D01*
X0211167Y0038553D01*
X0211241Y0038693D01*
X0211319Y0038830D01*
X0211401Y0038966D01*
X0211485Y0039100D01*
X0211574Y0039231D01*
X0211665Y0039360D01*
X0211760Y0039487D01*
X0211857Y0039612D01*
X0211958Y0039734D01*
X0212062Y0039853D01*
X0212169Y0039970D01*
X0212279Y0040084D01*
X0212392Y0040195D01*
X0212507Y0040304D01*
X0212625Y0040409D01*
X0212746Y0040511D01*
X0212869Y0040611D01*
X0212995Y0040707D01*
X0213123Y0040800D01*
X0213253Y0040890D01*
X0213386Y0040976D01*
X0213521Y0041060D01*
X0213657Y0041139D01*
X0213796Y0041216D01*
X0213937Y0041288D01*
X0214079Y0041358D01*
X0214223Y0041423D01*
X0214369Y0041485D01*
X0214516Y0041543D01*
X0214665Y0041598D01*
X0214815Y0041649D01*
X0214966Y0041696D01*
X0215118Y0041739D01*
X0215271Y0041778D01*
X0215426Y0041814D01*
X0215581Y0041845D01*
X0215737Y0041873D01*
X0215893Y0041897D01*
X0216050Y0041917D01*
X0216208Y0041933D01*
X0216365Y0041945D01*
X0216524Y0041953D01*
X0216682Y0041957D01*
X0216840Y0041957D01*
X0216998Y0041953D01*
X0217157Y0041945D01*
X0217314Y0041933D01*
X0217472Y0041917D01*
X0217629Y0041897D01*
X0217785Y0041873D01*
X0217941Y0041845D01*
X0218096Y0041814D01*
X0218251Y0041778D01*
X0218404Y0041739D01*
X0218556Y0041696D01*
X0218707Y0041649D01*
X0218857Y0041598D01*
X0219006Y0041543D01*
X0219153Y0041485D01*
X0219299Y0041423D01*
X0219443Y0041358D01*
X0219585Y0041288D01*
X0219726Y0041216D01*
X0219865Y0041139D01*
X0220001Y0041060D01*
X0220136Y0040976D01*
X0220269Y0040890D01*
X0220399Y0040800D01*
X0220527Y0040707D01*
X0220653Y0040611D01*
X0220776Y0040511D01*
X0220897Y0040409D01*
X0221015Y0040304D01*
X0221130Y0040195D01*
X0221243Y0040084D01*
X0221353Y0039970D01*
X0221460Y0039853D01*
X0221564Y0039734D01*
X0221665Y0039612D01*
X0221762Y0039487D01*
X0221857Y0039360D01*
X0221948Y0039231D01*
X0222037Y0039100D01*
X0222121Y0038966D01*
X0222203Y0038830D01*
X0222281Y0038693D01*
X0222355Y0038553D01*
X0222426Y0038411D01*
X0222494Y0038268D01*
X0222558Y0038123D01*
X0222618Y0037977D01*
X0222674Y0037829D01*
X0222727Y0037680D01*
X0222776Y0037529D01*
X0222821Y0037377D01*
X0222862Y0037224D01*
X0222900Y0037071D01*
X0222933Y0036916D01*
X0222963Y0036760D01*
X0222989Y0036604D01*
X0223010Y0036447D01*
X0223028Y0036290D01*
X0223042Y0036132D01*
X0223052Y0035974D01*
X0223058Y0035816D01*
X0223060Y0035658D01*
X0223058Y0035500D01*
X0223052Y0035342D01*
X0223042Y0035184D01*
X0223028Y0035026D01*
X0223010Y0034869D01*
X0222989Y0034712D01*
X0222963Y0034556D01*
X0222933Y0034400D01*
X0222900Y0034245D01*
X0222862Y0034092D01*
X0222821Y0033939D01*
X0222776Y0033787D01*
X0222727Y0033636D01*
X0222674Y0033487D01*
X0222618Y0033339D01*
X0222558Y0033193D01*
X0222494Y0033048D01*
X0222426Y0032905D01*
X0222355Y0032763D01*
X0222281Y0032623D01*
X0222203Y0032486D01*
X0222121Y0032350D01*
X0222037Y0032216D01*
X0221948Y0032085D01*
X0221857Y0031956D01*
X0221762Y0031829D01*
X0221665Y0031704D01*
X0221564Y0031582D01*
X0221460Y0031463D01*
X0221353Y0031346D01*
X0221243Y0031232D01*
X0221130Y0031121D01*
X0221015Y0031012D01*
X0220897Y0030907D01*
X0220776Y0030805D01*
X0220653Y0030705D01*
X0220527Y0030609D01*
X0220399Y0030516D01*
X0220269Y0030426D01*
X0220136Y0030340D01*
X0220001Y0030256D01*
X0219865Y0030177D01*
X0219726Y0030100D01*
X0219585Y0030028D01*
X0219443Y0029958D01*
X0219299Y0029893D01*
X0219153Y0029831D01*
X0219006Y0029773D01*
X0218857Y0029718D01*
X0218707Y0029667D01*
X0218556Y0029620D01*
X0218404Y0029577D01*
X0218251Y0029538D01*
X0218096Y0029502D01*
X0217941Y0029471D01*
X0217785Y0029443D01*
X0217629Y0029419D01*
X0217472Y0029399D01*
X0217314Y0029383D01*
X0217157Y0029371D01*
X0216998Y0029363D01*
X0216840Y0029359D01*
X0216682Y0029359D01*
X0216524Y0029363D01*
X0216365Y0029371D01*
X0216208Y0029383D01*
X0216050Y0029399D01*
X0215893Y0029419D01*
X0215737Y0029443D01*
X0215581Y0029471D01*
X0215426Y0029502D01*
X0215271Y0029538D01*
X0215118Y0029577D01*
X0214966Y0029620D01*
X0214815Y0029667D01*
X0214665Y0029718D01*
X0214516Y0029773D01*
X0214369Y0029831D01*
X0214223Y0029893D01*
X0214079Y0029958D01*
X0213937Y0030028D01*
X0213796Y0030100D01*
X0213657Y0030177D01*
X0213521Y0030256D01*
X0213386Y0030340D01*
X0213253Y0030426D01*
X0213123Y0030516D01*
X0212995Y0030609D01*
X0212869Y0030705D01*
X0212746Y0030805D01*
X0212625Y0030907D01*
X0212507Y0031012D01*
X0212392Y0031121D01*
X0212279Y0031232D01*
X0212169Y0031346D01*
X0212062Y0031463D01*
X0211958Y0031582D01*
X0211857Y0031704D01*
X0211760Y0031829D01*
X0211665Y0031956D01*
X0211574Y0032085D01*
X0211485Y0032216D01*
X0211401Y0032350D01*
X0211319Y0032486D01*
X0211241Y0032623D01*
X0211167Y0032763D01*
X0211096Y0032905D01*
X0211028Y0033048D01*
X0210964Y0033193D01*
X0210904Y0033339D01*
X0210848Y0033487D01*
X0210795Y0033636D01*
X0210746Y0033787D01*
X0210701Y0033939D01*
X0210660Y0034092D01*
X0210622Y0034245D01*
X0210589Y0034400D01*
X0210559Y0034556D01*
X0210533Y0034712D01*
X0210512Y0034869D01*
X0210494Y0035026D01*
X0210480Y0035184D01*
X0210470Y0035342D01*
X0210464Y0035500D01*
X0210462Y0035658D01*
D11*
X0019713Y0105422D03*
X0019713Y0125107D03*
D12*
X0197036Y0025343D03*
D13*
X0196997Y0035383D03*
X0197036Y0045265D03*
X0197036Y0054871D03*
X0197036Y0064871D03*
X0197036Y0074831D03*
X0197076Y0084871D03*
X0197036Y0094871D03*
X0197076Y0104871D03*
X0197076Y0114910D03*
X0197115Y0124950D03*
X0197036Y0134989D03*
X0196997Y0145028D03*
X0197036Y0155068D03*
X0197036Y0165107D03*
X0177351Y0165107D03*
X0167509Y0165107D03*
X0167509Y0174950D03*
X0177351Y0174950D03*
X0157666Y0174950D03*
X0157666Y0165107D03*
X0137981Y0165068D03*
X0137942Y0155068D03*
X0137981Y0145068D03*
X0137981Y0135068D03*
X0137981Y0125068D03*
X0137981Y0115028D03*
X0137981Y0104989D03*
X0137981Y0094950D03*
X0137942Y0084910D03*
X0137942Y0074831D03*
X0137942Y0064792D03*
X0137981Y0054792D03*
X0137902Y0044713D03*
X0137942Y0034753D03*
X0137981Y0025343D03*
D14*
X0124556Y0031406D03*
X0124556Y0041524D03*
X0124477Y0051288D03*
X0114359Y0051328D03*
X0114359Y0041524D03*
X0114398Y0031446D03*
X0114398Y0062036D03*
X0124517Y0062036D03*
X0101091Y0100107D03*
X0101091Y0109989D03*
X0101052Y0119950D03*
X0101052Y0129831D03*
X0101052Y0139792D03*
X0042036Y0140186D03*
X0042076Y0130186D03*
X0041997Y0120186D03*
X0042036Y0110146D03*
X0042036Y0100107D03*
D15*
X0031564Y0193335D03*
X0021721Y0193335D03*
X0021721Y0232706D03*
X0031564Y0232706D03*
X0196918Y0232706D03*
X0206761Y0232706D03*
X0206761Y0193335D03*
X0196918Y0193335D03*
D16*
X0197137Y0193837D01*
X0197137Y0232337D01*
X0196918Y0232706D01*
X0206761Y0232706D02*
X0207037Y0232337D01*
X0207037Y0193837D01*
X0206761Y0193335D01*
X0197137Y0192737D02*
X0196918Y0193335D01*
X0197137Y0192737D02*
X0197137Y0165237D01*
X0197036Y0165107D01*
X0196037Y0164137D01*
X0192737Y0160837D01*
X0115737Y0160837D01*
X0095937Y0141037D01*
X0042037Y0141037D01*
X0042036Y0140186D01*
X0046437Y0134437D02*
X0043137Y0131137D01*
X0042076Y0130186D01*
X0046437Y0134437D02*
X0102537Y0134437D01*
X0122337Y0154237D01*
X0137737Y0154237D01*
X0137942Y0155068D01*
X0124517Y0062036D02*
X0124537Y0061837D01*
X0136637Y0049737D01*
X0138837Y0049737D01*
X0142137Y0046437D01*
X0142137Y0032137D01*
X0138837Y0028837D01*
X0138837Y0025537D01*
X0137981Y0025343D01*
X0137942Y0034753D02*
X0137737Y0035437D01*
X0126737Y0046437D01*
X0119037Y0046437D01*
X0114637Y0050837D01*
X0114359Y0051328D01*
X0113537Y0035437D02*
X0043137Y0105837D01*
X0039837Y0105837D01*
X0024437Y0121237D01*
X0024437Y0163037D01*
X0022237Y0165237D01*
X0022237Y0192737D01*
X0021721Y0193335D01*
X0022237Y0193837D01*
X0022237Y0232337D01*
X0021721Y0232706D01*
X0031037Y0232337D02*
X0031564Y0232706D01*
X0031037Y0232337D02*
X0031037Y0193837D01*
X0031564Y0193335D01*
X0113537Y0035437D02*
X0113537Y0032137D01*
X0114398Y0031446D01*
D17*
X0116037Y0035719D02*
X0116037Y0035934D01*
X0115656Y0036853D01*
X0115475Y0037035D01*
X0116950Y0037646D01*
X0118237Y0038933D01*
X0118934Y0040614D01*
X0118934Y0042434D01*
X0118264Y0044051D01*
X0118540Y0043937D01*
X0120604Y0043937D01*
X0119981Y0042434D01*
X0119981Y0040614D01*
X0120678Y0038933D01*
X0121964Y0037646D01*
X0123646Y0036950D01*
X0125466Y0036950D01*
X0127147Y0037646D01*
X0128434Y0038933D01*
X0129099Y0040539D01*
X0133696Y0035943D01*
X0133564Y0035624D01*
X0133564Y0033882D01*
X0134230Y0032273D01*
X0135462Y0031041D01*
X0136907Y0030443D01*
X0136718Y0030253D01*
X0136370Y0029415D01*
X0135501Y0029055D01*
X0134270Y0027823D01*
X0133603Y0026214D01*
X0133603Y0024472D01*
X0134270Y0022863D01*
X0135501Y0021632D01*
X0137110Y0020965D01*
X0138852Y0020965D01*
X0140461Y0021632D01*
X0141693Y0022863D01*
X0142359Y0024472D01*
X0142359Y0026214D01*
X0141693Y0027823D01*
X0141526Y0027990D01*
X0143553Y0030018D01*
X0144256Y0030721D01*
X0144637Y0031640D01*
X0144637Y0046934D01*
X0144256Y0047853D01*
X0140956Y0051153D01*
X0140745Y0051365D01*
X0141693Y0052312D01*
X0142359Y0053921D01*
X0142359Y0055663D01*
X0141693Y0057272D01*
X0140461Y0058504D01*
X0138852Y0059170D01*
X0137110Y0059170D01*
X0135501Y0058504D01*
X0134270Y0057272D01*
X0133792Y0056118D01*
X0129001Y0060908D01*
X0129091Y0061126D01*
X0129091Y0062946D01*
X0128395Y0064628D01*
X0127108Y0065915D01*
X0125427Y0066611D01*
X0123607Y0066611D01*
X0121925Y0065915D01*
X0120638Y0064628D01*
X0119942Y0062946D01*
X0119942Y0061126D01*
X0120638Y0059445D01*
X0121925Y0058158D01*
X0123607Y0057461D01*
X0125377Y0057461D01*
X0134918Y0047920D01*
X0134191Y0047193D01*
X0133524Y0045584D01*
X0133524Y0043843D01*
X0133989Y0042720D01*
X0128856Y0047853D01*
X0128184Y0048525D01*
X0128355Y0048697D01*
X0129052Y0050378D01*
X0129052Y0052198D01*
X0128355Y0053880D01*
X0127069Y0055167D01*
X0125387Y0055863D01*
X0123567Y0055863D01*
X0121886Y0055167D01*
X0120599Y0053880D01*
X0119902Y0052198D01*
X0119902Y0050378D01*
X0120499Y0048937D01*
X0120073Y0048937D01*
X0118834Y0050176D01*
X0118934Y0050418D01*
X0118934Y0052238D01*
X0118237Y0053919D01*
X0116950Y0055206D01*
X0115269Y0055902D01*
X0113449Y0055902D01*
X0111768Y0055206D01*
X0110481Y0053919D01*
X0109784Y0052238D01*
X0109784Y0050418D01*
X0110481Y0048736D01*
X0111768Y0047449D01*
X0113449Y0046753D01*
X0115186Y0046753D01*
X0116243Y0045696D01*
X0115269Y0046099D01*
X0113449Y0046099D01*
X0111768Y0045403D01*
X0110481Y0044116D01*
X0109869Y0042640D01*
X0045293Y0107216D01*
X0045373Y0107296D01*
X0045778Y0107854D01*
X0046091Y0108467D01*
X0046303Y0109122D01*
X0046411Y0109802D01*
X0046411Y0110146D01*
X0042036Y0110146D01*
X0042036Y0110147D01*
X0042036Y0114521D01*
X0041692Y0114521D01*
X0041012Y0114414D01*
X0040357Y0114201D01*
X0039743Y0113888D01*
X0039186Y0113483D01*
X0038699Y0112996D01*
X0038295Y0112439D01*
X0037982Y0111826D01*
X0037835Y0111374D01*
X0026937Y0122273D01*
X0026937Y0163534D01*
X0026556Y0164453D01*
X0024737Y0166273D01*
X0024737Y0189603D01*
X0025766Y0190633D01*
X0026493Y0192386D01*
X0026493Y0194285D01*
X0025766Y0196038D01*
X0024737Y0197068D01*
X0024737Y0228973D01*
X0025766Y0230003D01*
X0026493Y0231756D01*
X0026493Y0233655D01*
X0025766Y0235408D01*
X0024424Y0236751D01*
X0022670Y0237477D01*
X0020772Y0237477D01*
X0019018Y0236751D01*
X0017676Y0235408D01*
X0016950Y0233655D01*
X0016950Y0231756D01*
X0017676Y0230003D01*
X0019018Y0228660D01*
X0019737Y0228363D01*
X0019737Y0197678D01*
X0019018Y0197381D01*
X0017676Y0196038D01*
X0016950Y0194285D01*
X0016950Y0192386D01*
X0017676Y0190633D01*
X0019018Y0189290D01*
X0019737Y0188993D01*
X0019737Y0164740D01*
X0020118Y0163821D01*
X0020821Y0163118D01*
X0021937Y0162001D01*
X0021937Y0129482D01*
X0019713Y0129482D01*
X0016902Y0129482D01*
X0016444Y0129359D01*
X0016033Y0129122D01*
X0015698Y0128787D01*
X0015461Y0128377D01*
X0015339Y0127919D01*
X0015339Y0125107D01*
X0015339Y0122295D01*
X0015461Y0121837D01*
X0015698Y0121427D01*
X0016033Y0121092D01*
X0016444Y0120855D01*
X0016902Y0120732D01*
X0019713Y0120732D01*
X0019713Y0125107D01*
X0015339Y0125107D01*
X0019713Y0125107D01*
X0019713Y0125107D01*
X0019713Y0125107D01*
X0019713Y0129482D01*
X0019713Y0125107D01*
X0019713Y0125107D01*
X0019713Y0120732D01*
X0021940Y0120732D01*
X0022318Y0119821D01*
X0023021Y0119118D01*
X0038421Y0103718D01*
X0038956Y0103496D01*
X0038158Y0102698D01*
X0037461Y0101017D01*
X0037461Y0099197D01*
X0038158Y0097516D01*
X0039445Y0096229D01*
X0041126Y0095532D01*
X0042946Y0095532D01*
X0044628Y0096229D01*
X0045915Y0097516D01*
X0046503Y0098936D01*
X0110961Y0034478D01*
X0110520Y0034037D01*
X0109824Y0032356D01*
X0109824Y0030536D01*
X0110520Y0028854D01*
X0111807Y0027567D01*
X0113488Y0026871D01*
X0115308Y0026871D01*
X0116990Y0027567D01*
X0118277Y0028854D01*
X0118973Y0030536D01*
X0118973Y0032356D01*
X0118277Y0034037D01*
X0116990Y0035324D01*
X0116037Y0035719D01*
X0115965Y0036109D02*
X0133530Y0036109D01*
X0133564Y0034510D02*
X0127639Y0034510D01*
X0127406Y0034743D02*
X0126849Y0035148D01*
X0126235Y0035461D01*
X0125580Y0035673D01*
X0124900Y0035781D01*
X0124556Y0035781D01*
X0124556Y0031406D01*
X0124556Y0027031D01*
X0124900Y0027031D01*
X0125580Y0027139D01*
X0126235Y0027352D01*
X0126849Y0027665D01*
X0127406Y0028069D01*
X0127893Y0028556D01*
X0128298Y0029113D01*
X0128610Y0029727D01*
X0128823Y0030382D01*
X0128931Y0031062D01*
X0128931Y0031406D01*
X0124556Y0031406D01*
X0124556Y0031406D01*
X0124556Y0031406D01*
X0124556Y0027031D01*
X0124212Y0027031D01*
X0123531Y0027139D01*
X0122877Y0027352D01*
X0122263Y0027665D01*
X0121706Y0028069D01*
X0121219Y0028556D01*
X0120814Y0029113D01*
X0120502Y0029727D01*
X0120289Y0030382D01*
X0120181Y0031062D01*
X0120181Y0031406D01*
X0124556Y0031406D01*
X0124556Y0031406D01*
X0128931Y0031406D01*
X0128931Y0031751D01*
X0128823Y0032431D01*
X0128610Y0033086D01*
X0128298Y0033699D01*
X0127893Y0034256D01*
X0127406Y0034743D01*
X0128667Y0032912D02*
X0133966Y0032912D01*
X0135190Y0031313D02*
X0128931Y0031313D01*
X0128604Y0029715D02*
X0136495Y0029715D01*
X0134563Y0028116D02*
X0127453Y0028116D01*
X0124556Y0028116D02*
X0124556Y0028116D01*
X0124556Y0029715D02*
X0124556Y0029715D01*
X0124556Y0031313D02*
X0124556Y0031313D01*
X0124556Y0031406D02*
X0120181Y0031406D01*
X0120181Y0031751D01*
X0120289Y0032431D01*
X0120502Y0033086D01*
X0120814Y0033699D01*
X0121219Y0034256D01*
X0121706Y0034743D01*
X0122263Y0035148D01*
X0122877Y0035461D01*
X0123531Y0035673D01*
X0124212Y0035781D01*
X0124556Y0035781D01*
X0124556Y0031406D01*
X0124556Y0031406D01*
X0124556Y0032912D02*
X0124556Y0032912D01*
X0124556Y0034510D02*
X0124556Y0034510D01*
X0121473Y0034510D02*
X0117804Y0034510D01*
X0118743Y0032912D02*
X0120445Y0032912D01*
X0120181Y0031313D02*
X0118973Y0031313D01*
X0118633Y0029715D02*
X0120508Y0029715D01*
X0121659Y0028116D02*
X0117539Y0028116D01*
X0111258Y0028116D02*
X0068773Y0028116D01*
X0068773Y0028232D02*
X0067602Y0029403D01*
X0061983Y0029403D01*
X0060811Y0028232D01*
X0060811Y0022613D01*
X0061983Y0021441D01*
X0067602Y0021441D01*
X0068773Y0022613D01*
X0068773Y0028232D01*
X0068773Y0026518D02*
X0133729Y0026518D01*
X0133603Y0024919D02*
X0068773Y0024919D01*
X0068773Y0023321D02*
X0134080Y0023321D01*
X0135411Y0021722D02*
X0067883Y0021722D01*
X0061701Y0021722D02*
X0010537Y0021722D01*
X0010537Y0020124D02*
X0227709Y0020124D01*
X0227709Y0021722D02*
X0200999Y0021722D01*
X0201414Y0022137D02*
X0201414Y0028550D01*
X0200243Y0029721D01*
X0193830Y0029721D01*
X0192658Y0028550D01*
X0192658Y0022137D01*
X0193830Y0020965D01*
X0200243Y0020965D01*
X0201414Y0022137D01*
X0201414Y0023321D02*
X0227709Y0023321D01*
X0227709Y0024919D02*
X0219566Y0024919D01*
X0218222Y0024559D02*
X0221045Y0025315D01*
X0223576Y0026777D01*
X0225642Y0028843D01*
X0227103Y0031374D01*
X0227709Y0033633D01*
X0227709Y0010152D01*
X0010537Y0010529D01*
X0010537Y0248960D01*
X0227709Y0248583D01*
X0227709Y0169286D01*
X0226823Y0170820D01*
X0224757Y0172886D01*
X0222226Y0174348D01*
X0219403Y0175104D01*
X0216480Y0175104D01*
X0213658Y0174348D01*
X0211127Y0172886D01*
X0209060Y0170820D01*
X0207599Y0168289D01*
X0206843Y0165466D01*
X0206843Y0162543D01*
X0207599Y0159721D01*
X0209060Y0157190D01*
X0211127Y0155123D01*
X0213658Y0153662D01*
X0216480Y0152906D01*
X0219403Y0152906D01*
X0222226Y0153662D01*
X0224757Y0155123D01*
X0226823Y0157190D01*
X0227709Y0158723D01*
X0227709Y0037684D01*
X0227103Y0039942D01*
X0225642Y0042473D01*
X0223576Y0044540D01*
X0221045Y0046001D01*
X0218222Y0046757D01*
X0215299Y0046757D01*
X0212476Y0046001D01*
X0209946Y0044540D01*
X0207879Y0042473D01*
X0206418Y0039942D01*
X0205661Y0037120D01*
X0205661Y0034197D01*
X0206418Y0031374D01*
X0207879Y0028843D01*
X0209946Y0026777D01*
X0212476Y0025315D01*
X0215299Y0024559D01*
X0218222Y0024559D01*
X0213956Y0024919D02*
X0201414Y0024919D01*
X0201414Y0026518D02*
X0210394Y0026518D01*
X0208606Y0028116D02*
X0201414Y0028116D01*
X0200249Y0029715D02*
X0207376Y0029715D01*
X0206453Y0031313D02*
X0198612Y0031313D01*
X0197868Y0031005D02*
X0196126Y0031005D01*
X0194517Y0031671D01*
X0193285Y0032903D01*
X0192619Y0034512D01*
X0192619Y0036254D01*
X0193285Y0037863D01*
X0194517Y0039094D01*
X0196126Y0039761D01*
X0197868Y0039761D01*
X0199477Y0039094D01*
X0200708Y0037863D01*
X0201375Y0036254D01*
X0201375Y0034512D01*
X0200708Y0032903D01*
X0199477Y0031671D01*
X0197868Y0031005D01*
X0195381Y0031313D02*
X0144502Y0031313D01*
X0144637Y0032912D02*
X0193282Y0032912D01*
X0192620Y0034510D02*
X0144637Y0034510D01*
X0144637Y0036109D02*
X0192619Y0036109D01*
X0193221Y0037707D02*
X0144637Y0037707D01*
X0144637Y0039306D02*
X0195028Y0039306D01*
X0196123Y0040904D02*
X0144637Y0040904D01*
X0144637Y0042503D02*
X0193607Y0042503D01*
X0193325Y0042785D02*
X0194556Y0041553D01*
X0196165Y0040887D01*
X0197907Y0040887D01*
X0199516Y0041553D01*
X0200748Y0042785D01*
X0201414Y0044394D01*
X0201414Y0046135D01*
X0200748Y0047744D01*
X0199516Y0048976D01*
X0197907Y0049643D01*
X0196165Y0049643D01*
X0194556Y0048976D01*
X0193325Y0047744D01*
X0192658Y0046135D01*
X0192658Y0044394D01*
X0193325Y0042785D01*
X0192779Y0044101D02*
X0144637Y0044101D01*
X0144637Y0045700D02*
X0192658Y0045700D01*
X0193140Y0047298D02*
X0144486Y0047298D01*
X0143213Y0048897D02*
X0194477Y0048897D01*
X0194556Y0051159D02*
X0196165Y0050493D01*
X0197907Y0050493D01*
X0199516Y0051159D01*
X0200748Y0052391D01*
X0201414Y0054000D01*
X0201414Y0055742D01*
X0200748Y0057351D01*
X0199516Y0058582D01*
X0197907Y0059249D01*
X0196165Y0059249D01*
X0194556Y0058582D01*
X0193325Y0057351D01*
X0192658Y0055742D01*
X0192658Y0054000D01*
X0193325Y0052391D01*
X0194556Y0051159D01*
X0193622Y0052094D02*
X0141474Y0052094D01*
X0141614Y0050495D02*
X0196160Y0050495D01*
X0197913Y0050495D02*
X0227709Y0050495D01*
X0227709Y0048897D02*
X0199595Y0048897D01*
X0200932Y0047298D02*
X0227709Y0047298D01*
X0227709Y0045700D02*
X0221567Y0045700D01*
X0224014Y0044101D02*
X0227709Y0044101D01*
X0227709Y0042503D02*
X0225613Y0042503D01*
X0226548Y0040904D02*
X0227709Y0040904D01*
X0227709Y0039306D02*
X0227274Y0039306D01*
X0227702Y0037707D02*
X0227709Y0037707D01*
X0227709Y0032912D02*
X0227515Y0032912D01*
X0227709Y0031313D02*
X0227068Y0031313D01*
X0227709Y0029715D02*
X0226145Y0029715D01*
X0224915Y0028116D02*
X0227709Y0028116D01*
X0227709Y0026518D02*
X0223127Y0026518D01*
X0227709Y0018525D02*
X0010537Y0018525D01*
X0010537Y0016927D02*
X0227709Y0016927D01*
X0227709Y0015328D02*
X0010537Y0015328D01*
X0010537Y0013730D02*
X0227709Y0013730D01*
X0227709Y0012131D02*
X0010537Y0012131D01*
X0010537Y0010533D02*
X0227709Y0010533D01*
X0206006Y0032912D02*
X0200712Y0032912D01*
X0201374Y0034510D02*
X0205661Y0034510D01*
X0205661Y0036109D02*
X0201375Y0036109D01*
X0200773Y0037707D02*
X0205819Y0037707D01*
X0206247Y0039306D02*
X0198966Y0039306D01*
X0197950Y0040904D02*
X0206973Y0040904D01*
X0207908Y0042503D02*
X0200466Y0042503D01*
X0201293Y0044101D02*
X0209507Y0044101D01*
X0211955Y0045700D02*
X0201414Y0045700D01*
X0200451Y0052094D02*
X0227709Y0052094D01*
X0227709Y0053692D02*
X0201287Y0053692D01*
X0201414Y0055291D02*
X0227709Y0055291D01*
X0227709Y0056889D02*
X0200939Y0056889D01*
X0199611Y0058488D02*
X0227709Y0058488D01*
X0227709Y0060086D02*
X0129823Y0060086D01*
X0129091Y0061685D02*
X0134858Y0061685D01*
X0135462Y0061081D02*
X0137071Y0060414D01*
X0138813Y0060414D01*
X0140422Y0061081D01*
X0141653Y0062312D01*
X0142320Y0063921D01*
X0142320Y0065663D01*
X0141653Y0067272D01*
X0140422Y0068504D01*
X0138813Y0069170D01*
X0137071Y0069170D01*
X0135462Y0068504D01*
X0134230Y0067272D01*
X0133564Y0065663D01*
X0133564Y0063921D01*
X0134230Y0062312D01*
X0135462Y0061081D01*
X0135485Y0058488D02*
X0131422Y0058488D01*
X0133020Y0056889D02*
X0134111Y0056889D01*
X0130745Y0052094D02*
X0129052Y0052094D01*
X0129052Y0050495D02*
X0132343Y0050495D01*
X0133942Y0048897D02*
X0128438Y0048897D01*
X0129411Y0047298D02*
X0134296Y0047298D01*
X0133572Y0045700D02*
X0131010Y0045700D01*
X0132608Y0044101D02*
X0133524Y0044101D01*
X0130333Y0039306D02*
X0128589Y0039306D01*
X0127208Y0037707D02*
X0131931Y0037707D01*
X0141652Y0028116D02*
X0192658Y0028116D01*
X0192658Y0026518D02*
X0142233Y0026518D01*
X0142359Y0024919D02*
X0192658Y0024919D01*
X0192658Y0023321D02*
X0141882Y0023321D01*
X0140551Y0021722D02*
X0193073Y0021722D01*
X0193823Y0029715D02*
X0143250Y0029715D01*
X0121903Y0037707D02*
X0117012Y0037707D01*
X0118392Y0039306D02*
X0120523Y0039306D01*
X0119981Y0040904D02*
X0118934Y0040904D01*
X0118906Y0042503D02*
X0120009Y0042503D01*
X0116239Y0045700D02*
X0116233Y0045700D01*
X0112485Y0045700D02*
X0106810Y0045700D01*
X0108408Y0044101D02*
X0110475Y0044101D01*
X0112132Y0047298D02*
X0105211Y0047298D01*
X0103613Y0048897D02*
X0110414Y0048897D01*
X0109784Y0050495D02*
X0102014Y0050495D01*
X0100416Y0052094D02*
X0109784Y0052094D01*
X0110387Y0053692D02*
X0098817Y0053692D01*
X0097219Y0055291D02*
X0111973Y0055291D01*
X0113488Y0057461D02*
X0111807Y0058158D01*
X0110520Y0059445D01*
X0109824Y0061126D01*
X0109824Y0062946D01*
X0110520Y0064628D01*
X0111807Y0065915D01*
X0113488Y0066611D01*
X0115308Y0066611D01*
X0116990Y0065915D01*
X0118277Y0064628D01*
X0118973Y0062946D01*
X0118973Y0061126D01*
X0118277Y0059445D01*
X0116990Y0058158D01*
X0115308Y0057461D01*
X0113488Y0057461D01*
X0111477Y0058488D02*
X0094022Y0058488D01*
X0095620Y0056889D02*
X0125949Y0056889D01*
X0126768Y0055291D02*
X0127548Y0055291D01*
X0128433Y0053692D02*
X0129146Y0053692D01*
X0122186Y0055291D02*
X0116745Y0055291D01*
X0118331Y0053692D02*
X0120521Y0053692D01*
X0119902Y0052094D02*
X0118934Y0052094D01*
X0118934Y0050495D02*
X0119902Y0050495D01*
X0121595Y0058488D02*
X0117320Y0058488D01*
X0118542Y0060086D02*
X0120372Y0060086D01*
X0119942Y0061685D02*
X0118973Y0061685D01*
X0118834Y0063283D02*
X0120081Y0063283D01*
X0120892Y0064882D02*
X0118022Y0064882D01*
X0115624Y0066480D02*
X0123291Y0066480D01*
X0125742Y0066480D02*
X0133902Y0066480D01*
X0133564Y0064882D02*
X0128141Y0064882D01*
X0128952Y0063283D02*
X0133828Y0063283D01*
X0135037Y0068079D02*
X0084431Y0068079D01*
X0086029Y0066480D02*
X0113173Y0066480D01*
X0110774Y0064882D02*
X0087628Y0064882D01*
X0089226Y0063283D02*
X0109963Y0063283D01*
X0109824Y0061685D02*
X0090825Y0061685D01*
X0092423Y0060086D02*
X0110254Y0060086D01*
X0098140Y0047298D02*
X0068773Y0047298D01*
X0068773Y0047917D02*
X0067602Y0049088D01*
X0061983Y0049088D01*
X0060811Y0047917D01*
X0060811Y0042298D01*
X0061983Y0041126D01*
X0067602Y0041126D01*
X0068773Y0042298D01*
X0068773Y0047917D01*
X0067793Y0048897D02*
X0096542Y0048897D01*
X0094943Y0050495D02*
X0010537Y0050495D01*
X0010537Y0048897D02*
X0061791Y0048897D01*
X0060811Y0047298D02*
X0010537Y0047298D01*
X0010537Y0045700D02*
X0060811Y0045700D01*
X0060811Y0044101D02*
X0010537Y0044101D01*
X0010537Y0042503D02*
X0060811Y0042503D01*
X0068773Y0042503D02*
X0102936Y0042503D01*
X0104534Y0040904D02*
X0010537Y0040904D01*
X0010537Y0039306D02*
X0106133Y0039306D01*
X0107731Y0037707D02*
X0010537Y0037707D01*
X0010537Y0036109D02*
X0109330Y0036109D01*
X0110928Y0034510D02*
X0010537Y0034510D01*
X0010537Y0032912D02*
X0110054Y0032912D01*
X0109824Y0031313D02*
X0010537Y0031313D01*
X0010537Y0029715D02*
X0110164Y0029715D01*
X0101337Y0044101D02*
X0068773Y0044101D01*
X0068773Y0045700D02*
X0099739Y0045700D01*
X0093345Y0052094D02*
X0010537Y0052094D01*
X0010537Y0053692D02*
X0091746Y0053692D01*
X0090148Y0055291D02*
X0010537Y0055291D01*
X0010537Y0056889D02*
X0088549Y0056889D01*
X0086951Y0058488D02*
X0010537Y0058488D01*
X0010537Y0060086D02*
X0085352Y0060086D01*
X0083754Y0061685D02*
X0068476Y0061685D01*
X0068773Y0061983D02*
X0067602Y0060811D01*
X0061983Y0060811D01*
X0060811Y0061983D01*
X0060811Y0067602D01*
X0061983Y0068773D01*
X0067602Y0068773D01*
X0068773Y0067602D01*
X0068773Y0061983D01*
X0068773Y0063283D02*
X0082155Y0063283D01*
X0080557Y0064882D02*
X0068773Y0064882D01*
X0068773Y0066480D02*
X0078958Y0066480D01*
X0077360Y0068079D02*
X0068296Y0068079D01*
X0072564Y0072874D02*
X0010537Y0072874D01*
X0010537Y0071276D02*
X0074163Y0071276D01*
X0075761Y0069677D02*
X0010537Y0069677D01*
X0010537Y0068079D02*
X0061288Y0068079D01*
X0060811Y0066480D02*
X0010537Y0066480D01*
X0010537Y0064882D02*
X0060811Y0064882D01*
X0060811Y0063283D02*
X0010537Y0063283D01*
X0010537Y0061685D02*
X0061109Y0061685D01*
X0070965Y0074473D02*
X0010537Y0074473D01*
X0010537Y0076072D02*
X0069367Y0076072D01*
X0067768Y0077670D02*
X0010537Y0077670D01*
X0010537Y0079269D02*
X0066170Y0079269D01*
X0064571Y0080867D02*
X0010537Y0080867D01*
X0010537Y0082466D02*
X0062973Y0082466D01*
X0061374Y0084064D02*
X0010537Y0084064D01*
X0010537Y0085663D02*
X0059776Y0085663D01*
X0058177Y0087261D02*
X0010537Y0087261D01*
X0010537Y0088860D02*
X0056579Y0088860D01*
X0054980Y0090458D02*
X0010537Y0090458D01*
X0010537Y0092057D02*
X0053382Y0092057D01*
X0051783Y0093655D02*
X0010537Y0093655D01*
X0010537Y0095254D02*
X0050185Y0095254D01*
X0048586Y0096852D02*
X0045251Y0096852D01*
X0046302Y0098451D02*
X0046988Y0098451D01*
X0050862Y0101648D02*
X0096778Y0101648D01*
X0096517Y0101017D02*
X0097213Y0102698D01*
X0098500Y0103985D01*
X0100181Y0104682D01*
X0102001Y0104682D01*
X0103683Y0103985D01*
X0104970Y0102698D01*
X0105666Y0101017D01*
X0105666Y0099197D01*
X0104970Y0097516D01*
X0103683Y0096229D01*
X0102001Y0095532D01*
X0100181Y0095532D01*
X0098500Y0096229D01*
X0097213Y0097516D01*
X0096517Y0099197D01*
X0096517Y0101017D01*
X0096517Y0100049D02*
X0052460Y0100049D01*
X0054059Y0098451D02*
X0096826Y0098451D01*
X0097877Y0096852D02*
X0055657Y0096852D01*
X0057256Y0095254D02*
X0133603Y0095254D01*
X0133603Y0095820D02*
X0133603Y0094079D01*
X0134270Y0092470D01*
X0135501Y0091238D01*
X0137110Y0090572D01*
X0138852Y0090572D01*
X0140461Y0091238D01*
X0141693Y0092470D01*
X0142359Y0094079D01*
X0142359Y0095820D01*
X0141693Y0097430D01*
X0140461Y0098661D01*
X0138852Y0099328D01*
X0137110Y0099328D01*
X0135501Y0098661D01*
X0134270Y0097430D01*
X0133603Y0095820D01*
X0134030Y0096852D02*
X0104306Y0096852D01*
X0105357Y0098451D02*
X0135291Y0098451D01*
X0137110Y0100611D02*
X0138852Y0100611D01*
X0140461Y0101278D01*
X0141693Y0102509D01*
X0142359Y0104118D01*
X0142359Y0105860D01*
X0141693Y0107469D01*
X0140461Y0108700D01*
X0138852Y0109367D01*
X0137110Y0109367D01*
X0135501Y0108700D01*
X0134270Y0107469D01*
X0133603Y0105860D01*
X0133603Y0104118D01*
X0134270Y0102509D01*
X0135501Y0101278D01*
X0137110Y0100611D01*
X0135131Y0101648D02*
X0105405Y0101648D01*
X0105666Y0100049D02*
X0161598Y0100049D01*
X0161598Y0100279D02*
X0161598Y0094660D01*
X0162770Y0093488D01*
X0168389Y0093488D01*
X0169561Y0094660D01*
X0169561Y0100279D01*
X0168389Y0101450D01*
X0162770Y0101450D01*
X0161598Y0100279D01*
X0161598Y0098451D02*
X0140671Y0098451D01*
X0141932Y0096852D02*
X0161598Y0096852D01*
X0161598Y0095254D02*
X0142359Y0095254D01*
X0142184Y0093655D02*
X0162603Y0093655D01*
X0168556Y0093655D02*
X0192801Y0093655D01*
X0192658Y0094000D02*
X0193325Y0092391D01*
X0194556Y0091159D01*
X0196165Y0090493D01*
X0197907Y0090493D01*
X0199516Y0091159D01*
X0200748Y0092391D01*
X0201414Y0094000D01*
X0201414Y0095742D01*
X0200748Y0097351D01*
X0199516Y0098582D01*
X0197907Y0099249D01*
X0196165Y0099249D01*
X0194556Y0098582D01*
X0193325Y0097351D01*
X0192658Y0095742D01*
X0192658Y0094000D01*
X0192658Y0095254D02*
X0169561Y0095254D01*
X0169561Y0096852D02*
X0193118Y0096852D01*
X0194425Y0098451D02*
X0169561Y0098451D01*
X0169561Y0100049D02*
X0212780Y0100049D01*
X0212780Y0099778D02*
X0213951Y0098606D01*
X0219570Y0098606D01*
X0220742Y0099778D01*
X0220742Y0105397D01*
X0219570Y0106568D01*
X0213951Y0106568D01*
X0212780Y0105397D01*
X0212780Y0099778D01*
X0212780Y0101648D02*
X0200044Y0101648D01*
X0199555Y0101159D02*
X0200787Y0102391D01*
X0201454Y0104000D01*
X0201454Y0105742D01*
X0200787Y0107351D01*
X0199555Y0108582D01*
X0197946Y0109249D01*
X0196205Y0109249D01*
X0194596Y0108582D01*
X0193364Y0107351D01*
X0192698Y0105742D01*
X0192698Y0104000D01*
X0193364Y0102391D01*
X0194596Y0101159D01*
X0196205Y0100493D01*
X0197946Y0100493D01*
X0199555Y0101159D01*
X0201141Y0103246D02*
X0212780Y0103246D01*
X0212780Y0104845D02*
X0201454Y0104845D01*
X0201163Y0106443D02*
X0213826Y0106443D01*
X0219695Y0106443D02*
X0227709Y0106443D01*
X0227709Y0104845D02*
X0220742Y0104845D01*
X0220742Y0103246D02*
X0227709Y0103246D01*
X0227709Y0101648D02*
X0220742Y0101648D01*
X0220742Y0100049D02*
X0227709Y0100049D01*
X0227709Y0098451D02*
X0199648Y0098451D01*
X0200954Y0096852D02*
X0227709Y0096852D01*
X0227709Y0095254D02*
X0201414Y0095254D01*
X0201271Y0093655D02*
X0227709Y0093655D01*
X0227709Y0092057D02*
X0200413Y0092057D01*
X0198886Y0088860D02*
X0227709Y0088860D01*
X0227709Y0090458D02*
X0062051Y0090458D01*
X0060453Y0092057D02*
X0134683Y0092057D01*
X0133779Y0093655D02*
X0058854Y0093655D01*
X0063650Y0088860D02*
X0136036Y0088860D01*
X0135462Y0088622D02*
X0134230Y0087390D01*
X0133564Y0085781D01*
X0133564Y0084039D01*
X0134230Y0082430D01*
X0135462Y0081199D01*
X0137071Y0080532D01*
X0138813Y0080532D01*
X0140422Y0081199D01*
X0141653Y0082430D01*
X0142320Y0084039D01*
X0142320Y0085781D01*
X0141653Y0087390D01*
X0140422Y0088622D01*
X0138813Y0089288D01*
X0137071Y0089288D01*
X0135462Y0088622D01*
X0134177Y0087261D02*
X0065248Y0087261D01*
X0066847Y0085663D02*
X0133564Y0085663D01*
X0133564Y0084064D02*
X0068445Y0084064D01*
X0070044Y0082466D02*
X0134216Y0082466D01*
X0136263Y0080867D02*
X0071642Y0080867D01*
X0073241Y0079269D02*
X0227709Y0079269D01*
X0227709Y0080867D02*
X0220729Y0080867D01*
X0220742Y0080880D02*
X0219570Y0079709D01*
X0213951Y0079709D01*
X0212780Y0080880D01*
X0212780Y0086499D01*
X0213951Y0087671D01*
X0219570Y0087671D01*
X0220742Y0086499D01*
X0220742Y0080880D01*
X0220742Y0082466D02*
X0227709Y0082466D01*
X0227709Y0084064D02*
X0220742Y0084064D01*
X0220742Y0085663D02*
X0227709Y0085663D01*
X0227709Y0087261D02*
X0219980Y0087261D01*
X0213541Y0087261D02*
X0200824Y0087261D01*
X0200787Y0087351D02*
X0199555Y0088582D01*
X0197946Y0089249D01*
X0196205Y0089249D01*
X0194596Y0088582D01*
X0193364Y0087351D01*
X0192698Y0085742D01*
X0192698Y0084000D01*
X0193364Y0082391D01*
X0194596Y0081159D01*
X0196205Y0080493D01*
X0197946Y0080493D01*
X0199555Y0081159D01*
X0200787Y0082391D01*
X0201454Y0084000D01*
X0201454Y0085742D01*
X0200787Y0087351D01*
X0201454Y0085663D02*
X0212780Y0085663D01*
X0212780Y0084064D02*
X0201454Y0084064D01*
X0200818Y0082466D02*
X0212780Y0082466D01*
X0212793Y0080867D02*
X0198850Y0080867D01*
X0197907Y0079209D02*
X0196165Y0079209D01*
X0194556Y0078543D01*
X0193325Y0077311D01*
X0192658Y0075702D01*
X0192658Y0073961D01*
X0193325Y0072352D01*
X0194556Y0071120D01*
X0196165Y0070454D01*
X0197907Y0070454D01*
X0199516Y0071120D01*
X0200748Y0072352D01*
X0201414Y0073961D01*
X0201414Y0075702D01*
X0200748Y0077311D01*
X0199516Y0078543D01*
X0197907Y0079209D01*
X0200389Y0077670D02*
X0227709Y0077670D01*
X0227709Y0076072D02*
X0201261Y0076072D01*
X0201414Y0074473D02*
X0227709Y0074473D01*
X0227709Y0072874D02*
X0200964Y0072874D01*
X0199672Y0071276D02*
X0227709Y0071276D01*
X0227709Y0069677D02*
X0082832Y0069677D01*
X0081234Y0071276D02*
X0135306Y0071276D01*
X0135462Y0071120D02*
X0137071Y0070454D01*
X0138813Y0070454D01*
X0140422Y0071120D01*
X0141653Y0072352D01*
X0142320Y0073961D01*
X0142320Y0075702D01*
X0141653Y0077311D01*
X0140422Y0078543D01*
X0138813Y0079209D01*
X0137071Y0079209D01*
X0135462Y0078543D01*
X0134230Y0077311D01*
X0133564Y0075702D01*
X0133564Y0073961D01*
X0134230Y0072352D01*
X0135462Y0071120D01*
X0134014Y0072874D02*
X0079635Y0072874D01*
X0078037Y0074473D02*
X0133564Y0074473D01*
X0133717Y0076072D02*
X0076438Y0076072D01*
X0074840Y0077670D02*
X0134589Y0077670D01*
X0139621Y0080867D02*
X0195302Y0080867D01*
X0193333Y0082466D02*
X0141668Y0082466D01*
X0142320Y0084064D02*
X0192698Y0084064D01*
X0192698Y0085663D02*
X0142320Y0085663D01*
X0141707Y0087261D02*
X0193327Y0087261D01*
X0195265Y0088860D02*
X0139847Y0088860D01*
X0141279Y0092057D02*
X0193659Y0092057D01*
X0194107Y0101648D02*
X0140831Y0101648D01*
X0141998Y0103246D02*
X0193010Y0103246D01*
X0192698Y0104845D02*
X0142359Y0104845D01*
X0142117Y0106443D02*
X0192988Y0106443D01*
X0194055Y0108042D02*
X0169561Y0108042D01*
X0169561Y0107652D02*
X0168389Y0106480D01*
X0162770Y0106480D01*
X0161598Y0107652D01*
X0161598Y0113271D01*
X0162770Y0114443D01*
X0168389Y0114443D01*
X0169561Y0113271D01*
X0169561Y0107652D01*
X0169561Y0109640D02*
X0227709Y0109640D01*
X0227709Y0108042D02*
X0200096Y0108042D01*
X0199555Y0111199D02*
X0197946Y0110532D01*
X0196205Y0110532D01*
X0194596Y0111199D01*
X0193364Y0112430D01*
X0192698Y0114039D01*
X0192698Y0115781D01*
X0193364Y0117390D01*
X0194596Y0118622D01*
X0196205Y0119288D01*
X0197946Y0119288D01*
X0199555Y0118622D01*
X0200787Y0117390D01*
X0201454Y0115781D01*
X0201454Y0114039D01*
X0200787Y0112430D01*
X0199555Y0111199D01*
X0199595Y0111239D02*
X0227709Y0111239D01*
X0227709Y0112837D02*
X0200956Y0112837D01*
X0201454Y0114436D02*
X0227709Y0114436D01*
X0227709Y0116034D02*
X0201349Y0116034D01*
X0200544Y0117633D02*
X0227709Y0117633D01*
X0227709Y0119231D02*
X0198084Y0119231D01*
X0197986Y0120572D02*
X0196244Y0120572D01*
X0194635Y0121238D01*
X0193404Y0122470D01*
X0192737Y0124079D01*
X0192737Y0125820D01*
X0193404Y0127430D01*
X0194635Y0128661D01*
X0196244Y0129328D01*
X0197986Y0129328D01*
X0199595Y0128661D01*
X0200826Y0127430D01*
X0201493Y0125820D01*
X0201493Y0124079D01*
X0200826Y0122470D01*
X0199595Y0121238D01*
X0197986Y0120572D01*
X0198609Y0120830D02*
X0227709Y0120830D01*
X0227709Y0122428D02*
X0200785Y0122428D01*
X0201471Y0124027D02*
X0227709Y0124027D01*
X0227709Y0125625D02*
X0201493Y0125625D01*
X0200912Y0127224D02*
X0227709Y0127224D01*
X0227709Y0128822D02*
X0199205Y0128822D01*
X0197907Y0130611D02*
X0199516Y0131278D01*
X0200748Y0132509D01*
X0201414Y0134118D01*
X0201414Y0135860D01*
X0200748Y0137469D01*
X0199516Y0138700D01*
X0197907Y0139367D01*
X0196165Y0139367D01*
X0194556Y0138700D01*
X0193325Y0137469D01*
X0192658Y0135860D01*
X0192658Y0134118D01*
X0193325Y0132509D01*
X0194556Y0131278D01*
X0196165Y0130611D01*
X0197907Y0130611D01*
X0200258Y0132019D02*
X0227709Y0132019D01*
X0227709Y0130421D02*
X0105627Y0130421D01*
X0105627Y0130741D02*
X0104930Y0132423D01*
X0104494Y0132859D01*
X0104656Y0133021D01*
X0123373Y0151737D01*
X0135081Y0151737D01*
X0135462Y0151356D01*
X0137071Y0150690D01*
X0138813Y0150690D01*
X0140422Y0151356D01*
X0141653Y0152588D01*
X0142320Y0154197D01*
X0142320Y0155939D01*
X0141653Y0157548D01*
X0140864Y0158337D01*
X0193234Y0158337D01*
X0194153Y0158718D01*
X0196165Y0160729D01*
X0196165Y0160729D01*
X0197907Y0160729D01*
X0199516Y0161396D01*
X0200748Y0162627D01*
X0201414Y0164236D01*
X0201414Y0165978D01*
X0200748Y0167587D01*
X0199637Y0168698D01*
X0199637Y0189306D01*
X0200963Y0190633D01*
X0201690Y0192386D01*
X0201690Y0194285D01*
X0200963Y0196038D01*
X0199637Y0197365D01*
X0199637Y0228676D01*
X0200963Y0230003D01*
X0201690Y0231756D01*
X0201690Y0233655D01*
X0200963Y0235408D01*
X0199621Y0236751D01*
X0197867Y0237477D01*
X0195969Y0237477D01*
X0194215Y0236751D01*
X0192873Y0235408D01*
X0192146Y0233655D01*
X0192146Y0231756D01*
X0192873Y0230003D01*
X0194215Y0228660D01*
X0194637Y0228486D01*
X0194637Y0197555D01*
X0194215Y0197381D01*
X0192873Y0196038D01*
X0192146Y0194285D01*
X0192146Y0192386D01*
X0192873Y0190633D01*
X0194215Y0189290D01*
X0194637Y0189116D01*
X0194637Y0168852D01*
X0194556Y0168819D01*
X0193325Y0167587D01*
X0192658Y0165978D01*
X0192658Y0164294D01*
X0191701Y0163337D01*
X0181357Y0163337D01*
X0181729Y0164236D01*
X0181729Y0165978D01*
X0181063Y0167587D01*
X0179831Y0168819D01*
X0178222Y0169485D01*
X0176480Y0169485D01*
X0174871Y0168819D01*
X0173640Y0167587D01*
X0172973Y0165978D01*
X0172973Y0164236D01*
X0173346Y0163337D01*
X0171514Y0163337D01*
X0171887Y0164236D01*
X0171887Y0165978D01*
X0171220Y0167587D01*
X0169989Y0168819D01*
X0168379Y0169485D01*
X0166638Y0169485D01*
X0165029Y0168819D01*
X0163797Y0167587D01*
X0163131Y0165978D01*
X0163131Y0164236D01*
X0163503Y0163337D01*
X0161672Y0163337D01*
X0162044Y0164236D01*
X0162044Y0165978D01*
X0161378Y0167587D01*
X0160146Y0168819D01*
X0158537Y0169485D01*
X0156795Y0169485D01*
X0155186Y0168819D01*
X0153955Y0167587D01*
X0153288Y0165978D01*
X0153288Y0164236D01*
X0153661Y0163337D01*
X0142003Y0163337D01*
X0142359Y0164197D01*
X0142359Y0165939D01*
X0141693Y0167548D01*
X0140461Y0168779D01*
X0138852Y0169446D01*
X0137110Y0169446D01*
X0135501Y0168779D01*
X0134270Y0167548D01*
X0133603Y0165939D01*
X0133603Y0164197D01*
X0133959Y0163337D01*
X0115240Y0163337D01*
X0114321Y0162956D01*
X0094901Y0143537D01*
X0045155Y0143537D01*
X0044628Y0144064D01*
X0042946Y0144761D01*
X0041126Y0144761D01*
X0039445Y0144064D01*
X0038158Y0142777D01*
X0037461Y0141096D01*
X0037461Y0139276D01*
X0038158Y0137594D01*
X0039445Y0136307D01*
X0041126Y0135611D01*
X0042946Y0135611D01*
X0044628Y0136307D01*
X0045915Y0137594D01*
X0046305Y0138537D01*
X0096434Y0138537D01*
X0096593Y0138603D01*
X0097174Y0137201D01*
X0097437Y0136937D01*
X0045940Y0136937D01*
X0045021Y0136556D01*
X0043155Y0134690D01*
X0042986Y0134761D01*
X0041166Y0134761D01*
X0039484Y0134064D01*
X0038197Y0132777D01*
X0037501Y0131096D01*
X0037501Y0129276D01*
X0038197Y0127594D01*
X0039484Y0126307D01*
X0041166Y0125611D01*
X0042986Y0125611D01*
X0044667Y0126307D01*
X0045954Y0127594D01*
X0046650Y0129276D01*
X0046650Y0131096D01*
X0046645Y0131109D01*
X0047473Y0131937D01*
X0096972Y0131937D01*
X0096477Y0130741D01*
X0096477Y0128922D01*
X0097174Y0127240D01*
X0098461Y0125953D01*
X0100142Y0125257D01*
X0101962Y0125257D01*
X0103643Y0125953D01*
X0104930Y0127240D01*
X0105627Y0128922D01*
X0105627Y0130741D01*
X0105097Y0132019D02*
X0135121Y0132019D01*
X0135259Y0131881D02*
X0135791Y0131494D01*
X0136377Y0131196D01*
X0137003Y0130993D01*
X0137652Y0130890D01*
X0137981Y0130890D01*
X0137981Y0135068D01*
X0137981Y0139246D01*
X0137652Y0139246D01*
X0137003Y0139143D01*
X0136377Y0138940D01*
X0135791Y0138641D01*
X0135259Y0138254D01*
X0134794Y0137789D01*
X0134408Y0137257D01*
X0134109Y0136671D01*
X0133906Y0136046D01*
X0133803Y0135397D01*
X0133803Y0135068D01*
X0137981Y0135068D01*
X0137981Y0135068D01*
X0137981Y0139246D01*
X0138310Y0139246D01*
X0138959Y0139143D01*
X0139585Y0138940D01*
X0140171Y0138641D01*
X0140703Y0138254D01*
X0141168Y0137789D01*
X0141554Y0137257D01*
X0141853Y0136671D01*
X0142056Y0136046D01*
X0142159Y0135397D01*
X0142159Y0135068D01*
X0137981Y0135068D01*
X0137981Y0135068D01*
X0137981Y0135068D01*
X0133803Y0135068D01*
X0133803Y0134739D01*
X0133906Y0134089D01*
X0134109Y0133464D01*
X0134408Y0132878D01*
X0134794Y0132346D01*
X0135259Y0131881D01*
X0134059Y0133618D02*
X0105253Y0133618D01*
X0106852Y0135216D02*
X0133803Y0135216D01*
X0134182Y0136815D02*
X0108450Y0136815D01*
X0110049Y0138413D02*
X0135478Y0138413D01*
X0137981Y0138413D02*
X0137981Y0138413D01*
X0137981Y0136815D02*
X0137981Y0136815D01*
X0137981Y0135216D02*
X0137981Y0135216D01*
X0137981Y0135068D02*
X0142159Y0135068D01*
X0142159Y0134739D01*
X0142056Y0134089D01*
X0141853Y0133464D01*
X0141554Y0132878D01*
X0141168Y0132346D01*
X0140703Y0131881D01*
X0140171Y0131494D01*
X0139585Y0131196D01*
X0138959Y0130993D01*
X0138310Y0130890D01*
X0137981Y0130890D01*
X0137981Y0135068D01*
X0137981Y0135068D01*
X0137981Y0133618D02*
X0137981Y0133618D01*
X0137981Y0132019D02*
X0137981Y0132019D01*
X0137110Y0129446D02*
X0135501Y0128779D01*
X0134270Y0127548D01*
X0133603Y0125939D01*
X0133603Y0124197D01*
X0134270Y0122588D01*
X0135501Y0121356D01*
X0137110Y0120690D01*
X0138852Y0120690D01*
X0140461Y0121356D01*
X0141693Y0122588D01*
X0142359Y0124197D01*
X0142359Y0125939D01*
X0141693Y0127548D01*
X0140461Y0128779D01*
X0138852Y0129446D01*
X0137110Y0129446D01*
X0135606Y0128822D02*
X0105586Y0128822D01*
X0104914Y0127224D02*
X0134136Y0127224D01*
X0133603Y0125625D02*
X0102852Y0125625D01*
X0101962Y0124524D02*
X0100142Y0124524D01*
X0098461Y0123828D01*
X0097174Y0122541D01*
X0096477Y0120860D01*
X0096477Y0119040D01*
X0097174Y0117358D01*
X0098461Y0116071D01*
X0100142Y0115375D01*
X0101962Y0115375D01*
X0103643Y0116071D01*
X0104930Y0117358D01*
X0105627Y0119040D01*
X0105627Y0120860D01*
X0104930Y0122541D01*
X0103643Y0123828D01*
X0101962Y0124524D01*
X0103163Y0124027D02*
X0133674Y0124027D01*
X0134429Y0122428D02*
X0104977Y0122428D01*
X0105627Y0120830D02*
X0136772Y0120830D01*
X0137110Y0119406D02*
X0135501Y0118740D01*
X0134270Y0117508D01*
X0133603Y0115899D01*
X0133603Y0114158D01*
X0134270Y0112548D01*
X0135501Y0111317D01*
X0137110Y0110650D01*
X0138852Y0110650D01*
X0140461Y0111317D01*
X0141693Y0112548D01*
X0142359Y0114158D01*
X0142359Y0115899D01*
X0141693Y0117508D01*
X0140461Y0118740D01*
X0138852Y0119406D01*
X0137110Y0119406D01*
X0136688Y0119231D02*
X0105627Y0119231D01*
X0105044Y0117633D02*
X0134394Y0117633D01*
X0133659Y0116034D02*
X0103554Y0116034D01*
X0102310Y0114436D02*
X0133603Y0114436D01*
X0134150Y0112837D02*
X0104713Y0112837D01*
X0104970Y0112580D02*
X0103683Y0113867D01*
X0102001Y0114564D01*
X0100181Y0114564D01*
X0098500Y0113867D01*
X0097213Y0112580D01*
X0096517Y0110899D01*
X0096517Y0109079D01*
X0097213Y0107398D01*
X0098500Y0106111D01*
X0100181Y0105414D01*
X0102001Y0105414D01*
X0103683Y0106111D01*
X0104970Y0107398D01*
X0105666Y0109079D01*
X0105666Y0110899D01*
X0104970Y0112580D01*
X0105525Y0111239D02*
X0135690Y0111239D01*
X0134842Y0108042D02*
X0105236Y0108042D01*
X0105666Y0109640D02*
X0161598Y0109640D01*
X0161598Y0108042D02*
X0141120Y0108042D01*
X0140272Y0111239D02*
X0161598Y0111239D01*
X0161598Y0112837D02*
X0141812Y0112837D01*
X0142359Y0114436D02*
X0162763Y0114436D01*
X0162770Y0119079D02*
X0168389Y0119079D01*
X0169561Y0120250D01*
X0169561Y0125869D01*
X0168389Y0127041D01*
X0162770Y0127041D01*
X0161598Y0125869D01*
X0161598Y0120250D01*
X0162770Y0119079D01*
X0162617Y0119231D02*
X0139274Y0119231D01*
X0139190Y0120830D02*
X0161598Y0120830D01*
X0161598Y0122428D02*
X0141533Y0122428D01*
X0142289Y0124027D02*
X0161598Y0124027D01*
X0161598Y0125625D02*
X0142359Y0125625D01*
X0141827Y0127224D02*
X0193318Y0127224D01*
X0192737Y0125625D02*
X0169561Y0125625D01*
X0169561Y0124027D02*
X0192759Y0124027D01*
X0193445Y0122428D02*
X0169561Y0122428D01*
X0169561Y0120830D02*
X0195621Y0120830D01*
X0196067Y0119231D02*
X0168542Y0119231D01*
X0168396Y0114436D02*
X0192698Y0114436D01*
X0192803Y0116034D02*
X0142303Y0116034D01*
X0141568Y0117633D02*
X0193607Y0117633D01*
X0193196Y0112837D02*
X0169561Y0112837D01*
X0169561Y0111239D02*
X0194556Y0111239D01*
X0195025Y0128822D02*
X0140357Y0128822D01*
X0140841Y0132019D02*
X0193814Y0132019D01*
X0192865Y0133618D02*
X0141903Y0133618D01*
X0142159Y0135216D02*
X0192658Y0135216D01*
X0193054Y0136815D02*
X0141780Y0136815D01*
X0140484Y0138413D02*
X0194269Y0138413D01*
X0196126Y0140650D02*
X0197868Y0140650D01*
X0199477Y0141317D01*
X0200708Y0142548D01*
X0201375Y0144158D01*
X0201375Y0145899D01*
X0200708Y0147508D01*
X0199477Y0148740D01*
X0197868Y0149406D01*
X0196126Y0149406D01*
X0194517Y0148740D01*
X0193285Y0147508D01*
X0192619Y0145899D01*
X0192619Y0144158D01*
X0193285Y0142548D01*
X0194517Y0141317D01*
X0196126Y0140650D01*
X0194223Y0141610D02*
X0140715Y0141610D01*
X0140461Y0141356D02*
X0141693Y0142588D01*
X0142359Y0144197D01*
X0142359Y0145939D01*
X0141693Y0147548D01*
X0140461Y0148779D01*
X0138852Y0149446D01*
X0137110Y0149446D01*
X0135501Y0148779D01*
X0134270Y0147548D01*
X0133603Y0145939D01*
X0133603Y0144197D01*
X0134270Y0142588D01*
X0135501Y0141356D01*
X0137110Y0140690D01*
X0138852Y0140690D01*
X0140461Y0141356D01*
X0141950Y0143209D02*
X0193012Y0143209D01*
X0192619Y0144807D02*
X0142359Y0144807D01*
X0142165Y0146406D02*
X0192829Y0146406D01*
X0193782Y0148005D02*
X0141236Y0148005D01*
X0140048Y0151202D02*
X0194930Y0151202D01*
X0194556Y0151356D02*
X0196165Y0150690D01*
X0197907Y0150690D01*
X0199516Y0151356D01*
X0200748Y0152588D01*
X0201414Y0154197D01*
X0201414Y0155939D01*
X0200748Y0157548D01*
X0199516Y0158779D01*
X0197907Y0159446D01*
X0196165Y0159446D01*
X0194556Y0158779D01*
X0193325Y0157548D01*
X0192658Y0155939D01*
X0192658Y0154197D01*
X0193325Y0152588D01*
X0194556Y0151356D01*
X0193237Y0152800D02*
X0141741Y0152800D01*
X0142320Y0154399D02*
X0192658Y0154399D01*
X0192683Y0155997D02*
X0142295Y0155997D01*
X0141605Y0157596D02*
X0193373Y0157596D01*
X0194630Y0159194D02*
X0195558Y0159194D01*
X0198514Y0159194D02*
X0207903Y0159194D01*
X0207312Y0160793D02*
X0198060Y0160793D01*
X0200512Y0162391D02*
X0206883Y0162391D01*
X0206843Y0163990D02*
X0201312Y0163990D01*
X0201414Y0165588D02*
X0206875Y0165588D01*
X0207304Y0167187D02*
X0200913Y0167187D01*
X0199637Y0168785D02*
X0207885Y0168785D01*
X0208808Y0170384D02*
X0199637Y0170384D01*
X0199637Y0171982D02*
X0210223Y0171982D01*
X0212329Y0173581D02*
X0199637Y0173581D01*
X0199637Y0175179D02*
X0227709Y0175179D01*
X0227709Y0173581D02*
X0223554Y0173581D01*
X0225661Y0171982D02*
X0227709Y0171982D01*
X0227709Y0170384D02*
X0227075Y0170384D01*
X0227709Y0176778D02*
X0199637Y0176778D01*
X0199637Y0178376D02*
X0227709Y0178376D01*
X0227709Y0179975D02*
X0199637Y0179975D01*
X0199637Y0181573D02*
X0227709Y0181573D01*
X0227709Y0183172D02*
X0199637Y0183172D01*
X0199637Y0184770D02*
X0227709Y0184770D01*
X0227709Y0186369D02*
X0199637Y0186369D01*
X0199637Y0187967D02*
X0227709Y0187967D01*
X0227709Y0189566D02*
X0209350Y0189566D01*
X0209157Y0189425D02*
X0209739Y0189848D01*
X0210248Y0190357D01*
X0210671Y0190939D01*
X0210997Y0191581D01*
X0211220Y0192265D01*
X0211332Y0192976D01*
X0211332Y0193250D01*
X0206847Y0193250D01*
X0206847Y0193421D01*
X0211332Y0193421D01*
X0211332Y0193695D01*
X0211220Y0194406D01*
X0210997Y0195090D01*
X0210671Y0195731D01*
X0210248Y0196314D01*
X0209739Y0196822D01*
X0209157Y0197245D01*
X0208516Y0197572D01*
X0207831Y0197795D01*
X0207120Y0197907D01*
X0206846Y0197907D01*
X0206846Y0193421D01*
X0206675Y0193421D01*
X0206675Y0193250D01*
X0202189Y0193250D01*
X0202189Y0192976D01*
X0202302Y0192265D01*
X0202524Y0191581D01*
X0202851Y0190939D01*
X0203274Y0190357D01*
X0203782Y0189848D01*
X0204365Y0189425D01*
X0205006Y0189099D01*
X0205690Y0188876D01*
X0206401Y0188764D01*
X0206675Y0188764D01*
X0206675Y0193250D01*
X0206846Y0193250D01*
X0206846Y0188764D01*
X0207120Y0188764D01*
X0207831Y0188876D01*
X0208516Y0189099D01*
X0209157Y0189425D01*
X0206846Y0189566D02*
X0206675Y0189566D01*
X0206675Y0191164D02*
X0206846Y0191164D01*
X0206846Y0192763D02*
X0206675Y0192763D01*
X0206675Y0193421D02*
X0202189Y0193421D01*
X0202189Y0193695D01*
X0202302Y0194406D01*
X0202524Y0195090D01*
X0202851Y0195731D01*
X0203274Y0196314D01*
X0203782Y0196822D01*
X0204365Y0197245D01*
X0205006Y0197572D01*
X0205690Y0197795D01*
X0206401Y0197907D01*
X0206675Y0197907D01*
X0206675Y0193421D01*
X0206675Y0194361D02*
X0206846Y0194361D01*
X0206846Y0195960D02*
X0206675Y0195960D01*
X0206675Y0197558D02*
X0206846Y0197558D01*
X0208543Y0197558D02*
X0227709Y0197558D01*
X0227709Y0195960D02*
X0210505Y0195960D01*
X0211227Y0194361D02*
X0227709Y0194361D01*
X0227709Y0192763D02*
X0211299Y0192763D01*
X0210785Y0191164D02*
X0227709Y0191164D01*
X0227709Y0199157D02*
X0199637Y0199157D01*
X0199637Y0200755D02*
X0227709Y0200755D01*
X0227709Y0202354D02*
X0199637Y0202354D01*
X0199637Y0203952D02*
X0227709Y0203952D01*
X0227709Y0205551D02*
X0199637Y0205551D01*
X0199637Y0207149D02*
X0227709Y0207149D01*
X0227709Y0208748D02*
X0199637Y0208748D01*
X0199637Y0210346D02*
X0227709Y0210346D01*
X0227709Y0211945D02*
X0199637Y0211945D01*
X0199637Y0213543D02*
X0227709Y0213543D01*
X0227709Y0215142D02*
X0199637Y0215142D01*
X0199637Y0216741D02*
X0227709Y0216741D01*
X0227709Y0218339D02*
X0199637Y0218339D01*
X0199637Y0219938D02*
X0227709Y0219938D01*
X0227709Y0221536D02*
X0199637Y0221536D01*
X0199637Y0223135D02*
X0227709Y0223135D01*
X0227709Y0224733D02*
X0199637Y0224733D01*
X0199637Y0226332D02*
X0227709Y0226332D01*
X0227709Y0227930D02*
X0199637Y0227930D01*
X0200489Y0229529D02*
X0203472Y0229529D01*
X0203274Y0229727D02*
X0203782Y0229218D01*
X0204365Y0228795D01*
X0205006Y0228469D01*
X0205690Y0228246D01*
X0206401Y0228134D01*
X0206675Y0228134D01*
X0206675Y0232620D01*
X0202189Y0232620D01*
X0202189Y0232346D01*
X0202302Y0231635D01*
X0202524Y0230951D01*
X0202851Y0230309D01*
X0203274Y0229727D01*
X0202467Y0231127D02*
X0201429Y0231127D01*
X0201690Y0232726D02*
X0206675Y0232726D01*
X0206675Y0232791D02*
X0206675Y0232620D01*
X0206846Y0232620D01*
X0206846Y0228134D01*
X0207120Y0228134D01*
X0207831Y0228246D01*
X0208516Y0228469D01*
X0209157Y0228795D01*
X0209739Y0229218D01*
X0210248Y0229727D01*
X0210671Y0230309D01*
X0210997Y0230951D01*
X0211220Y0231635D01*
X0211332Y0232346D01*
X0211332Y0232620D01*
X0206847Y0232620D01*
X0206847Y0232791D01*
X0211332Y0232791D01*
X0211332Y0233065D01*
X0211220Y0233776D01*
X0210997Y0234460D01*
X0210671Y0235102D01*
X0210248Y0235684D01*
X0209739Y0236193D01*
X0209157Y0236616D01*
X0208516Y0236942D01*
X0207831Y0237165D01*
X0207120Y0237277D01*
X0206846Y0237277D01*
X0206846Y0232791D01*
X0206675Y0232791D01*
X0202189Y0232791D01*
X0202189Y0233065D01*
X0202302Y0233776D01*
X0202524Y0234460D01*
X0202851Y0235102D01*
X0203274Y0235684D01*
X0203782Y0236193D01*
X0204365Y0236616D01*
X0205006Y0236942D01*
X0205690Y0237165D01*
X0206401Y0237277D01*
X0206675Y0237277D01*
X0206675Y0232791D01*
X0206847Y0232726D02*
X0227709Y0232726D01*
X0227709Y0234324D02*
X0211042Y0234324D01*
X0210009Y0235923D02*
X0227709Y0235923D01*
X0227709Y0237521D02*
X0010537Y0237521D01*
X0010537Y0235923D02*
X0018190Y0235923D01*
X0017227Y0234324D02*
X0010537Y0234324D01*
X0010537Y0232726D02*
X0016950Y0232726D01*
X0017210Y0231127D02*
X0010537Y0231127D01*
X0010537Y0229529D02*
X0018150Y0229529D01*
X0019737Y0227930D02*
X0010537Y0227930D01*
X0010537Y0226332D02*
X0019737Y0226332D01*
X0019737Y0224733D02*
X0010537Y0224733D01*
X0010537Y0223135D02*
X0019737Y0223135D01*
X0019737Y0221536D02*
X0010537Y0221536D01*
X0010537Y0219938D02*
X0019737Y0219938D01*
X0019737Y0218339D02*
X0010537Y0218339D01*
X0010537Y0216741D02*
X0019737Y0216741D01*
X0019737Y0215142D02*
X0010537Y0215142D01*
X0010537Y0213543D02*
X0019737Y0213543D01*
X0019737Y0211945D02*
X0010537Y0211945D01*
X0010537Y0210346D02*
X0019737Y0210346D01*
X0019737Y0208748D02*
X0010537Y0208748D01*
X0010537Y0207149D02*
X0019737Y0207149D01*
X0019737Y0205551D02*
X0010537Y0205551D01*
X0010537Y0203952D02*
X0019737Y0203952D01*
X0019737Y0202354D02*
X0010537Y0202354D01*
X0010537Y0200755D02*
X0019737Y0200755D01*
X0019737Y0199157D02*
X0010537Y0199157D01*
X0010537Y0197558D02*
X0019447Y0197558D01*
X0017644Y0195960D02*
X0010537Y0195960D01*
X0010537Y0194361D02*
X0016981Y0194361D01*
X0016950Y0192763D02*
X0010537Y0192763D01*
X0010537Y0191164D02*
X0017456Y0191164D01*
X0018743Y0189566D02*
X0010537Y0189566D01*
X0010537Y0187967D02*
X0019737Y0187967D01*
X0019737Y0186369D02*
X0010537Y0186369D01*
X0010537Y0184770D02*
X0019737Y0184770D01*
X0019737Y0183172D02*
X0010537Y0183172D01*
X0010537Y0181573D02*
X0019737Y0181573D01*
X0019737Y0179975D02*
X0010537Y0179975D01*
X0010537Y0178376D02*
X0019737Y0178376D01*
X0019737Y0176778D02*
X0010537Y0176778D01*
X0010537Y0175179D02*
X0019737Y0175179D01*
X0019737Y0173581D02*
X0010537Y0173581D01*
X0010537Y0171982D02*
X0019737Y0171982D01*
X0019737Y0170384D02*
X0010537Y0170384D01*
X0010537Y0168785D02*
X0019737Y0168785D01*
X0019737Y0167187D02*
X0010537Y0167187D01*
X0010537Y0165588D02*
X0019737Y0165588D01*
X0020048Y0163990D02*
X0010537Y0163990D01*
X0010537Y0162391D02*
X0021547Y0162391D01*
X0021937Y0160793D02*
X0010537Y0160793D01*
X0010537Y0159194D02*
X0021937Y0159194D01*
X0021937Y0157596D02*
X0010537Y0157596D01*
X0010537Y0155997D02*
X0021937Y0155997D01*
X0021937Y0154399D02*
X0010537Y0154399D01*
X0010537Y0152800D02*
X0021937Y0152800D01*
X0021937Y0151202D02*
X0010537Y0151202D01*
X0010537Y0149603D02*
X0021937Y0149603D01*
X0021937Y0148005D02*
X0010537Y0148005D01*
X0010537Y0146406D02*
X0021937Y0146406D01*
X0021937Y0144807D02*
X0010537Y0144807D01*
X0010537Y0143209D02*
X0021937Y0143209D01*
X0021937Y0141610D02*
X0010537Y0141610D01*
X0010537Y0140012D02*
X0021937Y0140012D01*
X0021937Y0138413D02*
X0010537Y0138413D01*
X0010537Y0136815D02*
X0021937Y0136815D01*
X0021937Y0135216D02*
X0010537Y0135216D01*
X0010537Y0133618D02*
X0021937Y0133618D01*
X0021937Y0132019D02*
X0010537Y0132019D01*
X0010537Y0130421D02*
X0021937Y0130421D01*
X0019713Y0128822D02*
X0019713Y0128822D01*
X0019713Y0127224D02*
X0019713Y0127224D01*
X0019713Y0125625D02*
X0019713Y0125625D01*
X0019713Y0124027D02*
X0019713Y0124027D01*
X0019713Y0122428D02*
X0019713Y0122428D01*
X0019713Y0120830D02*
X0019713Y0120830D01*
X0022907Y0119231D02*
X0010537Y0119231D01*
X0010537Y0117633D02*
X0024506Y0117633D01*
X0026104Y0116034D02*
X0010537Y0116034D01*
X0010537Y0114436D02*
X0027703Y0114436D01*
X0029301Y0112837D02*
X0010537Y0112837D01*
X0010537Y0111239D02*
X0030900Y0111239D01*
X0032498Y0109640D02*
X0023473Y0109640D01*
X0023117Y0109997D02*
X0016310Y0109997D01*
X0015139Y0108825D01*
X0015139Y0102019D01*
X0016310Y0100847D01*
X0023117Y0100847D01*
X0024288Y0102019D01*
X0024288Y0108825D01*
X0023117Y0109997D01*
X0024288Y0108042D02*
X0034097Y0108042D01*
X0035695Y0106443D02*
X0024288Y0106443D01*
X0024288Y0104845D02*
X0037294Y0104845D01*
X0038706Y0103246D02*
X0024288Y0103246D01*
X0023917Y0101648D02*
X0037723Y0101648D01*
X0037461Y0100049D02*
X0010537Y0100049D01*
X0010537Y0098451D02*
X0037771Y0098451D01*
X0038821Y0096852D02*
X0010537Y0096852D01*
X0010537Y0101648D02*
X0015510Y0101648D01*
X0015139Y0103246D02*
X0010537Y0103246D01*
X0010537Y0104845D02*
X0015139Y0104845D01*
X0015139Y0106443D02*
X0010537Y0106443D01*
X0010537Y0108042D02*
X0015139Y0108042D01*
X0015954Y0109640D02*
X0010537Y0109640D01*
X0010537Y0120830D02*
X0016538Y0120830D01*
X0015339Y0122428D02*
X0010537Y0122428D01*
X0010537Y0124027D02*
X0015339Y0124027D01*
X0015339Y0125625D02*
X0010537Y0125625D01*
X0010537Y0127224D02*
X0015339Y0127224D01*
X0015733Y0128822D02*
X0010537Y0128822D01*
X0026937Y0128822D02*
X0037689Y0128822D01*
X0037501Y0130421D02*
X0026937Y0130421D01*
X0026937Y0132019D02*
X0037883Y0132019D01*
X0039038Y0133618D02*
X0026937Y0133618D01*
X0026937Y0135216D02*
X0043681Y0135216D01*
X0045135Y0136815D02*
X0045645Y0136815D01*
X0046254Y0138413D02*
X0096671Y0138413D01*
X0096172Y0144807D02*
X0026937Y0144807D01*
X0026937Y0143209D02*
X0038590Y0143209D01*
X0037675Y0141610D02*
X0026937Y0141610D01*
X0026937Y0140012D02*
X0037461Y0140012D01*
X0037819Y0138413D02*
X0026937Y0138413D01*
X0026937Y0136815D02*
X0038937Y0136815D01*
X0038568Y0127224D02*
X0026937Y0127224D01*
X0026937Y0125625D02*
X0041131Y0125625D01*
X0041087Y0124761D02*
X0039405Y0124064D01*
X0038119Y0122777D01*
X0037422Y0121096D01*
X0037422Y0119276D01*
X0038119Y0117594D01*
X0039405Y0116307D01*
X0041087Y0115611D01*
X0042907Y0115611D01*
X0044588Y0116307D01*
X0045875Y0117594D01*
X0046572Y0119276D01*
X0046572Y0121096D01*
X0045875Y0122777D01*
X0044588Y0124064D01*
X0042907Y0124761D01*
X0041087Y0124761D01*
X0039368Y0124027D02*
X0026937Y0124027D01*
X0026937Y0122428D02*
X0037974Y0122428D01*
X0037422Y0120830D02*
X0028380Y0120830D01*
X0029978Y0119231D02*
X0037440Y0119231D01*
X0038103Y0117633D02*
X0031577Y0117633D01*
X0033175Y0116034D02*
X0040065Y0116034D01*
X0041152Y0114436D02*
X0034774Y0114436D01*
X0036372Y0112837D02*
X0038584Y0112837D01*
X0042036Y0112837D02*
X0042036Y0112837D01*
X0042036Y0111239D02*
X0042036Y0111239D01*
X0042036Y0110147D02*
X0042036Y0110147D01*
X0042036Y0114521D01*
X0042381Y0114521D01*
X0043061Y0114414D01*
X0043716Y0114201D01*
X0044329Y0113888D01*
X0044886Y0113483D01*
X0045373Y0112996D01*
X0045778Y0112439D01*
X0046091Y0111826D01*
X0046303Y0111171D01*
X0046411Y0110491D01*
X0046411Y0110147D01*
X0042036Y0110147D01*
X0045489Y0112837D02*
X0097470Y0112837D01*
X0096657Y0111239D02*
X0046281Y0111239D01*
X0046385Y0109640D02*
X0096517Y0109640D01*
X0096946Y0108042D02*
X0045874Y0108042D01*
X0046066Y0106443D02*
X0098167Y0106443D01*
X0097761Y0103246D02*
X0049263Y0103246D01*
X0047665Y0104845D02*
X0133603Y0104845D01*
X0133845Y0106443D02*
X0104015Y0106443D01*
X0104422Y0103246D02*
X0133964Y0103246D01*
X0141295Y0077670D02*
X0193683Y0077670D01*
X0192811Y0076072D02*
X0142167Y0076072D01*
X0142320Y0074473D02*
X0192658Y0074473D01*
X0193108Y0072874D02*
X0141870Y0072874D01*
X0140578Y0071276D02*
X0194400Y0071276D01*
X0196165Y0069249D02*
X0194556Y0068582D01*
X0193325Y0067351D01*
X0192658Y0065742D01*
X0192658Y0064000D01*
X0193325Y0062391D01*
X0194556Y0061159D01*
X0196165Y0060493D01*
X0197907Y0060493D01*
X0199516Y0061159D01*
X0200748Y0062391D01*
X0201414Y0064000D01*
X0201414Y0065742D01*
X0200748Y0067351D01*
X0199516Y0068582D01*
X0197907Y0069249D01*
X0196165Y0069249D01*
X0194053Y0068079D02*
X0140846Y0068079D01*
X0141981Y0066480D02*
X0192964Y0066480D01*
X0192658Y0064882D02*
X0142320Y0064882D01*
X0142055Y0063283D02*
X0192955Y0063283D01*
X0194031Y0061685D02*
X0141026Y0061685D01*
X0140477Y0058488D02*
X0194462Y0058488D01*
X0193134Y0056889D02*
X0141851Y0056889D01*
X0142359Y0055291D02*
X0192658Y0055291D01*
X0192786Y0053692D02*
X0142264Y0053692D01*
X0200042Y0061685D02*
X0213471Y0061685D01*
X0213951Y0061205D02*
X0219570Y0061205D01*
X0220742Y0062376D01*
X0220742Y0067995D01*
X0219570Y0069167D01*
X0213951Y0069167D01*
X0212780Y0067995D01*
X0212780Y0062376D01*
X0213951Y0061205D01*
X0212780Y0063283D02*
X0201117Y0063283D01*
X0201414Y0064882D02*
X0212780Y0064882D01*
X0212780Y0066480D02*
X0201108Y0066480D01*
X0200019Y0068079D02*
X0212863Y0068079D01*
X0220050Y0061685D02*
X0227709Y0061685D01*
X0227709Y0063283D02*
X0220742Y0063283D01*
X0220742Y0064882D02*
X0227709Y0064882D01*
X0227709Y0066480D02*
X0220742Y0066480D01*
X0220658Y0068079D02*
X0227709Y0068079D01*
X0227709Y0133618D02*
X0201207Y0133618D01*
X0201414Y0135216D02*
X0227709Y0135216D01*
X0227709Y0136815D02*
X0201019Y0136815D01*
X0199803Y0138413D02*
X0227709Y0138413D01*
X0227709Y0140012D02*
X0111647Y0140012D01*
X0113246Y0141610D02*
X0135247Y0141610D01*
X0134012Y0143209D02*
X0114845Y0143209D01*
X0116443Y0144807D02*
X0133603Y0144807D01*
X0133797Y0146406D02*
X0118042Y0146406D01*
X0119640Y0148005D02*
X0134727Y0148005D01*
X0135835Y0151202D02*
X0122837Y0151202D01*
X0121239Y0149603D02*
X0227709Y0149603D01*
X0227709Y0148005D02*
X0200212Y0148005D01*
X0201165Y0146406D02*
X0227709Y0146406D01*
X0227709Y0144807D02*
X0201375Y0144807D01*
X0200982Y0143209D02*
X0227709Y0143209D01*
X0227709Y0141610D02*
X0199770Y0141610D01*
X0199143Y0151202D02*
X0227709Y0151202D01*
X0227709Y0152800D02*
X0200836Y0152800D01*
X0201414Y0154399D02*
X0212382Y0154399D01*
X0210253Y0155997D02*
X0201390Y0155997D01*
X0200700Y0157596D02*
X0208826Y0157596D01*
X0223502Y0154399D02*
X0227709Y0154399D01*
X0227709Y0155997D02*
X0225631Y0155997D01*
X0227058Y0157596D02*
X0227709Y0157596D01*
X0194523Y0168785D02*
X0179864Y0168785D01*
X0181228Y0167187D02*
X0193159Y0167187D01*
X0192658Y0165588D02*
X0181729Y0165588D01*
X0181627Y0163990D02*
X0192354Y0163990D01*
X0194637Y0170384D02*
X0095103Y0170384D01*
X0094820Y0171438D02*
X0095576Y0168616D01*
X0095576Y0165693D01*
X0094820Y0162870D01*
X0093359Y0160339D01*
X0091292Y0158273D01*
X0088761Y0156812D01*
X0085938Y0156055D01*
X0083016Y0156055D01*
X0080193Y0156812D01*
X0077662Y0158273D01*
X0075596Y0160339D01*
X0074134Y0162870D01*
X0073378Y0165693D01*
X0073378Y0168616D01*
X0074134Y0171438D01*
X0075596Y0173969D01*
X0077662Y0176036D01*
X0080193Y0177497D01*
X0083016Y0178254D01*
X0085938Y0178254D01*
X0088761Y0177497D01*
X0091292Y0176036D01*
X0093359Y0173969D01*
X0094820Y0171438D01*
X0094506Y0171982D02*
X0154442Y0171982D01*
X0153955Y0172470D02*
X0155186Y0171238D01*
X0156795Y0170572D01*
X0158537Y0170572D01*
X0160146Y0171238D01*
X0161378Y0172470D01*
X0162044Y0174079D01*
X0162044Y0175820D01*
X0161378Y0177430D01*
X0160146Y0178661D01*
X0158537Y0179328D01*
X0156795Y0179328D01*
X0155186Y0178661D01*
X0153955Y0177430D01*
X0153288Y0175820D01*
X0153288Y0174079D01*
X0153955Y0172470D01*
X0153494Y0173581D02*
X0093583Y0173581D01*
X0092149Y0175179D02*
X0153288Y0175179D01*
X0153685Y0176778D02*
X0090007Y0176778D01*
X0095531Y0168785D02*
X0135516Y0168785D01*
X0134120Y0167187D02*
X0095576Y0167187D01*
X0095548Y0165588D02*
X0133603Y0165588D01*
X0133689Y0163990D02*
X0095120Y0163990D01*
X0094543Y0162391D02*
X0113756Y0162391D01*
X0112157Y0160793D02*
X0093620Y0160793D01*
X0092214Y0159194D02*
X0110559Y0159194D01*
X0108960Y0157596D02*
X0090119Y0157596D01*
X0099369Y0148005D02*
X0026937Y0148005D01*
X0026937Y0149603D02*
X0100967Y0149603D01*
X0102566Y0151202D02*
X0026937Y0151202D01*
X0026937Y0152800D02*
X0104165Y0152800D01*
X0105763Y0154399D02*
X0026937Y0154399D01*
X0026937Y0155997D02*
X0107362Y0155997D01*
X0097770Y0146406D02*
X0026937Y0146406D01*
X0026937Y0157596D02*
X0039753Y0157596D01*
X0040429Y0157205D02*
X0043252Y0156449D01*
X0046175Y0156449D01*
X0048998Y0157205D01*
X0051528Y0158666D01*
X0053595Y0160733D01*
X0055056Y0163264D01*
X0055813Y0166087D01*
X0055813Y0169009D01*
X0055056Y0171832D01*
X0053595Y0174363D01*
X0051528Y0176430D01*
X0048998Y0177891D01*
X0046175Y0178647D01*
X0043252Y0178647D01*
X0040429Y0177891D01*
X0037898Y0176430D01*
X0035832Y0174363D01*
X0034371Y0171832D01*
X0033614Y0169009D01*
X0033614Y0166087D01*
X0034371Y0163264D01*
X0035832Y0160733D01*
X0037898Y0158666D01*
X0040429Y0157205D01*
X0037371Y0159194D02*
X0026937Y0159194D01*
X0026937Y0160793D02*
X0035797Y0160793D01*
X0034874Y0162391D02*
X0026937Y0162391D01*
X0026748Y0163990D02*
X0034176Y0163990D01*
X0033748Y0165588D02*
X0025421Y0165588D01*
X0024737Y0167187D02*
X0033614Y0167187D01*
X0033614Y0168785D02*
X0024737Y0168785D01*
X0024737Y0170384D02*
X0033982Y0170384D01*
X0034457Y0171982D02*
X0024737Y0171982D01*
X0024737Y0173581D02*
X0035380Y0173581D01*
X0036648Y0175179D02*
X0024737Y0175179D01*
X0024737Y0176778D02*
X0038501Y0176778D01*
X0042241Y0178376D02*
X0024737Y0178376D01*
X0024737Y0179975D02*
X0194637Y0179975D01*
X0194637Y0181573D02*
X0024737Y0181573D01*
X0024737Y0183172D02*
X0194637Y0183172D01*
X0194637Y0184770D02*
X0024737Y0184770D01*
X0024737Y0186369D02*
X0194637Y0186369D01*
X0194637Y0187967D02*
X0024737Y0187967D01*
X0024737Y0189566D02*
X0028974Y0189566D01*
X0029168Y0189425D02*
X0029809Y0189099D01*
X0030493Y0188876D01*
X0031204Y0188764D01*
X0031478Y0188764D01*
X0031478Y0193250D01*
X0026992Y0193250D01*
X0026992Y0192976D01*
X0027105Y0192265D01*
X0027327Y0191581D01*
X0027654Y0190939D01*
X0028077Y0190357D01*
X0028586Y0189848D01*
X0029168Y0189425D01*
X0031478Y0189566D02*
X0031650Y0189566D01*
X0031650Y0188764D02*
X0031924Y0188764D01*
X0032634Y0188876D01*
X0033319Y0189099D01*
X0033960Y0189425D01*
X0034542Y0189848D01*
X0035051Y0190357D01*
X0035474Y0190939D01*
X0035800Y0191581D01*
X0036023Y0192265D01*
X0036135Y0192976D01*
X0036135Y0193250D01*
X0031650Y0193250D01*
X0031650Y0193421D01*
X0036135Y0193421D01*
X0036135Y0193695D01*
X0036023Y0194406D01*
X0035800Y0195090D01*
X0035474Y0195731D01*
X0035051Y0196314D01*
X0034542Y0196822D01*
X0033960Y0197245D01*
X0033319Y0197572D01*
X0032634Y0197795D01*
X0031924Y0197907D01*
X0031650Y0197907D01*
X0031650Y0193421D01*
X0031478Y0193421D01*
X0031478Y0193250D01*
X0031650Y0193250D01*
X0031650Y0188764D01*
X0031650Y0191164D02*
X0031478Y0191164D01*
X0031478Y0192763D02*
X0031650Y0192763D01*
X0031478Y0193421D02*
X0026992Y0193421D01*
X0026992Y0193695D01*
X0027105Y0194406D01*
X0027327Y0195090D01*
X0027654Y0195731D01*
X0028077Y0196314D01*
X0028586Y0196822D01*
X0029168Y0197245D01*
X0029809Y0197572D01*
X0030493Y0197795D01*
X0031204Y0197907D01*
X0031478Y0197907D01*
X0031478Y0193421D01*
X0031478Y0194361D02*
X0031650Y0194361D01*
X0031650Y0195960D02*
X0031478Y0195960D01*
X0031478Y0197558D02*
X0031650Y0197558D01*
X0033346Y0197558D02*
X0194637Y0197558D01*
X0194637Y0199157D02*
X0087837Y0199157D01*
X0087287Y0198606D02*
X0088458Y0199778D01*
X0088458Y0205397D01*
X0087287Y0206568D01*
X0081668Y0206568D01*
X0080496Y0205397D01*
X0080496Y0199778D01*
X0081668Y0198606D01*
X0087287Y0198606D01*
X0088458Y0200755D02*
X0194637Y0200755D01*
X0194637Y0202354D02*
X0088458Y0202354D01*
X0088458Y0203952D02*
X0194637Y0203952D01*
X0194637Y0205551D02*
X0088304Y0205551D01*
X0080650Y0205551D02*
X0068619Y0205551D01*
X0068773Y0205397D02*
X0067602Y0206568D01*
X0061983Y0206568D01*
X0060811Y0205397D01*
X0060811Y0199778D01*
X0061983Y0198606D01*
X0067602Y0198606D01*
X0068773Y0199778D01*
X0068773Y0205397D01*
X0068773Y0203952D02*
X0080496Y0203952D01*
X0080496Y0202354D02*
X0068773Y0202354D01*
X0068773Y0200755D02*
X0080496Y0200755D01*
X0081117Y0199157D02*
X0068152Y0199157D01*
X0061432Y0199157D02*
X0024737Y0199157D01*
X0024737Y0200755D02*
X0060811Y0200755D01*
X0060811Y0202354D02*
X0024737Y0202354D01*
X0024737Y0203952D02*
X0060811Y0203952D01*
X0060965Y0205551D02*
X0024737Y0205551D01*
X0024737Y0207149D02*
X0194637Y0207149D01*
X0194637Y0208748D02*
X0024737Y0208748D01*
X0024737Y0210346D02*
X0194637Y0210346D01*
X0194637Y0211945D02*
X0024737Y0211945D01*
X0024737Y0213543D02*
X0194637Y0213543D01*
X0194637Y0215142D02*
X0024737Y0215142D01*
X0024737Y0216741D02*
X0194637Y0216741D01*
X0194637Y0218339D02*
X0166075Y0218339D01*
X0166027Y0218291D02*
X0167198Y0219463D01*
X0167198Y0225082D01*
X0166027Y0226254D01*
X0160408Y0226254D01*
X0159236Y0225082D01*
X0159236Y0219463D01*
X0160408Y0218291D01*
X0166027Y0218291D01*
X0167198Y0219938D02*
X0194637Y0219938D01*
X0194637Y0221536D02*
X0167198Y0221536D01*
X0167198Y0223135D02*
X0194637Y0223135D01*
X0194637Y0224733D02*
X0167198Y0224733D01*
X0159236Y0224733D02*
X0147513Y0224733D01*
X0147513Y0225082D02*
X0146342Y0226254D01*
X0140723Y0226254D01*
X0139551Y0225082D01*
X0139551Y0219463D01*
X0140723Y0218291D01*
X0146342Y0218291D01*
X0147513Y0219463D01*
X0147513Y0225082D01*
X0147513Y0223135D02*
X0159236Y0223135D01*
X0159236Y0221536D02*
X0147513Y0221536D01*
X0147513Y0219938D02*
X0159236Y0219938D01*
X0160360Y0218339D02*
X0146389Y0218339D01*
X0140675Y0218339D02*
X0126704Y0218339D01*
X0126657Y0218291D02*
X0127828Y0219463D01*
X0127828Y0225082D01*
X0126657Y0226254D01*
X0121038Y0226254D01*
X0119866Y0225082D01*
X0119866Y0219463D01*
X0121038Y0218291D01*
X0126657Y0218291D01*
X0127828Y0219938D02*
X0139551Y0219938D01*
X0139551Y0221536D02*
X0127828Y0221536D01*
X0127828Y0223135D02*
X0139551Y0223135D01*
X0139551Y0224733D02*
X0127828Y0224733D01*
X0120990Y0218339D02*
X0107019Y0218339D01*
X0106972Y0218291D02*
X0108143Y0219463D01*
X0108143Y0225082D01*
X0106972Y0226254D01*
X0101353Y0226254D01*
X0100181Y0225082D01*
X0100181Y0219463D01*
X0101353Y0218291D01*
X0106972Y0218291D01*
X0108143Y0219938D02*
X0119866Y0219938D01*
X0119866Y0221536D02*
X0108143Y0221536D01*
X0108143Y0223135D02*
X0119866Y0223135D01*
X0119866Y0224733D02*
X0108143Y0224733D01*
X0101305Y0218339D02*
X0087334Y0218339D01*
X0087287Y0218291D02*
X0088458Y0219463D01*
X0088458Y0225082D01*
X0087287Y0226254D01*
X0081668Y0226254D01*
X0080496Y0225082D01*
X0080496Y0219463D01*
X0081668Y0218291D01*
X0087287Y0218291D01*
X0088458Y0219938D02*
X0100181Y0219938D01*
X0100181Y0221536D02*
X0088458Y0221536D01*
X0088458Y0223135D02*
X0100181Y0223135D01*
X0100181Y0224733D02*
X0088458Y0224733D01*
X0081620Y0218339D02*
X0067649Y0218339D01*
X0067602Y0218291D02*
X0068773Y0219463D01*
X0068773Y0225082D01*
X0067602Y0226254D01*
X0061983Y0226254D01*
X0060811Y0225082D01*
X0060811Y0219463D01*
X0061983Y0218291D01*
X0067602Y0218291D01*
X0068773Y0219938D02*
X0080496Y0219938D01*
X0080496Y0221536D02*
X0068773Y0221536D01*
X0068773Y0223135D02*
X0080496Y0223135D01*
X0080496Y0224733D02*
X0068773Y0224733D01*
X0060811Y0224733D02*
X0024737Y0224733D01*
X0024737Y0223135D02*
X0060811Y0223135D01*
X0060811Y0221536D02*
X0024737Y0221536D01*
X0024737Y0219938D02*
X0060811Y0219938D01*
X0061935Y0218339D02*
X0024737Y0218339D01*
X0024737Y0226332D02*
X0194637Y0226332D01*
X0194637Y0227930D02*
X0024737Y0227930D01*
X0025292Y0229529D02*
X0028275Y0229529D01*
X0028077Y0229727D02*
X0028586Y0229218D01*
X0029168Y0228795D01*
X0029809Y0228469D01*
X0030493Y0228246D01*
X0031204Y0228134D01*
X0031478Y0228134D01*
X0031478Y0232620D01*
X0026992Y0232620D01*
X0026992Y0232346D01*
X0027105Y0231635D01*
X0027327Y0230951D01*
X0027654Y0230309D01*
X0028077Y0229727D01*
X0027270Y0231127D02*
X0026232Y0231127D01*
X0026493Y0232726D02*
X0031478Y0232726D01*
X0031478Y0232791D02*
X0031478Y0232620D01*
X0031650Y0232620D01*
X0031650Y0232791D01*
X0036135Y0232791D01*
X0036135Y0233065D01*
X0036023Y0233776D01*
X0035800Y0234460D01*
X0035474Y0235102D01*
X0035051Y0235684D01*
X0034542Y0236193D01*
X0033960Y0236616D01*
X0033319Y0236942D01*
X0032634Y0237165D01*
X0031924Y0237277D01*
X0031650Y0237277D01*
X0031650Y0232791D01*
X0031478Y0232791D01*
X0026992Y0232791D01*
X0026992Y0233065D01*
X0027105Y0233776D01*
X0027327Y0234460D01*
X0027654Y0235102D01*
X0028077Y0235684D01*
X0028586Y0236193D01*
X0029168Y0236616D01*
X0029809Y0236942D01*
X0030493Y0237165D01*
X0031204Y0237277D01*
X0031478Y0237277D01*
X0031478Y0232791D01*
X0031650Y0232726D02*
X0192146Y0232726D01*
X0192407Y0231127D02*
X0035858Y0231127D01*
X0035800Y0230951D02*
X0036023Y0231635D01*
X0036135Y0232346D01*
X0036135Y0232620D01*
X0031650Y0232620D01*
X0031650Y0228134D01*
X0031924Y0228134D01*
X0032634Y0228246D01*
X0033319Y0228469D01*
X0033960Y0228795D01*
X0034542Y0229218D01*
X0035051Y0229727D01*
X0035474Y0230309D01*
X0035800Y0230951D01*
X0034852Y0229529D02*
X0193347Y0229529D01*
X0192424Y0234324D02*
X0035845Y0234324D01*
X0034812Y0235923D02*
X0193387Y0235923D01*
X0200449Y0235923D02*
X0203512Y0235923D01*
X0202480Y0234324D02*
X0201412Y0234324D01*
X0206675Y0234324D02*
X0206846Y0234324D01*
X0206846Y0235923D02*
X0206675Y0235923D01*
X0206675Y0231127D02*
X0206846Y0231127D01*
X0206846Y0229529D02*
X0206675Y0229529D01*
X0210049Y0229529D02*
X0227709Y0229529D01*
X0227709Y0231127D02*
X0211055Y0231127D01*
X0227709Y0239120D02*
X0010537Y0239120D01*
X0010537Y0240718D02*
X0227709Y0240718D01*
X0227709Y0242317D02*
X0010537Y0242317D01*
X0010537Y0243915D02*
X0227709Y0243915D01*
X0227709Y0245514D02*
X0010537Y0245514D01*
X0010537Y0247112D02*
X0227709Y0247112D01*
X0204979Y0197558D02*
X0199637Y0197558D01*
X0200996Y0195960D02*
X0203017Y0195960D01*
X0202294Y0194361D02*
X0201658Y0194361D01*
X0201690Y0192763D02*
X0202223Y0192763D01*
X0202736Y0191164D02*
X0201184Y0191164D01*
X0199897Y0189566D02*
X0204171Y0189566D01*
X0193940Y0189566D02*
X0034153Y0189566D01*
X0035588Y0191164D02*
X0192653Y0191164D01*
X0192146Y0192763D02*
X0036102Y0192763D01*
X0036030Y0194361D02*
X0192178Y0194361D01*
X0192840Y0195960D02*
X0035308Y0195960D01*
X0029782Y0197558D02*
X0024737Y0197558D01*
X0025799Y0195960D02*
X0027820Y0195960D01*
X0027098Y0194361D02*
X0026461Y0194361D01*
X0026493Y0192763D02*
X0027026Y0192763D01*
X0027539Y0191164D02*
X0025987Y0191164D01*
X0047186Y0178376D02*
X0154901Y0178376D01*
X0160431Y0178376D02*
X0164744Y0178376D01*
X0165029Y0178661D02*
X0163797Y0177430D01*
X0163131Y0175820D01*
X0163131Y0174079D01*
X0163797Y0172470D01*
X0165029Y0171238D01*
X0166638Y0170572D01*
X0168379Y0170572D01*
X0169989Y0171238D01*
X0171220Y0172470D01*
X0171887Y0174079D01*
X0171887Y0175820D01*
X0171220Y0177430D01*
X0169989Y0178661D01*
X0168379Y0179328D01*
X0166638Y0179328D01*
X0165029Y0178661D01*
X0163527Y0176778D02*
X0161648Y0176778D01*
X0162044Y0175179D02*
X0163131Y0175179D01*
X0163337Y0173581D02*
X0161838Y0173581D01*
X0160890Y0171982D02*
X0164285Y0171982D01*
X0164995Y0168785D02*
X0160179Y0168785D01*
X0161543Y0167187D02*
X0163631Y0167187D01*
X0163131Y0165588D02*
X0162044Y0165588D01*
X0161942Y0163990D02*
X0163233Y0163990D01*
X0170022Y0168785D02*
X0174838Y0168785D01*
X0173474Y0167187D02*
X0171386Y0167187D01*
X0171887Y0165588D02*
X0172973Y0165588D01*
X0173075Y0163990D02*
X0171784Y0163990D01*
X0174871Y0171238D02*
X0176480Y0170572D01*
X0178222Y0170572D01*
X0179831Y0171238D01*
X0181063Y0172470D01*
X0181729Y0174079D01*
X0181729Y0175820D01*
X0181063Y0177430D01*
X0179831Y0178661D01*
X0178222Y0179328D01*
X0176480Y0179328D01*
X0174871Y0178661D01*
X0173640Y0177430D01*
X0172973Y0175820D01*
X0172973Y0174079D01*
X0173640Y0172470D01*
X0174871Y0171238D01*
X0174127Y0171982D02*
X0170733Y0171982D01*
X0171680Y0173581D02*
X0173180Y0173581D01*
X0172973Y0175179D02*
X0171887Y0175179D01*
X0171490Y0176778D02*
X0173370Y0176778D01*
X0174586Y0178376D02*
X0170273Y0178376D01*
X0180116Y0178376D02*
X0194637Y0178376D01*
X0194637Y0176778D02*
X0181333Y0176778D01*
X0181729Y0175179D02*
X0194637Y0175179D01*
X0194637Y0173581D02*
X0181523Y0173581D01*
X0180575Y0171982D02*
X0194637Y0171982D01*
X0155153Y0168785D02*
X0140447Y0168785D01*
X0141842Y0167187D02*
X0153789Y0167187D01*
X0153288Y0165588D02*
X0142359Y0165588D01*
X0142273Y0163990D02*
X0153390Y0163990D01*
X0099252Y0125625D02*
X0043020Y0125625D01*
X0044626Y0124027D02*
X0098941Y0124027D01*
X0097127Y0122428D02*
X0046020Y0122428D01*
X0046572Y0120830D02*
X0096477Y0120830D01*
X0096477Y0119231D02*
X0046553Y0119231D01*
X0045891Y0117633D02*
X0097060Y0117633D01*
X0098550Y0116034D02*
X0043929Y0116034D01*
X0042920Y0114436D02*
X0099872Y0114436D01*
X0097190Y0127224D02*
X0045583Y0127224D01*
X0046463Y0128822D02*
X0096518Y0128822D01*
X0096477Y0130421D02*
X0046650Y0130421D01*
X0042036Y0114436D02*
X0042036Y0114436D01*
X0049674Y0157596D02*
X0078835Y0157596D01*
X0076741Y0159194D02*
X0052056Y0159194D01*
X0053629Y0160793D02*
X0075334Y0160793D01*
X0074411Y0162391D02*
X0054552Y0162391D01*
X0055251Y0163990D02*
X0073834Y0163990D01*
X0073406Y0165588D02*
X0055679Y0165588D01*
X0055813Y0167187D02*
X0073378Y0167187D01*
X0073423Y0168785D02*
X0055813Y0168785D01*
X0055444Y0170384D02*
X0073852Y0170384D01*
X0074448Y0171982D02*
X0054970Y0171982D01*
X0054047Y0173581D02*
X0075371Y0173581D01*
X0076805Y0175179D02*
X0052779Y0175179D01*
X0050926Y0176778D02*
X0078947Y0176778D01*
X0031650Y0229529D02*
X0031478Y0229529D01*
X0031478Y0231127D02*
X0031650Y0231127D01*
X0031650Y0234324D02*
X0031478Y0234324D01*
X0031478Y0235923D02*
X0031650Y0235923D01*
X0028316Y0235923D02*
X0025252Y0235923D01*
X0026216Y0234324D02*
X0027283Y0234324D01*
X0010537Y0248711D02*
X0154213Y0248711D01*
X0060811Y0028116D02*
X0010537Y0028116D01*
X0010537Y0026518D02*
X0060811Y0026518D01*
X0060811Y0024919D02*
X0010537Y0024919D01*
X0010537Y0023321D02*
X0060811Y0023321D01*
D18*
X0064792Y0025422D03*
X0064792Y0045107D03*
X0064792Y0064792D03*
X0165580Y0097469D03*
X0165580Y0110461D03*
X0165580Y0123060D03*
X0216761Y0102587D03*
X0216761Y0083690D03*
X0216761Y0065186D03*
X0084477Y0202587D03*
X0084477Y0222272D03*
X0064792Y0222272D03*
X0064792Y0202587D03*
X0104162Y0222272D03*
X0123847Y0222272D03*
X0143532Y0222272D03*
X0163217Y0222272D03*
M02*
