%
M48
M72
T01C0.02362
T02C0.02756
T03C0.03150
T04C0.03543
T05C0.12598
%
T01
X64792Y25422
X64792Y45107
X64792Y64792
X165580Y97469
X165580Y110461
X165580Y123060
X216761Y102587
X216761Y83690
X216761Y65186
X84477Y202587
X84477Y222272
X64792Y222272
X64792Y202587
X104162Y222272
X123847Y222272
X143532Y222272
X163217Y222272
T02
X167509Y174950
X177351Y174950
X177351Y165107
X167509Y165107
X157666Y165107
X157666Y174950
X137981Y165068
X137942Y155068
X137981Y145068
X137981Y135068
X137981Y125068
X137981Y115028
X137981Y104989
X137981Y94950
X137942Y84910
X137942Y74831
X137942Y64792
X137981Y54792
X137902Y44713
X137942Y34753
X137981Y25343
X197036Y25343
X196997Y35383
X197036Y45265
X197036Y54871
X197036Y64871
X197036Y74831
X197076Y84871
X197036Y94871
X197076Y104871
X197076Y114910
X197115Y124950
X197036Y134989
X196997Y145028
X197036Y155068
X197036Y165107
T03
X101052Y139792
X101052Y129831
X101052Y119950
X101091Y109989
X101091Y100107
X114398Y62036
X124517Y62036
X124477Y51288
X124556Y41524
X124556Y31406
X114398Y31446
X114359Y41524
X114359Y51328
X42036Y100107
X42036Y110146
X41997Y120186
X42076Y130186
X42036Y140186
X19713Y125107
X19713Y105422
T04
X21721Y193335
X31564Y193335
X31564Y232706
X21721Y232706
X196918Y232706
X206761Y232706
X206761Y193335
X196918Y193335
T05
X217942Y164005
X216761Y35658
X84477Y167154
X44713Y167548
M30
